/* XPM */
static char *dcbeb5b4276f46c7cc425f350b412cc9dnyhEv2QITgqgnyU[] = {
/* columns rows colors chars-per-pixel */
"33 33 31 1 ",
"  c black",
". c #445566",
"X c #446666",
"o c #447777",
"O c #557777",
"+ c #999933",
"@ c #BBBB55",
"# c #CCBB55",
"$ c #CCBB66",
"% c #CCCC77",
"& c #DDCC77",
"* c #FFFFFFFF",
"= c #668888",
"- c #779988",
"; c #779999",
": c #77AA99",
"> c #88AA99",
", c #88AAAA",
"< c #99AAAA",
"1 c #99BBAA",
"2 c #99BBBB",
"3 c #AABBBB",
"4 c #AACCBB",
"5 c #DDCC88",
"6 c #DDDD88",
"7 c #AACCCC",
"8 c #BBDDCC",
"9 c #CCDDDD",
"0 c #DDEEEE",
"q c #EEFFFF",
"w c white",
/* pixels */
"*********************************",
"******************  *************",
"****************** 9  ***********",
"***************** 9>99  *********",
"***************** 9>>>99  *******",
"**************** 9>>=>>>99  *****",
"**************** 9,>OO>>>>99  ***",
"*************** 91,,;=OO=,,,99  *",
"*************  922=;,;=;OO==,,9 *",
"************ 6622==OO==;1;=<,<9 *",
"*********** 6666522;==22222229. *",
"**********  6665&%%43;O==39229. *",
"********* 08,665%%%%%4;=7;;49.o *",
"******   02=1,,&%%%%%$@77779.oo *",
"**    qq032==22,,%%%$#@@@779.o **",
"** wwq77322=O<O22,,$@@@@@@9.oo **",
"*** w7,4==2==OO2244,,@@@@@+.o ***",
"**  w7773=====OOO3777,,@@++o ****",
"* 77-w7772======O=43;779+++. ****",
"* =7:-ww4;======3411;70<+++ *****",
"* ==7:--w443;2;277;770<.+++ *****",
"** O=77:-ww7473;4,700<.o++ ******",
"** =O==7:--ww77477q-<.o.+ *******",
"** O=OO=77:--ww7qq-<.o.o+ *******",
"***  ==O==777--q-<<.o.o  ********",
"***** O=OO===77<<..o.o **********",
"******  O=OOO==..oo.  ***********",
"********  O==OOXo.. *************",
"**********  O==..o **************",
"************  OX  ***************",
"**************  *****************",
"*********************************",
"*********************************"
};
