/* XPM */
static char *_71ca0df13d64566fb5986c121d50e079OmYcBrMEIcTRqYl[] = {
/* columns rows colors chars-per-pixel */
"64 64 140 2 ",
"   c #1C0900",
".  c #1C0909",
"X  c #1C1C00",
"o  c #1C1C09",
"O  c #300909",
"+  c #221100",
"@  c #301C00",
"#  c #301C09",
"$  c #221111",
"%  c #331111",
"&  c #301C1C",
"*  c #002200",
"=  c #112200",
"-  c #003300",
";  c #113300",
":  c #222200",
">  c #332200",
",  c #223300",
"<  c #333300",
"1  c #303009",
"2  c #222211",
"3  c #332211",
"4  c #333311",
"5  c #333322",
"6  c #421C00",
"7  c #421C09",
"8  c #421C1C",
"9  c #423009",
"0  c #543009",
"q  c #442211",
"w  c #443311",
"e  c #42301C",
"r  c #553311",
"t  c #54301C",
"y  c #663009",
"u  c #663311",
"i  c #66301C",
"p  c #443322",
"a  c #553322",
"s  c #543030",
"d  c #663322",
"f  c #114400",
"g  c #115500",
"h  c #224400",
"j  c #225500",
"k  c #224411",
"l  c #334411",
"z  c #226600",
"x  c #336600",
"c  c #227700",
"v  c #337700",
"b  c #226611",
"n  c #337711",
"m  c #544209",
"M  c #444411",
"N  c #554411",
"B  c #54421C",
"V  c #664209",
"C  c #664411",
"Z  c #66421C",
"A  c #78421C",
"S  c #66541C",
"D  c #78541C",
"F  c #78661C",
"G  c #554422",
"H  c #555522",
"J  c #544230",
"K  c #664422",
"L  c #774422",
"P  c #665522",
"I  c #775522",
"U  c #664230",
"Y  c #664433",
"T  c #784230",
"R  c #665430",
"E  c #665533",
"W  c #775533",
"Q  c #785430",
"!  c #776633",
"~  c #786630",
"^  c #89541C",
"/  c #895430",
"(  c #885533",
")  c #896630",
"_  c #886633",
"`  c #9A6630",
"'  c #996633",
"]  c #897830",
"[  c #9A7830",
"{  c #895442",
"}  c #896642",
"|  c #886644",
" . c #9A6642",
".. c #996644",
"X. c #997744",
"o. c #9A7842",
"O. c #9A7854",
"+. c #AA7744",
"@. c #AB7842",
"#. c #AA7755",
"$. c #AB7854",
"%. c #338800",
"&. c #339900",
"*. c #338811",
"=. c #339911",
"-. c #448800",
";. c #449900",
":. c #448811",
">. c #449911",
",. c #44AA11",
"<. c #55AA11",
"1. c #44BB11",
"2. c #55BB11",
"3. c #44AA22",
"4. c #55AA22",
"5. c #44BB22",
"6. c #55BB22",
"7. c #55CC22",
"8. c #66CC22",
"9. c #66DD22",
"0. c #66CC33",
"q. c #77CC33",
"w. c #66DD33",
"e. c #77DD33",
"r. c #77EE33",
"t. c #77DD44",
"y. c #77EE44",
"u. c #88DD33",
"i. c #9A8954",
"p. c #88DD44",
"a. c #88EE44",
"s. c #99EE44",
"d. c #88FF44",
"f. c #99FF44",
"g. c #99EE55",
"h. c #99FF55",
"j. c #AAEE44",
"k. c #AAFF55",
"l. c #AAFF66",
"z. c #BBFF66",
/* pixels */
"e.w.e.f.h.a.e.w.r.t.r.t.r.y.e.y.e.r.w.r.r.y.r.y.r.t.r.r.e.y.r.e.r.t.r.t.r.t.r.r.y.r.y.r.r.y.r.r.e.y.e.y.r.y.a.f.k.f.y.a.a.h.y.r.",
"6.2.6.a.k.k.7.0.w.f.h.y.e.w.a.a.a.d.p.w.0.w.e.8.w.r.y.e.d.k.h.l.h.z.z.z.z.z.e.w.w.g.k.a.k.y.e.l.k.l.k.z.z.k.k.l.z.k.z.k.h.z.s.r.",
"6.2.5.2.1.6.2.2.6.l.z.a.w.8.e.a.s.a.s.h.j.k.k.6.a.h.r.r.y.a.a.a.a.h.h.k.h.e.7.6.2.2.6.7.e.w.8.e.e.w.0.a.u.w.q.e.6.2.5.2.4.1.6.6.",
"6.2.2.6.2.5.2.5.2.2.2.2.6.2.6.1.6.1.6.1.6.1.6.2.1.6.0.w.w.9.w.w.e.9.w.6.2.6.2.6.1.6.2.4.1.<.5.2.,.<.,.,.>.>.>.>.=.>.>.*.>.:.=.:.",
"1.3.<.1.3.<.1.4.2.5.6.1.6.1.6.2.2.6.2.4.2.1.<.5.2.6.2.2.6.2.6.2.6.2.2.6.1.2.5.2.6.,.,.,.>.>.>.>.>.=.:.>.*.>.=.>.:.*.v =.:.=.:.=.",
",.>.>.>.>.=.>.>.>.,.,.6.<.,.,.,.>.>.>.,.>.>.=.>.,.>.,.3.<.,.,.,.,.3.,.>.,.>.>.>.>.>.:.=.:.>.=.:.=.>.>.*.>.:.*.>.&.:.c :.=.-.=.:.",
":.=.:.*.:.>.*.>.*.:.>.>.=.>.:.>.*.>.*.*.>.*.:.>.:.=.:.>.>.=.:.>.*.:.=.:.=.:.>.*.>.v =.:.=.:.=.:.v *.:.&.:.=.;.*.:.*.z v :.=.:.>.",
"*.>.=.>.&.:.=.-.*.>.%.>.*.>.*.>.*.>.>.*.>.*.>.c x *.>.=.:.>.=.:.*.v z :.=.:.=.:.=.z v >.>.*.;.*.z v =.:.>.v *.v z z z z *.v z z ",
">.-.>.*.>.:.=.>.z *.>.*.>.:.=.:.>.%.>.v *.;.n j j z v >.*.>.*.>.v z z z z z v >.:.z n *.%.>.:.v z z >.*.*.z j z z x z z z z x z ",
"*.=.:.>.*.>.*.>.z z *.>.%.>.:.&.:.=.v z z z z - f z z n %.>.>.z z x k , ; f z z *.v z *.v *.=.v j z :.%.z z z j = * * , f z z b ",
"-.z >.*.;.*.>.-.z x z >.n %.=.:.=.:.z b x z f = ; z z z z :.*.z j = , : , = ; x z z v n v *.>.z f ; z z x z , = = 2 : = = ; h f ",
"*.z *.>.*.>.*.*.j f v n z *.:.>.*.>.z z z j , X.M , f x z n z j * < a w 3 q 4 * f j z *.z v n z f = z b z : ; = 3 $ 3 3 3 3 : 4 ",
"%.z z :.*.;.:.c ; f j c x z >.%.x z z h ; ; 4 W _ H * ; z x j , , a w q 3 4 E K , ; j z z n z z : f z z h = p 3 3 2 2 3 3 3 3 r ",
"*.x z z z *.:.z ; * j z z z >.v z z j , G Y I K Y W W M - z f < 3 3 3 3 3 w K Y K - * x z n z j : ; ; h = : a q 3 3 $ 3 3 3 3 q ",
"z j j z x v *.z ; = f j z x *.z f ; ; p I Y K Y K K G 4 ; j ; q 4 q 3 q 3 q Y P a , - z z v z = : 3 = = = 3 K w 3 3 3 $ 3 > 3 3 ",
"z = f z z n c j ; w * ; z z z j ; l w P Y P K K G G a r - = ; 3 3 3 3 3 3 4 q 3 3 , = j z z = ; 3 3 : : 3 3 G u w 3 3 $ 2 q 3 3 ",
"; - ; z z z z ; w G w ; ; j j * 4 W K Y P Y K K a r G r 4 * : q 3 q > q 3 3 3 q 3 : * g x z = 2 $ 3 3 3 q 3 K G r 3 3 > $ 2 $ 2 ",
"; P * z x z j ; K K r G = f = ; N Y P K K K G a N p r a G = : 3 3 3 3 3 3 3 3 2 2 $ ; ; j f = $ 5 G K a w q K K a q 3 3 3 $ 2 $ ",
"G W ; j z f ; ; K a a K r ; ; a a K K Y G a r a r G a r a < 3 3 3 q 3 > 2 $ $ $ 2 $ = * f ; 2 w a K W W W E W K G r q 3 3 $ 2 $ ",
"( W 4 ; z = ; W a 3 w a G < w G r G G K a N a N a r G a N 3 3 q > 3 3 2 % 2 2 + 2 $ 2 = f = G K W W W W W W W K K G w 3 3 2 $ 2 ",
"W W W h f ; G W K 3 3 q r G a 0 a r a G r a a G r G d N q 3 3 3 3 3 $ $ 2 $ 2 $ 2 $ 2 2 ; ; W W W W W W W W I K K a q 3 3 + 2 $ ",
"W W W W * f W W r 3 3 3 3 q r G a N a C a G N a K r G a r 3 3 q 3 $ 2 $ 2 $ 2 $ $ 2 3 L G G ( _ ..X.X.X.' ! W K G C w 3 3 2 $ 2 ",
"W W W W N G L G a w 3 > 3 3 q G K K G a K K d G K G d G q 3 3 3 $ 2 $ 2 $ : $ 3 3 3 K ! _ | X.o.#.+.#.+...W K K a K w 3 3 $ 2 $ ",
"W W I W W K K K r q 3 3 3 3 3 9 w a C G d N G u G d N a 3 3 > 3 $ 2 + 2 $ 2 2 3 3 w W ....X.@.$.+.X.+.X.| W K G C a q 3 3 3 $ 2 ",
"Q Q D Z t V t 0 # # 7 Q D Z Z Z Z Z Z B y B i m t 7 @ # # . X . . . X . . o @ 9 Z Q / ) o.@.o.@.o.@...Q S i m i 9 # @ # # .   . ",
"Q D Z B Z B Z 0 # 9 Z Q Q Q Q Q Q Q D Z B Z B 9 # # # # o O o o o o # o # # 0 t D Q Q Q / } }  .@.o.~ Q Z Z B 0 # # # O # . o . ",
"Q S i B i m i B 7 Z Q Q Q Q Q Q Q Q Z B i 0 # 7 # # # # # # # # # O # . o 7 B Z Z Q Q Q Q Q Q ~ | ( Q A B i B 7 # # # # # . o . ",
"Q D t Z B Z B 9 Z Q Q Q Q ~ Q D Z B i 0 9 # # # # 6 # # 7 9 0 0 # 7 # o # B i B Z Q Q Q Q Q Q Q Q Q Q Q B Z 0 1 # # # @ o . o . ",
"Q Z Z B y B i 0 Z Q Q ~ Q Q Z t Z m B 9 # # 7 # # # 7 9 B Z Z B 0 9 7 9 t V B i Q ) Q Q ~ Q / Q Q Q Q Q Z Z t 7 # # # . o . o   ",
"o.( B i B Z B Z Q ) Q Q Q Q D B i Z t # 7 # # 7 @ # # 0 i B i B Z t Z B i B Z Z o.o.Q Q / Q Q Q Q ~ Q Q D B 0 # # 7 # . o . o . ",
" .Q V B i m i B @.$.Q Q ( Q D t Z m 0 # # # # # # 7 # 0 B Z m i Z B Z B V t Z D o.{ Q Q Q Q F Q Q ( Q Q Z Z t # # # o . o . . o ",
"[ Q Z B Z B Z t @.o.) Q Q Q Q Z B i 9 7 # 7 @ 7 # # 0 Z B i Z E D Q Z i Z Z o. . .Q Q Q ~ Q Q Q Q Q D Q Z Z 0 # # @ O o . X . o ",
" .Q B y B i m Z o.$.o.Q Q Q D t Z B 0 9 # # # # 7 9 Z B i B D / } o.Q Z B Z @.O.) Q Q / D Q / Q Q Q ~ / Z B t @ # # o . o . o . ",
"] / B i B Z t Z ) $.@.) Q Q Q B V t B 7 # # 7 # 9 B i m Z Q o.$.) $.) Z Z Z } @.$.o.Q Q Q Q Q Q ~ / Q o.Q Z 0 # # # o . o . o . ",
" .Q 0 Z B y B Z } @.O.o.Q Q D i B Z 0 9 # # # 9 0 Z B Z Q @.O.o.Q / Q B i S Q Q X.@.o.) Q Q ~ Q Q Q Q  .) t m # # # O o . o . o ",
"@.Q t m Z B i m  .o.$.@.} Q Q B i B Z 7 # # 7 0 B Z Z / @.O.@.Q Q Q Q Z B A Q Q Q ) $.@.o./ Q Q Q D Q } ) B t # # # o . # . X . ",
"o.B t t B Z B i ~ @.@.$.@.Q D B V B t 9 # # 9 Z t Z  .i.@.$.~ Q Q Q D Z Z Z Q Q Q Q ) O.@.o. .Q Q / Q ) } y t @ # # . o X . . o ",
"o.Z B y B y B Z Z o.o.$.o.o.Q i B i Z 9 # 7 t Z S @.$.@.o.o.Q Q D Q Q Z B Z Q Q Q Q Q Q @.O.@.o.) Q Q } ` B 0 # # # . . o . o . ",
" .Z t B Z B i B A Q Q } @.o. .B Z m i 9 # 0 Z Q @.$.o.@.O.Q A Q Q Q Q Z Z Z Q ~ Q Q Q Q Q o.o.@.O.o.Q ) } Z t # # # X . o # 7 # ",
"} S t 0 Z t V B Z Q Q Q Q  .) t Z B Z 7 # Z Q @.$.o.@.O.Q S U R Q Q Q Z Z Z Q / Q Q / ~ Q Q } @.o.@.@.o. .m 9 # # # . o O 9 9 t ",
" .Z B B i B Z t Z D Q Q Q } ) B y B i 9 # Z @.i.@.O.@.@.) Q Q Q Q Q Q Z Z Z Q Q Q ~ Q Q Q D Q Q $.o.$.o. .t 7 # # # . # B t B V ",
"Q t 0 Z m Z t V B Q Q Q Q [ / B Z B Z 9 7 S Q Q Q Q o.O.) Q Q / Q D ~ Z B Z Q R Q D Q Q Q Q Z Q ) $.Z Z B 9 # 7 o . o 9 i Z Z t ",
"B 0 Z B i B Z B i Q Q Q Q } ) t B y B 9 7 U Q Q Q D Q o.Q Q Q Q Q Q Q Z B Z R A Q Q Q Q D Q Q Q o.S Z t 9 # # # . # 0 B Z 0 Z B ",
"t Z B i B 0 Z V B D Q D Q / Q t 0 B i t 9 Z Q Q R U Q } T Z R D R Q Q Z t Z U R D U D Q Q R Q X./ t t 9 # # # . 9 t Z B i Z Z B ",
"B y B Z 0 0 B t t U Q U S U B B t B m 9 7 R Q Q Z S ) } Q Q Q Z Q Q Q Z B Z S U R D U R T Q D Q B t 0 # # # # 9 Z Z Z Z B Q D Z ",
"Z B Z 0 e # Z Z 0 S U S U Q Q t m t t 9 7 Z Q / R Q  .) Q Q Q Q Q Q Q Z 0 Z U Q A R Q Z Q S U Z t m 9 # # O 9 R T Q Q D Q Q Q Z ",
"Z t 0 e 7 # 0 B t Z Z U Z ) ~ t t 0 t 9 & S Q Q Q Q  .@.Q Q Z Z ~ Q Z e B B Q Z Q R T S Q U B 0 B t # # # # Q Q Q Q Q Q Q Q Q Z ",
"B 0 9 # # # 0 t 9 B B Z J Q Z t 9 t 9 # # T Q ~ Q Q ) } Q Q B Q Q Q Q Z 0 t U R D U S U R t 0 t 0 9 # . # S Q Q Q Q Q Q ) Q Q Q ",
"m 8 # o # # 9 B t t B B Z t t e 9 t 9 & # S Q Q / Q )  .R Q Q Q Q Q Q t e Z S T R Z U Z Z B t m t 7 # o 7 Q Q / ~ Q Q Q ` Q Q Q ",
"7 # . o O # # t 0 t B s B B B 9 e 9 e # # Z Q Q Q Q )  .Q Q Q D Q Q Z 9 e Z B e Z U Z Z B 0 t B t 1 . o t Q Q Q Q Q ^ Q o.Q Q Q ",
"# o # o # # # 0 B 9 B Z t J t e 9 t 7 o # B / Q ~ Q ) ) R S U Q Q ~ Q Z m Z t R Z B U B 7 e 0 t 9 # # # Z ~ Q Q Q Q ~ Q o.| Q Q ",
"# # Z Z Z 9 # 9 e t t t B B t 9 t 9 e # # R Q Q Q Q ) Q Q Q Q Q Q Z Z t t B Z Z U B t 1 # e m t 0 # . 9 Q Q / Q ~ Q Q Q / o./ Q ",
"# Q Q Q Z t 9 # 7 9 9 e 7 e t e 9 t 9 . 7 Z Z Q Q Q Q Q Q A Q Q B A B Z 0 e t B 0 e 7 t 9 t t B 7 o o Z Q Q Q Q Q / Q Q Q } [ Q ",
"Q R Z U S Z t 7 # e 7 9 e 9 9 t 9 7 # o # Z e Q Q Q D Z Z R Q Q Q Z Q e 9 t 0 t 9 9 e 0 e m t 0 # # . Q Q Q Q Q Q Q Q Q Q / o. .",
"Q Q Q Q Q Q B 9 # # e 9 7 e 7 9 # # o . # B t D Z Z Z B Q Q Q Q Q Z Q Z Z B t m t t t m t t 9 9 # o # Q Q Q ) Q Q D ~ Q Q Q o.@.",
"Q Q Q Q Q D t t # # 9 8 9 9 # # . # o . # 9 e e t Z Q Q Q Z Q )  .B R Q R 0 B t B 0 B t 0 B e 7 # . # R D Q Q Q Q Q / Q Q ~  .@.",
"/ ~ Q Q Q Q Z B 0 # 7 9 8 # o # # # . o # 7 Z 9 Z S Q U Q Q Q o.) B Z Q Q Z t 0 Z t 0 B t 0 9 # # o 9 Q Q Q Q Q Q Q Q ~ Q Q Q @.",
"Q Q D U D U S t B 9 # # # # # # # # . o 7 9 Z Z R Q Q Q Q ~ ) o.U B Q Q Q Q Z t 0 B t 0 B t 9 # # . 9 Q Q Q Q Q ) Q Q D T Q Q @.",
"Q Q S Q R D Z Z i 9 # . o . o O # # o . 7 Z U Q Q / Q Q / Q  .} Z U Q Q Q D t e m t m t 0 9 # # . # t Q Z Q Q Q Q D Q Q Z ~ Q } ",
"Q D T Q Q Z B Z B 0 o . o . o . o . o . m Z Q Q Q Q Q ~ Q / o.Q Q Q / Q Q Z B 0 t 9 8 1 # # # # . o t Q Q Q Q Q Q Q / Q Z Q Q ) ",
"Q ) } Q Z Z t Z t 0 # # . # . o . # . # Z Z ~ Q Q ~ Q Q D } ) Q Z Q Q Q Q Z B t B e B 9 7 # # # o . Z Q Q Q ) Q Q ~ Q Z B Z Q Q ",
"@.o.) U Z B Z Z B t # o . o . # o o # 0 B Q Q / Q Q / Q ) o./ Q Q Q ~ Q S i m Z Z A Q Q R T B 9 . # Z Q S Z Q Q Q Q D B i Z Q Q ",
" .Q U V B y B y Z B 7 # . o 7 9 7 t 0 B Z Q Q Q Q Q D Q } } Q Z Q Q Q Q Z B i Z R Q Q Q Q Q Q Z 9 7 B Q Q Q Q Q Q D t Z m B Q Q ",
"Z B Z t Z B Z B i m 0 o o 7 9 t 9 t 9 t Q Q Q Q Q D Q Q o./ Q Q ~ Q / D B i m Z Q Q Q Q Q Q Q Z 7 1 Z Q Q Q Q Q D Z Z t Z Z Z Z "
};
