/* XPM */
static char *result[] = {
/* columns rows colors chars-per-pixel */
"64 36 161 2 ",
"   c black",
".  c #0A0501",
"X  c #0B0803",
"o  c #0D0A07",
"O  c #140602",
"+  c #140B02",
"@  c #171006",
"#  c #19120B",
"$  c #19140D",
"%  c #111111",
"&  c #22180A",
"*  c #331605",
"=  c #251F14",
"-  c #2D200D",
";  c #222211",
":  c #32291B",
">  c #000022",
",  c #001122",
"<  c #002233",
"1  c #222222",
"2  c #3E3322",
"3  c #222233",
"4  c gray20",
"5  c #472707",
"6  c #44290D",
"7  c #442F14",
"8  c #7A280D",
"9  c #443333",
"0  c #7A440D",
"q  c #665128",
"w  c #645136",
"e  c #6D583D",
"r  c #705133",
"t  c #705C3D",
"y  c #002244",
"u  c #002255",
"i  c #003355",
"p  c #003366",
"a  c #003377",
"s  c #004466",
"d  c #115577",
"f  c #444444",
"g  c #4A4641",
"h  c #4C4843",
"j  c #4C4844",
"k  c #4C4946",
"l  c #544F48",
"z  c #5B554A",
"x  c #555555",
"c  c #5C5956",
"v  c #645B4D",
"b  c #665B4F",
"n  c #665C4E",
"m  c #635E57",
"M  c #6B604F",
"N  c #696358",
"B  c #746652",
"V  c #7B6B53",
"C  c #706759",
"Z  c #776C5B",
"A  c #7E705C",
"S  c gray40",
"D  c #6C6966",
"F  c #7D7466",
"G  c #777777",
"H  c #8E2F0F",
"J  c #843A0E",
"K  c #843217",
"L  c #993311",
"P  c #84490E",
"I  c #8E4F0F",
"U  c #994411",
"Y  c #8D5217",
"T  c #8E5F1F",
"R  c #995511",
"E  c #9E5F1F",
"W  c #AA5511",
"Q  c #BB5511",
"!  c #AA6611",
"~  c #BB6611",
"^  c #995522",
"/  c #965F29",
"(  c #996622",
")  c #93672C",
"_  c #9E6F2F",
"`  c #816239",
"'  c #986C31",
"]  c #AA6622",
"[  c #BB6622",
"{  c #BB7722",
"}  c #AA6633",
"|  c #A37434",
" . c #AA7733",
".. c #BB7733",
"X. c #847051",
"o. c #8D7755",
"O. c #8C795E",
"+. c #937D5B",
"@. c #927E5F",
"#. c #AD6940",
"$. c #AA7744",
"%. c #827766",
"&. c #887A66",
"*. c #857769",
"=. c #88776B",
"-. c #8C7C6C",
";. c #BB8833",
":. c #9B825C",
">. c #BB8844",
",. c #A28458",
"<. c #A3885F",
"1. c #AE8E5F",
"2. c #BB8855",
"3. c #8D8271",
"4. c #A08761",
"5. c #A68B62",
"6. c #A78E69",
"7. c #BB8866",
"8. c #B39364",
"9. c #BB9966",
"0. c #B1967A",
"q. c #CC8844",
"w. c #CC9955",
"e. c #CC9966",
"r. c #CCAA66",
"t. c #CCAA77",
"y. c #003388",
"u. c #114499",
"i. c #005599",
"p. c #115599",
"a. c #006699",
"s. c #116699",
"d. c #336688",
"f. c #337799",
"g. c #2266AA",
"h. c #2277AA",
"j. c #3377AA",
"k. c #5599DD",
"l. c #55AADD",
"z. c #66AACC",
"x. c #77BBEE",
"c. c #888888",
"v. c gray60",
"b. c #BBA084",
"n. c #AAAAAA",
"m. c #BBBBBB",
"M. c #CCAA88",
"N. c #DDBB88",
"B. c #DFCFB7",
"V. c #AADDEE",
"C. c #BBDDFF",
"Z. c #99EEFF",
"A. c #BBEEFF",
"S. c #DDDDDD",
"D. c #E8DBC8",
"F. c #CCFFFF",
"G. c #DDFFFF",
"H. c #EEEEEE",
"J. c #EEFFFF",
"K. c #F9F6F1",
"L. c #FFFFFFFF",
/* pixels */
"L.L.L.L.L.L.L.L.L.L.L.L.L.L.L.L.L.L.L.L.L.L.L.L.L.L.L.L.L.L.L.L.L.L.L.L.L.L.L.L.L.L.L.L.L.L.L.L.L.L.L.L.L.L.L.L.L.L.L.L.L.L.L.L.",
"L.L.L.L.L.L.L.L.L.L.L.L.L.L.L.L.L.L.                      L.L.L.L.L.L.L.L.L.L.L.L.L.L.L.L.L.L.L.L.L.L.L.L.L.L.L.L.L.L.L.L.L.L.L.",
"L.L.L.L.L.L.L.L.L.L.L.L.L.L.L.      S x S x x x *.6.A x S       L.L.L.L.L.L.L.L.L.L.L.L.L.L.L.L.L.L.L.L.L.L.L.L.L.L.L.L.L.L.L.L.",
"L.L.L.L.L.L.L.L.L.L.L.L.L.    S S S S S S S S -.0.=.x S x j ` f     L.L.L.L.L.L.L.L.L.L.L.L.L.L.L.L.L.L.L.L.L.L.L.L.L.L.L.L.L.L.",
"L.L.L.L.L.L.L.L.L.L.L.L.  G S S c.S S G S G 3.8.F x x x S v :.x f f     L.L.L.L.L.L.L.L.L.L.L.L.L.L.L.L.L.L.L.L.L.L.L.L.L.L.L.L.",
"L.L.L.L.L.L.L.L.L.L.    S G G c.S x G S G &.9.F S x x S x 8.l x x x f g   L.L.L.L.L.L.L.L.L.L.L.L.L.L.L.L.L.L.L.L.L.L.L.L.L.L.L.",
"L.L.L.L.L.L.L.L.L.  S S c.S G S S S G S %.9.%.S x S x S N 9.f x x h e / Y   L.L.L.L.L.L.L.L.L.L.L.L.L.L.L.L.L.L.L.L.L.L.L.L.L.L.",
"L.L.L.L.L.L.L.L.  S S G c.S G G S x S m 9.@.S f x x x S 9.O.x f m <.| n f   L.L.L.L.L.L.L.L.L.L.L.L.L.L.L.L.L.L.L.L.L.L.L.L.L.L.",
"L.L.L.L.L.L.L.L.  S S G S S G G G S x 9.5.D f S x S S k 9.C f z 8.O.x f f f   L.L.L.L.L.L.L.L.L.L.L.L.L.L.L.L.L.L.L.L.L.L.L.L.L.",
"L.L.L.L.L.L.L.  S x x f S f x S x S M 9.Z f x S f f x M 9.c M 8.M f x f x f   L.L.L.L.L.L.L.L.L.L.L.L.L.L.L.L.L.L.L.L.L.L.L.L.L.",
"L.L.L.L.L.L.L.  x x b.M.b S f x x D 9.4.x x S S B 9.9.9.9.8.8.v x x f x f f 4   L.L.L.L.L.L.L.L.L.L.L.L.L.L.L.L.L.L.L.L.L.L.L.L.",
"L.L.L.L.L.L.L.  f M.M.M.M.t.4.+.o.A 9.z V 9.9.9.9.9.9.9.9.9.9.8.f x f x f f 4   L.L.L.L.L.L.L.L.L.L.L.L.L.L.L.L.L.L.L.L.L.L.L.L.",
"L.L.L.L.L.L.  S S M.M.M.t.9.9.9.9.9.9.9.9.9.9.9.9.9.9.9.9.9.9.9.o.f f f f f f   L.L.L.L.L.L.L.L.L.L.L.L.L.L.L.L.L.L.L.L.L.L.L.L.",
"L.L.L.L.L.L.  S f M.M.t.9.9.9.9.9.9.9.9.9.9.9.9.9.9.9.9.9.9.9.9.X.4 x f f f f f   L.L.L.L.L.L.L.L.L.L.L.L.L.L.L.L.L.L.L.L.L.L.L.",
"L.L.L.L.L.L.  S f M.9.9.9.9.9.9.9.9.9.9.9.9.9.9.9.9.9.9.9.9.9.9.2.f f f f f f f   L.L.L.L.L.L.L.L.L.L.L.L.L.L.L.L.L.L.L.L.L.L.L.",
"L.L.L.L.L.L.  x x 9.9.9.9.9.9.9.9.9.9.9.9.9.9.9.9.9.9.9.9.9.9.9.2.f x f f 4 4 4   L.L.L.L.L.L.L.L.L.L.L.L.L.L.L.L.L.L.L.L.L.L.L.",
"L.L.L.L.L.L.  % 9.9.9.9.9.9.9.9.9.9.9.9.9.9.9.9.9.9.9.9.9.9.9.9.2. .4 4 4 f f f   L.L.L.L.L.L.L.L.L.L.L.L.L.L.L.L.L.L.L.L.L.L.L.",
"L.L.L.L.L.L.  4 =     o t 9.9.9.9.9.9.9.9.9.9.9.,.:             $  . .4 f f 4 4   L.L.L.L.L.L.L.L.L.L.L.L.L.L.L.L.L.L.L.L.L.L.L.",
"L.L.L.L.L.L.    >.          w 9.9.9.9.9.9.9.1.o           o   2 1. . .] 4 f 4 f   L.L.L.L.L.L.L.L.L.L.L.L.L.L.L.L.L.L.L.L.L.L.L.",
"L.L.L.L.L.L.   .] T E 6       # 9.9.9.9.9.r       - _  . . .$.2.9.9. . .4 f f f   L.L.L.L.L.L.L.L.L.L.L.L.L.L.L.L.L.L.L.L.L.L.L.",
"L.L.L.L.L.L.  } R R R R R ] 7    .2.9.>. .    )  .( R R R (  . . .$. . .4 4 4       L.L.L.L.L.L.L.L.L.L.L.L.L.L.L.L.L.L.L.L.L.L.",
"L.L.L.L.L.  t.  P +       * J R ]  . . . .( U L O             5 R ]  .( R     9.9.9.  L.L.L.L.L.L.L.L.L.L.L.L.L.L.L.L.L.L.L.L.L.",
"L.L.L.L.L.  t.  . 3 ; L.c.    H U R  . .R U 8 1 L.x x x   A.%     I R R ]    . .R 9.9.  L.L.L.L.L.L.L.L.L.L.L.L.L.L.L.L.L.L.L.L.",
"L.L.L.L.L.  9.    A.1 m.  4   O U R  . .R K     c.m.  x   F.A.V.  . R ]  .9.    L ] 9.    L.L.L.L.L.L.L.L.L.L.L.L.L.L.L.L.L.L.L.",
"L.L.L.L.L.  9.}   J.  S   x   A.U  . . .] #.A.  S     v.  L.J.F.  0  . . .9.  L   9.9.  C.  L.L.L.L.L.L.L.L.L.L.L.L.L.L.L.L.L.L.",
"L.L.L.L.L.  9.7.  L.  S n.n.% L. . . . . .] J.H.; S v.c.4 L.L.H.@  . . . .9.  L ] 9.2.  G.  L.L.L.L.L.L.L.L.L.L.L.L.L.L.L.L.L.L.",
"L.L.L.L.L.L.  9.  B.L.&   4 L.K. .9.2.9.2. .D.L.H.; 9   H.L.X    . . .}  .  9.9.9.7.  G.G.C.  L.L.L.L.L.L.L.L.L.L.L.L.L.L.L.L.L.",
"L.L.L.L.L.L.  9.9.  9.q       >.9.9.9.9.9.9.2.'                      .R ] 9.9.2.^ R   C.G.C.    L.L.L.L.L.L.L.L.L.L.L.L.L.L.L.L.",
"L.L.            9.  9.9.9.9.9.9.9.9.9.9.9.9.9.9.9.>. . .  N.N.N.w.{   R R R R U L   k.C.G.C.  y.  L.L.L.L.L.L.L.L.L.L.L.L.L.L.L.",
"L.  N.N.N.N.t.      9.9.9.9.9.9.9.9.9.9.9.9.9.9.9.9.9.  N.N.N.N.N...{     L L     i.k.C.C.x.  a u.  L.L.L.L.L.L.L.L.L.L.L.L.L.L.",
"  N.N.N.N.N...N.    9.9.9.9.9.9.9.9.9.9.9.9.9.9.9.9.  N.N.N.N.N.N.N.{ Q       C.k.i.  C.x.x.  a p.p.                      L.L.L.",
"  N.N.N.N.N.....  L.  9.2.2.9.9.9.9.9.9.9.9.9.9.9.2.  N.N.N.N.N.N.N.{ Q Q     L.S.x.x.  x.x.  a s.g.p.      l.l.l.a.a.s L.  L.L.",
"  N.N.N.N.r...W          . . .2.9.9.    2.2.>. . . .  N.N.N.N.N.N.N.w.{ {   x   k.S.L.C.  k.  i h.j.g.h.  a.  s s s s s < Z.  L.",
"  N.N.N.N.>...W   x % x.     . . . . . . . . . .R R   N.N.N.N.N.N.q.;.! ~   x x     k.L.k.  > y f.z.p.p.j.s s   < < < s s Z.  L.",
"  N.t.t.....W W   4 % x.x.x.    R R R R R R R R R     N.N.e.>.;.{ [ [ Q U   4 4 x x 4 k.S.  y   d.d y p s   s   < < s s s Z.  L.",
"L.  ....{ W W   4 4 4 % x.x.  x.                  S.%   9.q.{ ! Q Q Q         4 4 4 4 4       L.    u , ,   s   < < s s s Z.  L."
};
