/* XPM */
static char *_9954406e2364474ad89cddcbc1bbc35zB8lWI8TRbwv1Tnh[] = {
/* columns rows colors chars-per-pixel */
"48 64 159 2 ",
"   c black",
".  c #0A0501",
"X  c #0B0803",
"o  c #0D0A07",
"O  c #140602",
"+  c #140B02",
"@  c #171006",
"#  c #19120B",
"$  c #19140D",
"%  c #111111",
"&  c #22180A",
"*  c #331605",
"=  c #251F14",
"-  c #2D200D",
";  c #222211",
":  c #32291B",
">  c #000022",
",  c #002233",
"<  c #222222",
"1  c #3E3322",
"2  c #222233",
"3  c gray20",
"4  c #472707",
"5  c #44290D",
"6  c #442F14",
"7  c #7A280D",
"8  c #443333",
"9  c #7A440D",
"0  c #665128",
"q  c #645136",
"w  c #6D583D",
"e  c #705133",
"r  c #705C3D",
"t  c #002244",
"y  c #002255",
"u  c #003355",
"i  c #002266",
"p  c #003366",
"a  c #003377",
"s  c #004466",
"d  c #114466",
"f  c #004477",
"g  c #115577",
"h  c #444444",
"j  c #4A4641",
"k  c #4C4843",
"l  c #4C4946",
"z  c #544F48",
"x  c #5B554A",
"c  c #555555",
"v  c #5C5956",
"b  c #645B4D",
"n  c #665B4F",
"m  c #635E57",
"M  c #6B604F",
"N  c #696358",
"B  c #746652",
"V  c #7B6B53",
"C  c #706759",
"Z  c #776C5B",
"A  c #7E705C",
"S  c gray40",
"D  c #6C6966",
"F  c #7D7466",
"G  c #777777",
"H  c #8E2F0F",
"J  c #843A0E",
"K  c #843217",
"L  c #993311",
"P  c #84490E",
"I  c #8E4F0F",
"U  c #994411",
"Y  c #8D5217",
"T  c #8E5F1F",
"R  c #995511",
"E  c #9E5F1F",
"W  c #AA5511",
"Q  c #AA6611",
"!  c #995522",
"~  c #996622",
"^  c #93672C",
"/  c #9E6F2F",
"(  c #816239",
")  c #986C31",
"_  c #AA6622",
"`  c #BB7722",
"'  c #AA6633",
"]  c #A37434",
"[  c #AA7733",
"{  c #BB7733",
"}  c #847051",
"|  c #8D7755",
" . c #8C795E",
".. c #937D5B",
"X. c #927E5F",
"o. c #AD6940",
"O. c #AA7744",
"+. c #827766",
"@. c #887A66",
"#. c #857769",
"$. c #88776B",
"%. c #8C7C6C",
"&. c #BB8833",
"*. c #9B825C",
"=. c #BB8844",
"-. c #A28458",
";. c #A3885F",
":. c #AE8E5F",
">. c #BB8855",
",. c #8D8271",
"<. c #A08761",
"1. c #A68B62",
"2. c #A78E69",
"3. c #BB8866",
"4. c #B39364",
"5. c #BB9966",
"6. c #B1967A",
"7. c #CC8844",
"8. c #CC9955",
"9. c #CC9966",
"0. c #CCAA66",
"q. c #CCAA77",
"w. c #DDAA77",
"e. c #005599",
"r. c #115599",
"t. c #116688",
"y. c #006699",
"u. c #226688",
"i. c #226699",
"p. c #227799",
"a. c #337799",
"s. c #3377AA",
"d. c #0077CC",
"f. c #5599AA",
"g. c #5599DD",
"h. c #55AADD",
"j. c #66AACC",
"k. c #77BBDD",
"l. c #77BBEE",
"z. c #888888",
"x. c gray60",
"c. c #BBA084",
"v. c #AAAAAA",
"b. c #BBBBBB",
"n. c #CCAA88",
"m. c #DDBB88",
"M. c #DFCFB7",
"N. c #AADDEE",
"B. c #BBDDFF",
"V. c #99EEFF",
"C. c #BBEEFF",
"Z. c #DDDDDD",
"A. c #E8DBC8",
"S. c #CCFFFF",
"D. c #DDFFFF",
"F. c #EEEEEE",
"G. c #EEFFFF",
"H. c #F9F6F1",
"J. c #FFFFFFFF",
/* pixels */
"J.J.J.J.J.J.J.J.J.J.J.J.J.J.J.J.J.J.J.J.J.J.J.J.J.J.J.J.J.J.J.J.J.J.J.J.J.J.J.J.J.J.J.J.J.J.J.J.",
"J.J.J.J.J.J.J.J.J.J.J.J.J.J.J.J.J.J.J.J.J.J.J.J.J.J.J.J.J.J.J.J.J.J.J.J.J.J.J.J.J.J.J.J.J.J.J.J.",
"J.J.J.J.J.J.J.J.J.J.J.J.J.J.J.J.J.J.J.J.J.J.J.J.J.J.J.J.J.J.J.J.J.J.J.J.J.J.J.J.J.J.J.J.J.J.J.J.",
"J.J.J.J.J.J.J.J.J.J.J.J.J.J.J.J.J.J.J.J.                      J.J.J.J.J.J.J.J.J.J.J.J.J.J.J.J.J.",
"J.J.J.J.J.J.J.J.J.J.J.J.J.J.J.J.J.      S c S c c c #.2.A c S       J.J.J.J.J.J.J.J.J.J.J.J.J.J.",
"J.J.J.J.J.J.J.J.J.J.J.J.J.J.J.    S S S S S S S S %.6.$.c S c k ( h     J.J.J.J.J.J.J.J.J.J.J.J.",
"J.J.J.J.J.J.J.J.J.J.J.J.J.J.  G S S z.S S G S G ,.4.F c c c S n *.c h h     J.J.J.J.J.J.J.J.J.J.",
"J.J.J.J.J.J.J.J.J.J.J.J.    S G G z.S c G S G @.5.F S c c S c 4.z c c c h j   J.J.J.J.J.J.J.J.J.",
"J.J.J.J.J.J.J.J.J.J.J.  S S z.S G S S S G S +.5.+.S c S c S N 5.h c c k w ^ Y   J.J.J.J.J.J.J.J.",
"J.J.J.J.J.J.J.J.J.J.  S S G z.S G G S c S m 5.X.S h c c c S 5. .c h m ;.] n h   J.J.J.J.J.J.J.J.",
"J.J.J.J.J.J.J.J.J.J.  S S G S S G G G S c 5.1.D h S c S S l 5.C h x 4. .c h h h   J.J.J.J.J.J.J.",
"J.J.J.J.J.J.J.J.J.  S c c h S h c S c S M 5.Z h c S h h c M 5.v M 4.M h c h c h   J.J.J.J.J.J.J.",
"J.J.J.J.J.J.J.J.J.  c c c.n.n S h c c D 5.<.c c S S B 5.5.5.5.4.4.n c c h c h h 3   J.J.J.J.J.J.",
"J.J.J.J.J.J.J.J.J.  h n.n.n.n.q.<...| A 5.x V 5.5.5.5.5.5.5.5.5.5.4.h c h c h h 3   J.J.J.J.J.J.",
"J.J.J.J.J.J.J.J.  S S n.n.n.q.5.5.5.5.5.5.5.5.5.5.5.5.5.5.5.5.5.5.5.| h h h h h h   J.J.J.J.J.J.",
"J.J.J.J.J.J.J.J.  S h n.n.q.5.5.5.5.5.5.5.5.5.5.5.5.5.5.5.5.5.5.5.5.} 3 c h h h h h   J.J.J.J.J.",
"J.J.J.J.J.J.J.J.  S h n.5.5.5.5.5.5.5.5.5.5.5.5.5.5.5.5.5.5.5.5.5.5.>.h h h h h h h   J.J.J.J.J.",
"J.J.J.J.J.J.J.J.  c c 5.5.5.5.5.5.5.5.5.5.5.5.5.5.5.5.5.5.5.5.5.5.5.>.h c h h 3 3 3   J.J.J.J.J.",
"J.J.J.J.J.J.J.J.  % 5.5.5.5.5.5.5.5.5.5.5.5.5.5.5.5.5.5.5.5.5.5.5.5.>.[ 3 3 3 h h h   J.J.J.J.J.",
"J.J.J.J.J.J.J.J.  3 =     o r 5.5.5.5.5.5.5.5.5.5.5.-.:             $ [ [ 3 h h 3 3   J.J.J.J.J.",
"J.J.J.J.J.J.J.J.    =.          q 5.5.5.5.5.5.5.:.o           o   1 :.[ [ _ 3 h 3 h   J.J.J.J.J.",
"J.J.J.J.J.J.J.J.  [ _ T E 5       # 5.5.5.5.5.e       - / [ [ [ O.>.5.5.[ [ 3 h h h   J.J.J.J.J.",
"J.J.J.J.J.J.J.J.  ' R R R R R _ 6   [ >.5.=.[     ^ [ ~ R R R ~ [ [ [ O.[ [ 3 3 3       J.J.J.J.",
"J.J.J.J.J.J.J.  q.  P +       * J R _ [ [ [ [ ~ U L O             4 R _ [ ~ R     5.5.5.  J.J.J.",
"J.J.J.J.J.J.J.  q.  . 2 ; J.z.    H U R [ [ R U 7 < J.c c c   C.%     I R R _   [ [ R 5.5.  J.J.",
"J.J.J.J.J.J.J.  5.    C.< b.  3   O U R [ [ R K     z.b.  c   S.C.N.  . R _ [ 5.    L _ 5.  J.J.",
"J.J.J.J.J.J.J.  5.'   G.  S   c   C.U [ [ [ _ o.C.  S     x.  J.G.S.  9 [ [ [ 5.  L   5.5.  J.J.",
"J.J.J.J.J.J.J.  5.3.  J.  S v.v.% J.[ [ [ [ [ _ G.F.; S x.z.3 J.J.F.@ [ [ [ [ 5.  L _ 5.>.  J.J.",
"J.J.J.J.J.J.J.J.  5.  M.J.&   3 J.H.[ 5.>.5.>.[ A.J.F.; 8   F.J.X   [ [ [ ' [   5.5.5.3.  J.J.J.",
"J.J.J.J.J.J.J.J.  5.5.  5.0       =.5.5.5.5.5.5.>.)             / [ [ [ [ R _ 5.5.>.! R   J.J.J.",
"J.J.J.J.J.J.J.J.J.  5.  5.5.5.5.5.5.5.5.5.5.5.5.5.5.5.=.[ [ [ >.[ [ [ [ R R R R R U L   J.J.J.J.",
"J.J.J.J.J.J.J.J.J.J.    5.5.5.5.5.5.5.5.5.5.5.5.5.5.5.5.5.5.5.[ [ [ [ R R R   L L     J.J.J.J.J.",
"J.J.J.J.J.J.J.J.J.J.J.  5.5.5.5.5.5.5.5.5.5.5.5.5.5.5.5.5.5.[ [ [ R R R     J.    J.J.J.J.J.J.J.",
"J.J.J.J.J.J.J.J.J.J.J.J.  5.>.>.5.5.5.5.5.5.5.5.5.5.5.>.O.[ [ [ R R R   J.J.J.J.J.J.J.J.J.J.J.J.",
"J.J.J.J.J.J.J.J.J.J.J.J.J.  [ [ [ >.5.5.    >.>.=.[ [ [ [ R R R R     J.J.J.J.J.J.J.J.J.J.J.J.J.",
"J.J.J.J.J.J.J.J.J.J.J.J.J.J.    [ [ [ [ [ [ [ [ [ [ R R R R R     g.  J.J.J.J.J.J.J.J.J.J.J.J.J.",
"J.J.J.J.J.J.J.J.J.J.J.J.J.J.J.J.    R R R R R R R R R                 J.J.J.J.J.J.J.J.J.J.J.J.J.",
"J.J.J.J.J.J.J.J.J.J.J.J.J.J.J.J.J.J.                  3 J.Z.B.J.J.J.Z.    J.J.J.J.J.J.J.J.J.J.J.",
"J.J.        J.J.J.J.J.J.J.J.J.J.J.    g.l.l.l.J.J.Z.J.J.l.g.l.l.l.l.g.J.Z.    J.J.J.J.J.J.J.J.J.",
"J.  m.q.9.8.    J.J.J.J.J.        Z.l.g.B.B.l.l.l.Z.l.l.l.l.l.l.B.B.l.l.g.l.Z.  J.J.J.J.J.J.J.J.",
"  m.m.m.0.8.8.7.          J.Z.J.B.B.g.p B.B.B.B.B.Z.B.B.B.l.g.g.g.l.B.B.l.l.l.  J.J.J.J.J.J.J.J.",
"  m.m.m.8.8.8.7.  S S S 3 B.B.B.B.l.g.p B.B.D.D.D.J.D.B.B.l.l.g.    g.B.B.B.3 3   J.J.J.J.J.J.J.",
"  w.m.q.8.8.7.{   3 3 3 3 3 B.l.l.l.  g.B.B.B.B.B.J.B.B.B.B.l.g.  J.  l.l.  c 3   J.J.J.J.J.J.J.",
"  ` m.w.9.7.=.`             l.l.      p e.d.d.d.d.J.d.d.d.e.e.p e.  J.      c 3 3   J.J.J.J.J.J.",
"  ` 7.9.{ { ` W   J.J.J.J.J.    J.  g.g.g.l.l.l.l.Z.l.l.l.g.g.g.g.  J.J.J.  3 c 3   J.J.J.J.J.J.",
"J.  ` Q W W W   J.J.J.J.J.J.J.J.J.  l.B.B.B.B.B.B.J.B.B.B.B.B.l.g.  J.J.J.  3 c 3   J.J.J.J.J.J.",
"J.J.          J.J.J.J.J.J.J.J.J.J.  l.B.d.B.D.D.D.J.D.D.D.B.B.e.g.g.  J.  m.          J.J.J.J.J.",
"J.J.J.J.J.J.J.J.J.J.J.J.J.J.J.J.  l.B.B.d.D.D.D.D.J.D.B.B.B.B.p g.g.    0.w.m.8.8.` Q   J.J.J.J.",
"J.J.J.J.J.J.J.J.J.J.J.J.J.J.J.J.  g.B.e.B.D.D.B.B.J.B.B.B.B.B.l.p g.    0.w.m.8.8.` Q   J.J.J.J.",
"J.J.J.J.J.J.J.J.J.J.J.J.J.J.J.J.  g.l.B.B.B.B.B.B.Z.B.B.B.B.l.g.g.l.    0.w.m.8.8.` Q   J.J.J.J.",
"J.J.J.J.J.J.J.J.J.J.J.J.J.J.J.J.J.    l.l.l.l.l.l.Z.l.l.g.g.g.g.    J.  0.w.8.8.&.` W   J.J.J.J.",
"J.J.J.J.J.J.J.J.J.J.J.J.J.J.J.J.J.  t                           u   J.  =.=.=.=.{ W W   J.J.J.J.",
"J.J.J.J.J.J.J.J.J.J.J.J.J.J.J.J.J.  a y t i i i t > > t     p r.u.p.  J.  ` W W W W   J.J.J.J.J.",
"J.J.J.J.J.J.J.J.J.J.J.J.J.J.J.J.  a.s.i.s y             J.  g s.j.t.g   J.          J.J.J.J.J.J.",
"J.J.J.J.J.J.J.J.J.J.J.J.J.J.J.J.  j.k.f.u.  J.J.J.J.J.J.J.J.  d r.p u   J.J.J.J.J.J.J.J.J.J.J.J.",
"J.J.J.J.J.J.J.J.J.J.J.J.J.J.    i.s.u.g   J.J.J.J.J.J.J.J.J.  p r.        J.J.J.J.J.J.J.J.J.J.J.",
"J.J.J.J.J.J.J.J.J.J.J.      r.f p t t   J.J.J.J.J.J.J.J.J.J.J.    y.s ,   J.J.J.J.J.J.J.J.J.J.J.",
"J.J.J.J.J.J.J.J.J.      y.y.  p y t   J.J.J.J.J.J.J.J.J.J.J.J.  y.y.      J.J.J.J.J.J.J.J.J.J.J.",
"J.J.J.J.J.J.J.      y.y.    s       J.J.J.J.J.J.J.J.J.J.J.J.J.      s s ,   J.J.J.J.J.J.J.J.J.J.",
"J.J.J.J.J.J.    y.y.y.s ,   ,   J.J.J.J.J.J.J.J.J.J.J.J.J.J.J.  s y.y.      J.J.J.J.J.J.J.J.J.J.",
"J.J.J.J.J.  y.J.h.s s , ,     J.J.J.J.J.J.J.J.J.J.J.J.J.J.J.J.  y.J.h.y.y.s   J.J.J.J.J.J.J.J.J.",
"J.J.J.J.J.  y.y.y.y.s s     J.J.J.J.J.J.J.J.J.J.J.J.J.J.J.J.J.  h.y.y.y.y.s   J.J.J.J.J.J.J.J.J.",
"J.J.J.J.J.  J.J.J.J.V.V.  J.J.J.J.J.J.J.J.J.J.J.J.J.J.J.J.J.J.  J.J.J.J.J.V.  J.J.J.J.J.J.J.J.J.",
"J.J.J.J.J.J.            J.J.J.J.J.J.J.J.J.J.J.J.J.J.J.J.J.J.J.J.            J.J.J.J.J.J.J.J.J.J."
};
