/* XPM */
static char *result[] = {
/* columns rows colors chars-per-pixel */
"39 64 167 2 ",
"   c black",
".  c #0A0501",
"X  c #0B0803",
"o  c #0D0A07",
"O  c #140602",
"+  c #140B02",
"@  c #171006",
"#  c #19120B",
"$  c #19140D",
"%  c #111111",
"&  c #22180A",
"*  c #331605",
"=  c #251F14",
"-  c #2D200D",
";  c #222211",
":  c #32291B",
">  c #000022",
",  c #001133",
"<  c #002233",
"1  c #222222",
"2  c #3E3322",
"3  c #222233",
"4  c gray20",
"5  c #472707",
"6  c #44290D",
"7  c #442F14",
"8  c #7A280D",
"9  c #443333",
"0  c #7A440D",
"q  c #665128",
"w  c #645136",
"e  c #6D583D",
"r  c #705133",
"t  c #705C3D",
"y  c #002244",
"u  c #002255",
"i  c #003355",
"p  c #002266",
"a  c #003366",
"s  c #003377",
"d  c #004466",
"f  c #004477",
"g  c #005577",
"h  c #444444",
"j  c #4A4641",
"k  c #4C4843",
"l  c #4C4844",
"z  c #4C4946",
"x  c #544F48",
"c  c #5B554A",
"v  c #555555",
"b  c #5C5956",
"n  c #645B4D",
"m  c #665B4F",
"M  c #665C4E",
"N  c #635E57",
"B  c #6B604F",
"V  c #696358",
"C  c #746652",
"Z  c #7B6B53",
"A  c #706759",
"S  c #776C5B",
"D  c #7E705C",
"F  c gray40",
"G  c #6C6966",
"H  c #7D7466",
"J  c #777777",
"K  c #8E2F0F",
"L  c #843A0E",
"P  c #843217",
"I  c #993311",
"U  c #84490E",
"Y  c #8E4F0F",
"T  c #994411",
"R  c #8D5217",
"E  c #8E5F1F",
"W  c #995511",
"Q  c #9E5F1F",
"!  c #AA4411",
"~  c #AA5511",
"^  c #BB5511",
"/  c #AA6611",
"(  c #995522",
")  c #965F29",
"_  c #996622",
"`  c #93672C",
"'  c #9E6F2F",
"]  c #816239",
"[  c #986C31",
"{  c #AA6622",
"}  c #AA7722",
"|  c #BB7722",
" . c #AA6633",
".. c #A37434",
"X. c #AA7733",
"o. c #BB7733",
"O. c #847051",
"+. c #8D7755",
"@. c #8C795E",
"#. c #937D5B",
"$. c #927E5F",
"%. c #AD6940",
"&. c #AA7744",
"*. c #827766",
"=. c #887A66",
"-. c #857769",
";. c #88776B",
":. c #8C7C6C",
">. c #BB8833",
",. c #9B825C",
"<. c #BB8844",
"1. c #A28458",
"2. c #A3885F",
"3. c #AE8E5F",
"4. c #BB8855",
"5. c #8D8271",
"6. c #A08761",
"7. c #A68B62",
"8. c #A78E69",
"9. c #BB8866",
"0. c #B39364",
"q. c #BB9966",
"w. c #B1967A",
"e. c #CC8844",
"r. c #CC9955",
"t. c #CC9966",
"y. c #CCAA77",
"u. c #DDAA77",
"i. c #004488",
"p. c #114488",
"a. c #005599",
"s. c #115599",
"d. c #006688",
"f. c #006699",
"g. c #007799",
"h. c #226699",
"j. c #2277AA",
"k. c #3377AA",
"l. c #0077CC",
"z. c #0088AA",
"x. c #4488BB",
"c. c #5599DD",
"v. c #55AADD",
"b. c #66AACC",
"n. c #77BBEE",
"m. c #888888",
"M. c gray60",
"N. c #BBA084",
"B. c #AAAAAA",
"V. c #BBBBBB",
"C. c #CCAA88",
"Z. c #DDBB88",
"A. c #DDBB99",
"S. c #DDCCAA",
"D. c #DFCFB7",
"F. c #AADDEE",
"G. c #BBDDFF",
"H. c #99EEFF",
"J. c #BBEEFF",
"K. c #DDDDDD",
"L. c #E8DBC8",
"P. c #CCFFFF",
"I. c #DDFFFF",
"U. c #EEEEEE",
"Y. c #EEFFFF",
"T. c #F9F6F1",
"R. c #FFFFFFFF",
/* pixels */
"R.R.R.R.R.R.R.R.R.R.R.R.R.R.R.R.R.R.R.R.R.R.R.R.R.R.R.R.R.R.R.R.R.R.R.R.R.R.R.",
"R.R.R.R.R.R.R.R.R.R.R.R.R.                      R.R.R.R.R.R.R.R.R.R.R.R.R.R.R.",
"R.R.R.R.R.R.R.R.R.R.      F v F v v v -.8.D v F       R.R.R.R.R.R.R.R.R.R.R.R.",
"R.R.R.R.R.R.R.R.    F F F F F F F F :.w.;.v F v l ] h     R.R.R.R.R.R.R.R.R.R.",
"R.R.R.R.R.R.R.  J F F m.F F J F J 5.0.H v v v F n ,.v h h     R.R.R.R.R.R.R.R.",
"R.R.R.R.R.    F J J m.F v J F J =.q.H F v v F v 0.x v v v h j   R.R.R.R.R.R.R.",
"R.R.R.R.  F F m.F J F F F J F *.q.*.F v F v F V q.h v v k e ) R   R.R.R.R.R.R.",
"R.R.R.  F F J m.F J J F v F N q.$.F h v v v F q.@.v h N 2...M h   R.R.R.R.R.R.",
"R.R.R.  F F J F F J J J F v q.7.G h F v F F z q.A h c 0.@.v h h h   R.R.R.R.R.",
"R.R.  F v v h F h v F v F B q.S h v F h h v B q.b B 0.B h v h v h   R.R.R.R.R.",
"R.R.  v v N.C.m F h v v G q.6.v v F F C q.q.q.q.0.0.n v v h v h h 4   R.R.R.R.",
"R.R.  h C.C.C.C.y.6.#.+.D q.c Z q.q.q.q.q.q.q.q.q.q.0.h v h v h h 4   R.R.R.R.",
"R.  F F C.C.C.y.q.q.q.q.q.q.q.q.q.q.q.q.q.q.q.q.q.q.q.+.h h h h h h   R.R.R.R.",
"R.  F h C.C.y.q.q.q.q.q.q.q.q.q.q.q.q.q.q.q.q.q.q.q.q.O.4 v h h h h h   R.R.R.",
"R.  F h C.q.q.q.q.q.q.q.q.q.q.q.q.q.q.q.q.q.q.q.q.q.q.4.h h h h h h h   R.R.R.",
"R.  v v q.q.q.q.q.q.q.q.q.q.q.q.q.q.q.q.q.q.q.q.q.q.q.4.h v h h 4 4 4   R.R.R.",
"R.  % q.q.q.q.q.q.q.q.q.q.q.q.q.q.q.q.q.q.q.q.q.q.q.q.4.X.4 4 4 h h h   R.R.R.",
"R.  4 =     o t q.q.q.q.q.q.q.q.q.q.q.1.:             $ X.X.4 h h 4 4   R.R.R.",
"R.    <.          w q.q.q.q.q.q.q.3.o           o   2 3.X.X.{ 4 h 4 h   R.R.R.",
"R.  X.{ E Q 6       # q.q.q.q.q.r       - ' X.X.X.&.4.q.q.X.X.4 h h h   R.R.R.",
"R.   .W W W W W { 7   X.4.q.<.X.    ` X._ W W W _ X.X.X.&.X.X.4 4 4       R.R.",
"  y.  U +       * L W { X.X.X.X._ T I O             5 W { X._ W     q.q.q.  R.",
"  y.  . 3 ; R.m.    K T W X.X.W T 8 1 R.v v v   J.%     Y W W {   X.X.W q.q.  ",
"  q.    J.1 V.  4   O T W X.X.W P     m.V.  v   P.J.F.  . W { X.q.    I { q.  ",
"  q. .  Y.  F   v   J.T X.X.X.{ %.J.  F     M.  R.Y.P.  0 X.X.X.q.  I   q.q.  ",
"  q.9.  R.  F B.B.% R.X.X.X.X.X.{ Y.U.; F M.m.4 R.R.U.@ X.X.X.X.q.  I { q.4.  ",
"R.  q.  D.R.&   4 R.T.X.q.4.q.4.X.L.R.U.; 9   U.R.X   X.X.X. .X.  q.q.q.9.  R.",
"R.  q.q.  q.q       <.q.q.q.q.q.q.4.[             ' X.X.X.X.W { q.q.4.( W   R.",
"R.R.  q.  q.q.q.q.q.q.q.q.q.q.q.q.q.q.q.<.X.X.X.4.X.X.X.X.W W W W W T I   R.R.",
"R.R.R.    q.q.q.q.q.q.q.q.q.q.q.q.q.q.q.q.q.q.q.X.X.X.X.W W W   I I     R.R.R.",
"R.R.R.R.  q.q.q.q.q.q.q.q.q.q.q.q.q.q.q.q.q.q.X.X.X.W W W     R.    R.R.R.R.R.",
"R.R.R.R.R.  q.4.4.q.q.q.q.q.q.q.q.q.q.q.4.&.X.X.X.W W W   R.R.R.R.R.R.R.R.R.R.",
"R.R.R.R.R.R.  X.X.X.4.q.q.    4.4.<.X.X.X.X.W W W W     n.  R.R.R.R.R.R.R.R.R.",
"R.R.R.R.R.R.R.    X.X.X.X.X.X.X.X.X.X.W W W W W     % 4 n.  R.R.R.R.R.R.R.R.R.",
"R.R.R.R.R.R.R.R.R.    W W W W W W W W W         K.K.n.n.c.  R.R.R.R.R.R.R.R.R.",
"R.R.R.R.R.R.R.R.R.R.R.                  % % K.          c.  R.R.R.R.R.R.R.R.R.",
"R.R.R.R.R.R.R.R.R.R.R.R.R.    n.n.n.R.R.K.K.n.n.n.R.R.K.      R.R.R.R.R.R.R.R.",
"R.R.R.R.        R.R.R.R.  I.G.n.G.G.G.R.G.G.G.n.G.G.G.n.n.R.K.  R.R.R.R.R.R.R.",
"R.R.R.  A.S.A.r.    R.  R.G.c.G.G.G.G.K.G.n.n.n.n.n.G.G.G.n.n.%   R.R.R.R.R.R.",
"R.R.R.  S.S.Z.<.o.o.  R.G.n.a G.I.I.R.I.G.G.n.c.    c.n.n.G.% v 4   R.R.R.R.R.",
"R.R.  S.S.A.Z.o.o.o.!   G.a c.G.G.G.R.G.G.G.n.c.c.a     c.n.% F v 4   R.R.R.R.",
"R.R.  A.A.Z.u.o.o.~ !   n.a a.l.l.l.K.l.l.a.a.a.a c.  R.      4 F v 4   R.R.R.",
"R.R.  Z.Z.y.u.o.o.~   G.n.  c.n.n.n.K.n.n.n.n.c.c.c.n.  R.R.            R.R.R.",
"R.R.R.  Z.o.o.o.}   4 % n.  n.G.G.R.G.G.G.G.n.n.c.c.n.  R.  Z.Z.Z.Z.<.^   R.R.",
"R.R.R.  Z.r.o.    4 v %   n.G.G.G.R.G.G.G.G.n.n.n.a.n.    Z.Z.Z.Z.Z.>.^   R.R.",
"R.R.R.R.      F F v 4     n.G.G.I.R.I.G.G.G.G.n.n.a.c.n.  Z.Z.Z.u.r.>.^   R.R.",
"R.R.R.R.R.R.          R.  n.G.I.I.R.I.I.I.G.G.n.n.c.a n.  t.t.r.e.<.^ ^   R.R.",
"R.R.R.R.R.R.R.R.R.R.R.R.  n.G.G.G.K.G.G.G.n.n.n.c.c.c.n.  <.>.>.| / ^ ^   R.R.",
"R.R.R.R.R.R.R.R.R.R.R.R.R.  n.n.n.n.K.n.n.n.c.c.c.c.n.  R.    ^ ^ ^ /   R.R.R.",
"R.R.R.R.R.R.R.R.R.R.R.R.R.R.                          R.R.R.R.        R.R.R.R.",
"R.R.R.R.R.R.R.R.R.R.R.R.R.R.  d d <     s a y > y   R.R.R.R.R.R.R.R.R.R.R.R.R.",
"R.R.R.R.R.R.R.R.R.R.R.R.R.R.R.  b.g   s.s.i.< i   R.R.R.R.R.R.R.R.R.R.R.R.R.R.",
"R.R.R.R.R.R.R.R.R.R.R.R.R.R.R.R.    k.b.z.g.d.  R.R.R.R.R.R.R.R.R.R.R.R.R.R.R.",
"R.R.R.R.R.R.R.R.R.R.R.R.R.R.R.R.  h.x.j.g d   ,           R.R.R.R.R.R.R.R.R.R.",
"R.R.R.R.R.R.R.R.R.R.R.R.R.R.R.  p p.i.f u   y       < d H.  R.R.R.R.R.R.R.R.R.",
"R.R.R.R.R.R.R.R.R.R.R.R.R.    f.      >   p p   d   < d H.  R.R.R.R.R.R.R.R.R.",
"R.R.R.R.R.R.R.R.R.R.R.R.R.  f.  f.d d       a   d   d d d H.  R.R.R.R.R.R.R.R.",
"R.R.R.R.R.R.R.R.R.R.R.R.  f.f.f.          R.  d   d d d d H.  R.R.R.R.R.R.R.R.",
"R.R.R.R.R.R.R.R.R.        d d f.d < <   R.R.    d d   d d H.  R.R.R.R.R.R.R.R.",
"R.R.R.R.R.R.R.R.  R.R.v.v.    f.d d <   R.R.R.      d d d H.  R.R.R.R.R.R.R.R.",
"R.R.R.R.R.R.R.R.  v.f.f.f.f.f.d d d d   R.R.R.R.R.  f.f.d H.  R.R.R.R.R.R.R.R.",
"R.R.R.R.R.R.R.R.  R.R.R.d d d d d d d   R.R.R.R.R.R.        R.R.R.R.R.R.R.R.R.",
"R.R.R.R.R.R.R.R.R.      R.R.H.H.H.H.H.  R.R.R.R.R.R.R.R.R.R.R.R.R.R.R.R.R.R.R.",
"R.R.R.R.R.R.R.R.R.R.R.R.              R.R.R.R.R.R.R.R.R.R.R.R.R.R.R.R.R.R.R.R."
};
