/* XPM */
static char *result[] = {
/* columns rows colors chars-per-pixel */
"39 64 159 2 ",
"   c black",
".  c #0A0501",
"X  c #0B0803",
"o  c #0D0A07",
"O  c #140602",
"+  c #140B02",
"@  c #171006",
"#  c #19120B",
"$  c #19140D",
"%  c #111111",
"&  c #22180A",
"*  c #331605",
"=  c #251F14",
"-  c #2D200D",
";  c #222211",
":  c #32291B",
">  c #000022",
",  c #002233",
"<  c #222222",
"1  c #3E3322",
"2  c #222233",
"3  c gray20",
"4  c #472707",
"5  c #44290D",
"6  c #442F14",
"7  c #7A280D",
"8  c #443333",
"9  c #7A440D",
"0  c #665128",
"q  c #645136",
"w  c #6D583D",
"e  c #705133",
"r  c #705C3D",
"t  c #002244",
"y  c #002266",
"u  c #003366",
"i  c #003377",
"p  c #004466",
"a  c #005577",
"s  c #444444",
"d  c #4A4641",
"f  c #4C4843",
"g  c #4C4844",
"h  c #4C4946",
"j  c #544F48",
"k  c #5B554A",
"l  c #555555",
"z  c #5C5956",
"x  c #645B4D",
"c  c #665B4F",
"v  c #665C4E",
"b  c #635E57",
"n  c #6B604F",
"m  c #696358",
"M  c #746652",
"N  c #7B6B53",
"B  c #706759",
"V  c #776C5B",
"C  c #7E705C",
"Z  c gray40",
"A  c #6C6966",
"S  c #7D7466",
"D  c #777777",
"F  c #8E2F0F",
"G  c #843A0E",
"H  c #843217",
"J  c #993311",
"K  c #84490E",
"L  c #8E4F0F",
"P  c #994411",
"I  c #8D5217",
"U  c #8E5F1F",
"Y  c #995511",
"T  c #9E5F1F",
"R  c #AA5511",
"E  c #AA6611",
"W  c #995522",
"Q  c #965F29",
"!  c #996622",
"~  c #93672C",
"^  c #9E6F2F",
"/  c #816239",
"(  c #986C31",
")  c #AA6622",
"_  c #BB6622",
"`  c #BB7722",
"'  c #AA6633",
"]  c #A37434",
"[  c #AA7733",
"{  c #BB7733",
"}  c #847051",
"|  c #8D7755",
" . c #8C795E",
".. c #937D5B",
"X. c #927E5F",
"o. c #AD6940",
"O. c #AA7744",
"+. c #827766",
"@. c #887A66",
"#. c #857769",
"$. c #88776B",
"%. c #8C7C6C",
"&. c #BB8833",
"*. c #9B825C",
"=. c #BB8844",
"-. c #A28458",
";. c #A3885F",
":. c #AE8E5F",
">. c #BB8855",
",. c #8D8271",
"<. c #A08761",
"1. c #A68B62",
"2. c #A78E69",
"3. c #BB8866",
"4. c #B39364",
"5. c #BB9966",
"6. c #B1967A",
"7. c #CC9966",
"8. c #CCAA66",
"9. c #CCAA77",
"0. c #DDAA77",
"q. c #004488",
"w. c #114488",
"e. c #005588",
"r. c #005599",
"t. c #006688",
"y. c #006699",
"u. c #2266AA",
"i. c #0077CC",
"p. c #008899",
"a. c #0088AA",
"s. c #0088BB",
"d. c #4488BB",
"f. c #5599DD",
"g. c #55AACC",
"h. c #55AADD",
"j. c #66AACC",
"k. c #77BBEE",
"l. c #888888",
"z. c gray60",
"x. c #BBA084",
"c. c #AAAAAA",
"v. c #BBBBBB",
"b. c #CCAA88",
"n. c #DDBB88",
"m. c #DFCFB7",
"M. c #88BBDD",
"N. c #AADDEE",
"B. c #BBDDFF",
"V. c #99EEFF",
"C. c #BBEEFF",
"Z. c #DDDDDD",
"A. c #E8DBC8",
"S. c #CCFFFF",
"D. c #DDFFFF",
"F. c #EEEEEE",
"G. c #EEFFFF",
"H. c #F9F6F1",
"J. c #FFFFFFFF",
/* pixels */
"J.J.J.J.J.J.J.J.J.J.J.J.J.                      J.J.J.J.J.J.J.J.J.J.J.J.J.J.J.",
"J.J.J.J.J.J.J.J.J.J.      Z l Z l l l #.2.C l Z       J.J.J.J.J.J.J.J.J.J.J.J.",
"J.J.J.J.J.J.J.J.    Z Z Z Z Z Z Z Z %.6.$.l Z l g / s     J.J.J.J.J.J.J.J.J.J.",
"J.J.J.J.J.J.J.  D Z Z l.Z Z D Z D ,.4.S l l l Z x *.l s s     J.J.J.J.J.J.J.J.",
"J.J.J.J.J.    Z D D l.Z l D Z D @.5.S Z l l Z l 4.j l l l s d   J.J.J.J.J.J.J.",
"J.J.J.J.  Z Z l.Z D Z Z Z D Z +.5.+.Z l Z l Z m 5.s l l f w Q I   J.J.J.J.J.J.",
"J.J.J.  Z Z D l.Z D D Z l Z b 5.X.Z s l l l Z 5. .l s b ;.] v s   J.J.J.J.J.J.",
"J.J.J.  Z Z D Z Z D D D Z l 5.1.A s Z l Z Z h 5.B s k 4. .l s s s   J.J.J.J.J.",
"J.J.  Z l l s Z s l Z l Z n 5.V s l Z s s l n 5.z n 4.n s l s l s   J.J.J.J.J.",
"J.J.  l l x.b.c Z s l l A 5.<.l l Z Z M 5.5.5.5.4.4.x l l s l s s 3   J.J.J.J.",
"J.J.  s b.b.b.b.9.<...| C 5.k N 5.5.5.5.5.5.5.5.5.5.4.s l s l s s 3   J.J.J.J.",
"J.  Z Z b.b.b.9.5.5.5.5.5.5.5.5.5.5.5.5.5.5.5.5.5.5.5.| s s s s s s   J.J.J.J.",
"J.  Z s b.b.9.5.5.5.5.5.5.5.5.5.5.5.5.5.5.5.5.5.5.5.5.} 3 l s s s s s   J.J.J.",
"J.  Z s b.5.5.5.5.5.5.5.5.5.5.5.5.5.5.5.5.5.5.5.5.5.5.>.s s s s s s s   J.J.J.",
"J.  l l 5.5.5.5.5.5.5.5.5.5.5.5.5.5.5.5.5.5.5.5.5.5.5.>.s l s s 3 3 3   J.J.J.",
"J.  % 5.5.5.5.5.5.5.5.5.5.5.5.5.5.5.5.5.5.5.5.5.5.5.5.>.[ 3 3 3 s s s   J.J.J.",
"J.  3 =     o r 5.5.5.5.5.5.5.5.5.5.5.-.:             $ [ [ 3 s s 3 3   J.J.J.",
"J.    =.          q 5.5.5.5.5.5.5.:.o           o   1 :.[ [ ) 3 s 3 s   J.J.J.",
"J.  [ ) U T 5       # 5.5.5.5.5.e       - ^ [ [ [ O.>.5.5.[ [ 3 s s s   J.J.J.",
"J.  ' Y Y Y Y Y ) 6   [ >.5.=.[     ~ [ ! Y Y Y ! [ [ [ O.[ [ 3 3 3       J.J.",
"  9.  K +       * G Y ) [ [ [ [ ! P J O             4 Y ) [ ! Y     5.5.5.  J.",
"  9.  . 2 ; J.l.    F P Y [ [ Y P 7 < J.l l l   C.%     L Y Y )   [ [ Y 5.5.  ",
"  5.    C.< v.  3   O P Y [ [ Y H     l.v.  l   S.C.N.  . Y ) [ 5.    J ) 5.  ",
"  5.'   G.  Z   l   C.P [ [ [ ) o.C.  Z     z.  J.G.S.  9 [ [ [ 5.  J   5.5.  ",
"  5.3.  J.  Z c.c.% J.[ [ [ [ [ ) G.F.; Z z.l.3 J.J.F.@ [ [ [ [ 5.  J ) 5.>.  ",
"J.  5.  m.J.&   3 J.H.[ 5.>.5.>.[ A.J.F.; 8   F.J.X   [ [ [ ' [   5.5.5.3.  J.",
"J.  5.5.  5.0       =.5.5.5.5.5.5.>.(             ^ [ [ [ [ Y ) 5.5.>.W Y   J.",
"J.J.  5.  5.5.5.5.5.5.5.5.5.5.5.5.5.5.5.=.[ [ [ >.[ [ [ [ Y Y Y Y Y P J   J.J.",
"J.J.J.    5.5.5.5.5.5.5.5.5.5.5.5.5.5.5.5.5.5.5.[ [ [ [ Y Y Y   J J     J.J.J.",
"J.J.J.J.  5.5.5.5.5.5.5.5.5.5.5.5.5.5.5.5.5.5.[ [ [ Y Y Y     J.    J.J.J.J.J.",
"J.J.J.J.J.  5.>.>.5.5.5.5.5.5.5.5.5.5.5.>.O.[ [ [ Y Y Y     J.J.J.J.J.J.J.J.J.",
"J.J.J.J.J.J.  [ [ [ >.5.5.    >.>.=.[ [ [ [ Y Y Y Y     f.k.  J.J.J.J.J.J.J.J.",
"J.J.J.J.J.J.J.    [ [ [ [ [ [ [ [ [ [ Y Y Y Y Y     3 3 % f.  J.J.J.J.J.J.J.J.",
"J.J.J.J.J.J.J.J.J.    Y Y Y Y Y Y Y Y Y         % % % B.f.f.  J.J.J.J.J.J.J.J.",
"J.J.J.J.J.J.J.J.J.J.J.                  % J.Z.    B.B.k.f.k.  J.J.J.J.J.J.J.J.",
"J.J.J.J.J.J.J.J.J.J.J.J.J.J.  D.Z.J.J.Z.Z.D.B.B.J.J.k.  f.  J.J.J.J.J.J.J.J.J.",
"J.J.J.J.J.J.J.J.J.J.J.J.J.  B.B.B.B.J.B.B.k.k.k.k.k.J.Z.    J.J.J.J.J.J.J.J.J.",
"J.J.J.J.J.J.J.J.J.J.J.J.  B.k.f.B.Z.B.B.B.B.k.B.B.B.k.k.J.f.  J.J.J.J.J.J.J.J.",
"J.J.J.J.J.J.J.J.J.J.J.  B.k.u B.D.J.D.D.B.B.k.k.  k.B.B.k.J.f.  J.J.J.J.J.J.J.",
"J.J.J.J.J.J.J.J.J.J.J.  B.f.u B.B.J.B.B.B.B.k.k.u   k.B.B.B.Z.f.  J.J.J.J.J.J.",
"J.J.J.J.J.J.J.J.J.J.  B.k.u i.i.i.J.r.i.i.r.r.u k.f.  k.< < < <   J.J.J.J.J.J.",
"J.J.J.J.J.J.J.        3 3   k.k.k.Z.k.k.k.k.k.k.k.f.k.  s l s < <   J.J.J.J.J.",
"J.J.J.J.J.J.  0.` E   l 3   k.B.J.k.B.B.B.B.k.k.k.f.k.    l l s <   J.J.J.J.J.",
"J.J.J.J.J.  0.0.9.7.E     k.B.B.J.B.B.B.B.B.B.k.i.f.    n.            J.J.J.J.",
"J.J.J.J.  0.0.0.9.7.{ E   B.B.D.J.D.D.D.D.B.B.k.r.f.  n.n.n.n.8.{ _   J.J.J.J.",
"J.J.J.J.  0.0.9.9.9.{ `   B.D.D.J.D.B.B.B.B.B.k.k.u   n.n.n.0.8._ R   J.J.J.J.",
"J.J.J.J.  0.0.0.9.9.{ R   k.B.B.Z.B.B.B.B.B.k.k.k.f.  0.0.9.9.` R R   J.J.J.J.",
"J.J.J.J.  0.0.0.9.{ { R   f.k.k.k.Z.k.k.k.k.k.k.f.    &.8.8.{ ` E R   J.J.J.J.",
"J.J.J.J.J.  { { { R R R   J.                          { &.{ { E R R   J.J.J.J.",
"J.J.J.J.J.J.  R R R R   J.J.  p p t   t y i y t >   J.  R R R R R   J.J.J.J.J.",
"J.J.J.J.J.J.J.        J.J.J.J.  u.a t   i t t > t   J.J.          J.J.J.J.J.J.",
"J.J.J.J.J.J.J.J.J.J.J.J.J.J.J.  j.e.p   w.q.t t   J.J.J.J.J.J.J.J.J.J.J.J.J.J.",
"J.J.J.J.J.J.J.J.J.J.J.J.J.J.J.J.  q.  a.d.y.p   J.J.J.J.J.J.J.J.J.J.J.J.J.J.J.",
"J.J.J.J.J.J.J.J.J.J.J.J.J.J.J.J.J.    M.j.p.  J.J.J.J.J.J.J.J.J.J.J.J.J.J.J.J.",
"J.J.J.J.J.J.J.J.J.J.J.J.J.J.J.J.J.  s.g.s.t.    J.J.J.J.J.J.J.J.J.J.J.J.J.J.J.",
"J.J.J.J.J.J.J.J.J.J.J.J.J.J.J.J.J.          p     J.J.J.J.J.J.J.J.J.J.J.J.J.J.",
"J.J.J.J.J.J.J.J.J.J.J.J.J.J.J.J.J.  p p p       ,     J.J.J.J.J.J.J.J.J.J.J.J.",
"J.J.J.J.J.J.J.J.J.J.J.J.J.J.J.J.J.        , ,   , , p   J.J.J.J.J.J.J.J.J.J.J.",
"J.J.J.J.J.J.J.J.J.J.J.J.J.J.J.J.  p p p p p p p   p p   J.J.J.J.J.J.J.J.J.J.J.",
"J.J.J.J.J.J.J.J.J.J.J.J.J.J.J.        y.y.y.p p   p p   J.J.J.J.J.J.J.J.J.J.J.",
"J.J.J.J.J.J.J.J.J.J.J.J.J.J.  J.J.h.h.h.y.p V.V.    V.  J.J.J.J.J.J.J.J.J.J.J.",
"J.J.J.J.J.J.J.J.J.J.J.J.J.J.  h.y.y.y.y.p V.    p p V.  J.J.J.J.J.J.J.J.J.J.J.",
"J.J.J.J.J.J.J.J.J.J.J.J.J.J.  J.J.J.J.V.V.  p p p V.  J.J.J.J.J.J.J.J.J.J.J.J.",
"J.J.J.J.J.J.J.J.J.J.J.J.J.J.J.            J.        J.J.J.J.J.J.J.J.J.J.J.J.J."
};
