/* XPM */
static char *result[] = {
/* columns rows colors chars-per-pixel */
"39 64 163 2 ",
"   c black",
".  c #0A0501",
"X  c #0B0803",
"o  c #0D0A07",
"O  c #140602",
"+  c #140B02",
"@  c #171006",
"#  c #19120B",
"$  c #19140D",
"%  c #111111",
"&  c #22180A",
"*  c #331605",
"=  c #251F14",
"-  c #2D200D",
";  c #222211",
":  c #32291B",
">  c #001133",
",  c #002233",
"<  c #222222",
"1  c #3E3322",
"2  c #222233",
"3  c gray20",
"4  c #472707",
"5  c #44290D",
"6  c #442F14",
"7  c #7A280D",
"8  c #443333",
"9  c #7A440D",
"0  c #665128",
"q  c #645136",
"w  c #6D583D",
"e  c #705133",
"r  c #705C3D",
"t  c #002255",
"y  c #003355",
"u  c #003366",
"i  c #003377",
"p  c #004466",
"a  c #004477",
"s  c #444444",
"d  c #4A4641",
"f  c #4C4843",
"g  c #4C4844",
"h  c #4C4946",
"j  c #544F48",
"k  c #5B554A",
"l  c #555555",
"z  c #5C5956",
"x  c #645B4D",
"c  c #665B4F",
"v  c #665C4E",
"b  c #635E57",
"n  c #6B604F",
"m  c #696358",
"M  c #746652",
"N  c #7B6B53",
"B  c #706759",
"V  c #776C5B",
"C  c #7E705C",
"Z  c gray40",
"A  c #6C6966",
"S  c #7D7466",
"D  c #777777",
"F  c #8E2F0F",
"G  c #843A0E",
"H  c #843217",
"J  c #993311",
"K  c #84490E",
"L  c #8E4F0F",
"P  c #994411",
"I  c #8D5217",
"U  c #8E5F1F",
"Y  c #995511",
"T  c #9E5F1F",
"R  c #AA5511",
"E  c #AA6611",
"W  c #995522",
"Q  c #965F29",
"!  c #996622",
"~  c #93672C",
"^  c #9E6F2F",
"/  c #816239",
"(  c #986C31",
")  c #AA6622",
"_  c #BB6622",
"`  c #BB7722",
"'  c #AA6633",
"]  c #A37434",
"[  c #AA7733",
"{  c #847051",
"}  c #8D7755",
"|  c #8C795E",
" . c #937D5B",
".. c #927E5F",
"X. c #AD6940",
"o. c #AA7744",
"O. c #827766",
"+. c #887A66",
"@. c #857769",
"#. c #88776B",
"$. c #8C7C6C",
"%. c #9B825C",
"&. c #BB8844",
"*. c #A28458",
"=. c #A3885F",
"-. c #AE8E5F",
";. c #BB8855",
":. c #8D8271",
">. c #A08761",
",. c #A68B62",
"<. c #A78E69",
"1. c #BB8866",
"2. c #B39364",
"3. c #BB9966",
"4. c #B1967A",
"5. c #CC9944",
"6. c #CC9955",
"7. c #CC9966",
"8. c #CCAA66",
"9. c #CCAA77",
"0. c #DDAA77",
"q. c #DDBB77",
"w. c #004488",
"e. c #005588",
"r. c #115588",
"t. c #005599",
"y. c #115599",
"u. c #006688",
"i. c #006699",
"p. c #116699",
"a. c #226699",
"s. c #0077AA",
"d. c #3377AA",
"f. c #0077CC",
"g. c #0099AA",
"h. c #4488BB",
"j. c #5599BB",
"k. c #5599DD",
"l. c #6699CC",
"z. c #55AADD",
"x. c #66AACC",
"c. c #77BBEE",
"v. c #888888",
"b. c gray60",
"n. c #BBA084",
"m. c #AAAAAA",
"M. c #BBBBBB",
"N. c #CCAA88",
"B. c #DDBB88",
"V. c #DDCCAA",
"C. c #DFCFB7",
"Z. c #AADDEE",
"A. c #BBDDFF",
"S. c #99EEFF",
"D. c #BBEEFF",
"F. c #DDDDDD",
"G. c #E8DBC8",
"H. c #CCFFFF",
"J. c #DDFFFF",
"K. c #EEEEEE",
"L. c #EEFFFF",
"P. c #F9F6F1",
"I. c #FFFFFFFF",
/* pixels */
"I.I.I.I.I.I.I.I.I.I.I.I.I.I.I.I.I.I.I.I.I.I.I.I.I.I.I.I.I.I.I.I.I.I.I.I.I.I.I.",
"I.I.I.I.I.I.I.I.I.I.I.I.I.                      I.I.I.I.I.I.I.I.I.I.I.I.I.I.I.",
"I.I.I.I.I.I.I.I.I.I.      Z l Z l l l @.<.C l Z       I.I.I.I.I.I.I.I.I.I.I.I.",
"I.I.I.I.I.I.I.I.    Z Z Z Z Z Z Z Z $.4.#.l Z l g / s     I.I.I.I.I.I.I.I.I.I.",
"I.I.I.I.I.I.I.  D Z Z v.Z Z D Z D :.2.S l l l Z x %.l s s     I.I.I.I.I.I.I.I.",
"I.I.I.I.I.    Z D D v.Z l D Z D +.3.S Z l l Z l 2.j l l l s d   I.I.I.I.I.I.I.",
"I.I.I.I.  Z Z v.Z D Z Z Z D Z O.3.O.Z l Z l Z m 3.s l l f w Q I   I.I.I.I.I.I.",
"I.I.I.  Z Z D v.Z D D Z l Z b 3...Z s l l l Z 3.| l s b =.] v s   I.I.I.I.I.I.",
"I.I.I.  Z Z D Z Z D D D Z l 3.,.A s Z l Z Z h 3.B s k 2.| l s s s   I.I.I.I.I.",
"I.I.  Z l l s Z s l Z l Z n 3.V s l Z s s l n 3.z n 2.n s l s l s   I.I.I.I.I.",
"I.I.  l l n.N.c Z s l l A 3.>.l l Z Z M 3.3.3.3.2.2.x l l s l s s 3   I.I.I.I.",
"I.I.  s N.N.N.N.9.>. .} C 3.k N 3.3.3.3.3.3.3.3.3.3.2.s l s l s s 3   I.I.I.I.",
"I.  Z Z N.N.N.9.3.3.3.3.3.3.3.3.3.3.3.3.3.3.3.3.3.3.3.} s s s s s s   I.I.I.I.",
"I.  Z s N.N.9.3.3.3.3.3.3.3.3.3.3.3.3.3.3.3.3.3.3.3.3.{ 3 l s s s s s   I.I.I.",
"I.  Z s N.3.3.3.3.3.3.3.3.3.3.3.3.3.3.3.3.3.3.3.3.3.3.;.s s s s s s s   I.I.I.",
"I.  l l 3.3.3.3.3.3.3.3.3.3.3.3.3.3.3.3.3.3.3.3.3.3.3.;.s l s s 3 3 3   I.I.I.",
"I.  % 3.3.3.3.3.3.3.3.3.3.3.3.3.3.3.3.3.3.3.3.3.3.3.3.;.[ 3 3 3 s s s   I.I.I.",
"I.  3 =     o r 3.3.3.3.3.3.3.3.3.3.3.*.:             $ [ [ 3 s s 3 3   I.I.I.",
"I.    &.          q 3.3.3.3.3.3.3.-.o           o   1 -.[ [ ) 3 s 3 s   I.I.I.",
"I.  [ ) U T 5       # 3.3.3.3.3.e       - ^ [ [ [ o.;.3.3.[ [ 3 s s s   I.I.I.",
"I.  ' Y Y Y Y Y ) 6   [ ;.3.&.[     ~ [ ! Y Y Y ! [ [ [ o.[ [ 3 3 3       I.I.",
"  9.  K +       * G Y ) [ [ [ [ ! P J O             4 Y ) [ ! Y     3.3.3.  I.",
"  9.  . 2 ; I.v.    F P Y [ [ Y P 7 < I.l l l   D.%     L Y Y )   [ [ Y 3.3.  ",
"  3.    D.< M.  3   O P Y [ [ Y H     v.M.  l   H.D.Z.  . Y ) [ 3.    J ) 3.  ",
"  3.'   L.  Z   l   D.P [ [ [ ) X.D.  Z     b.  I.L.H.  9 [ [ [ 3.  J   3.3.  ",
"  3.1.  I.  Z m.m.% I.[ [ [ [ [ ) L.K.; Z b.v.3 I.I.K.@ [ [ [ [ 3.  J ) 3.;.  ",
"I.  3.  C.I.&   3 I.P.[ 3.;.3.;.[ G.I.K.; 8   K.I.X   [ [ [ ' [   3.3.3.1.  I.",
"I.  3.3.  3.0       &.3.3.3.3.3.3.;.(             ^ [ [ [ [ Y ) 3.3.;.W Y   I.",
"I.I.  3.  3.3.3.3.3.3.3.3.3.3.3.3.3.3.3.&.[ [ [ ;.[ [ [ [ Y Y Y Y Y P J   I.I.",
"I.I.I.    3.3.3.3.3.3.3.3.3.3.3.3.3.3.3.3.3.3.3.[ [ [ [ Y Y Y   J J     I.I.I.",
"I.I.I.I.  3.3.3.3.3.3.3.3.3.3.3.3.3.3.3.3.3.3.[ [ [ Y Y Y     I.    I.I.I.I.I.",
"I.I.I.I.I.  3.;.;.3.3.3.3.3.3.3.3.3.3.3.;.o.[ [ [ Y Y Y       I.I.I.I.I.I.I.I.",
"I.I.I.I.I.I.  [ [ [ ;.3.3.    ;.;.&.[ [ [ [ Y Y Y Y     3 c.c.  I.I.I.I.I.I.I.",
"I.I.I.I.I.I.I.    [ [ [ [ [ [ [ [ [ [ Y Y Y Y Y     % % 3 3 k.  I.I.I.I.I.I.I.",
"I.I.I.I.I.I.I.I.I.    Y Y Y Y Y Y Y Y Y         % % A.A.A.c.k.  I.I.I.I.I.I.I.",
"I.I.I.I.I.I.I.I.I.I.I.                  % F.F.J.A.A.c.c.c.k.c.  I.I.I.I.I.I.I.",
"I.I.I.I.I.I.I.I.I.I.I.I.I.I.  J.J.F.I.I.F.J.J.A.A.  k.k.k.k.  I.I.I.I.I.I.I.I.",
"I.I.I.I.I.I.I.I.I.I.I.I.I.  J.c.A.I.A.A.A.c.c.c.I.c.  k.k.c.  I.I.I.I.I.I.I.I.",
"I.I.I.I.I.I.I.I.I.I.I.I.I.  c.k.A.I.A.A.A.A.c.A.A.F.c.  k.  I.I.I.I.I.I.I.I.I.",
"I.I.I.I.I.I.I.I.I.I.I.I.  A.u c.I.J.J.J.A.A.c.c.A.A.I.c.  I.I.I.I.I.I.I.I.I.I.",
"I.I.I.I.I.I.I.I.I.I.I.I.  c.u A.I.A.A.A.A.c.c.  c.A.c.F.  I.I.I.I.I.I.I.I.I.I.",
"I.I.I.I.I.I.I.I.I.I.I.I.  c.t.f.I.f.f.f.t.t.t.  c.c.c.I.c.  I.I.I.I.I.I.I.I.I.",
"I.I.I.I.I.I.I.I.I.I.I.I.  u c.c.F.c.c.c.c.c.c.k.  A.A.c.I.  I.I.I.I.I.I.I.I.I.",
"I.I.I.I.I.I.I.I.I.I.I.  s u A.A.I.A.A.A.A.A.c.c.  A.A.c.I.  I.I.I.I.I.I.I.I.I.",
"I.I.I.I.I.I.I.I.I.I.    s   J.I.J.J.A.A.      f.  s < <     I.I.I.I.I.I.I.I.I.",
"I.I.I.I.I.I.I.I.I.  V.B.  A.J.I.J.J.    B.8.B.  s l s <   I.I.I.I.I.I.I.I.I.I.",
"I.I.I.I.I.I.I.I.I.  V.B.  A.A.I.J.J.  0.8.8.8.  l l s <   I.I.I.I.I.I.I.I.I.I.",
"I.I.I.I.I.I.I.I.I.  0.8.  c.c.F.A.  0.8.8.8.0.7.  s <     I.I.I.I.I.I.I.I.I.I.",
"I.I.I.I.I.I.I.I.I.  ` ` R   c.c.F.  8.8.8.q.7.7.7.  s   I.I.I.I.I.I.I.I.I.I.I.",
"I.I.I.I.I.I.I.I.I.I.    R           8.B.8.7.7.7.E E   I.I.I.I.I.I.I.I.I.I.I.I.",
"I.I.I.I.I.I.I.I.I.I.I.I.    t t t   6.5.5.` ` E R     I.I.I.I.I.I.I.I.I.I.I.I.",
"I.I.I.I.I.I.I.I.I.I.I.I.I.  a.e.p >   _ _ E R R     I.I.I.I.I.I.I.I.I.I.I.I.I.",
"I.I.I.I.I.I.I.I.I.I.I.I.  x.j.i.a               u   I.I.I.I.I.I.I.I.I.I.I.I.I.",
"I.I.I.I.I.I.I.I.I.I.I.I.  l.h.e.p   I.I.  i r.p.i.u.  I.I.I.I.I.I.I.I.I.I.I.I.",
"I.I.I.I.I.I.I.I.I.I.I.  e.p.r.u   I.I.I.I.  r.y.y.p ,       I.I.I.I.I.I.I.I.I.",
"I.I.I.I.I.I.I.I.I.I.I.            I.I.I.I.  a e.w.y >   p       I.I.I.I.I.I.I.",
"I.I.I.I.I.I.I.I.I.I.I.  i.i.p p   I.I.I.I.I.  s.d.u.y   p   , S.  I.I.I.I.I.I.",
"I.I.I.I.I.I.I.I.I.I.I.            I.I.I.I.I.I.  g.    i.  p p S.  I.I.I.I.I.I.",
"I.I.I.I.I.I.I.I.I.I.  i.p p , , ,   I.I.I.I.I.I.    i.  p p p S.  I.I.I.I.I.I.",
"I.I.I.I.I.I.I.I.        i.p p , ,   I.I.I.I.I.I.I.        p p S.  I.I.I.I.I.I.",
"I.I.I.I.I.I.I.  I.I.z.z.i.i.p p p   I.I.I.I.I.I.I.I.  p p p p S.  I.I.I.I.I.I.",
"I.I.I.I.I.I.I.  z.i.i.i.i.p p p S.  I.I.I.I.I.I.I.I.  i.i.p p S.  I.I.I.I.I.I.",
"I.I.I.I.I.I.I.  I.I.I.I.I.S.S.S.    I.I.I.I.I.I.I.I.I.  i.i.S.S.  I.I.I.I.I.I.",
"I.I.I.I.I.I.I.I.                I.I.I.I.I.I.I.I.I.I.I.I.        I.I.I.I.I.I.I."
};
