/* XPM */
static char *result[] = {
/* columns rows colors chars-per-pixel */
"64 64 106 2 ",
"   c black",
".  c #010000",
"X  c #010100",
"o  c #000001",
"O  c #010001",
"+  c #010101",
"@  c #BA5500",
"#  c #BB5500",
"$  c #CB5500",
"%  c #CC5500",
"&  c #CB6600",
"*  c #CC6600",
"=  c #DC6600",
"-  c #DD6600",
";  c #CC7700",
":  c #DC7700",
">  c #DD7700",
",  c #ED7700",
"<  c #EE7700",
"1  c #BAA900",
"2  c #BBAA00",
"3  c #CC8800",
"4  c #DD8800",
"5  c #CB9800",
"6  c #CC9900",
"7  c #DD9900",
"8  c #ED8700",
"9  c #EE8800",
"0  c #FE8700",
"q  c #FF8800",
"w  c #ED9800",
"e  c #EE9900",
"r  c #FF9900",
"t  c #FE8711",
"y  c #FF8811",
"u  c #FE9811",
"i  c #FF9911",
"p  c #CBA900",
"a  c #CCAA00",
"s  c #DDAA00",
"d  c #CCBB00",
"f  c #DDBB00",
"g  c #EEAA00",
"h  c #FFAA00",
"j  c #EEBB00",
"k  c #FFBB00",
"l  c #FEA911",
"z  c #FFAA11",
"x  c #FEBA11",
"c  c #FFBB11",
"v  c #FE9822",
"b  c #FF9922",
"n  c #FFAA22",
"m  c #FFBB22",
"M  c #FEA933",
"N  c #FFAA33",
"B  c #DDCC00",
"V  c #EECC00",
"C  c #FFCC00",
"Z  c #EDDC00",
"A  c #EEDD00",
"S  c #FFDD00",
"D  c #FFCC11",
"F  c #FFDD11",
"G  c #FEED00",
"H  c #FFEE00",
"J  c #FEFE00",
"K  c #FFEE11",
"L  c #FEFE11",
"P  c #FFFF11",
"I  c #FFCC22",
"U  c #FEDC22",
"Y  c #FFDD22",
"T  c #FFEE22",
"R  c #FEFE22",
"E  c #FFFF22",
"W  c #FEFE33",
"Q  c #FFFF33",
"!  c #989877",
"~  c #A99877",
"^  c #AA9977",
"/  c #AAAA77",
"(  c #FFFFFFFF",
")  c #A9A987",
"_  c #AAAA88",
"`  c #BBAA88",
"'  c #BBBB88",
"]  c #BABA98",
"[  c #BBBB99",
"{  c #CCBB99",
"}  c #CCBBAA",
"|  c #CCCCAA",
" . c #DDCCAA",
".. c #CCCCBB",
"X. c #DCCBBA",
"o. c #DDCCBB",
"O. c #DCDCBA",
"+. c #DDDDBB",
"@. c #DDDDCC",
"#. c #EEDDCC",
"$. c #EDEDCB",
"%. c #EEEECC",
"&. c #EDEDDC",
"*. c #EEEEDD",
"=. c #FFEEDD",
"-. c #FFEEEE",
/* pixels */
"( ( ( ( ( ( ( ( ( ( ( ( ( ( ( ( ( ( ( ( ( ( ( ( ( ( ( ( ( ( ( ( ( ( ( ( ( ( ( ( ( ( ( ( ( ( ( ( ( ( ( ( ( ( ( ( ( ( ( ( ( ( ( ( ",
"( ( ( ( ( ( ( ( ( ( ( ( ( ( ( ( ( ( ( ( ( ( ( ( ( ( ( ( ( ( ( ( ( ( ( ( ( ( ( ( ( ( ( ( ( ( ( ( ( ( ( ( ( ( ( ( ( ( ( ( ( ( ( ( ",
"( ( ( ( ( ( ( ( ( ( ( ( ( ( ( ( ( ( ( ( ( ( ( ( ( ( ( ( ( ( ( ( ( ( ( ( ( ( ( ( ( ( ( ( ( ( ( ( ( ( ( ( ( ( ( ( ( ( ( ( ( ( ( ( ",
"( ( ( ( ( ( ( ( ( ( ( ( ( ( ( ( ( ( ( ( ( ( ( ( ( ( ( ( ( ( ( ( ( ( ( ( ( ( ( ( ( ( ( ( ( ( ( ( ( ( ( ( ( ( ( ( ( ( ( ( ( ( ( ( ",
"( ( ( ( ( ( ( ( ( ( ( ( ( ( ( ( ( ( ( ( ( ( ( ( ( ( ( ( ( ( ( ( ( ( ( ( ( ( ( ( ( ( ( ( ( ( ( ( ( ( ( ( ( ( ( ( ( ( ( ( ( ( ( ( ",
"( ( ( ( ( ( ( ( ( ( ( ( ( ( ( ( ( ( ( ( ( ( ( ( ( o o o o o o o o o o o ( ( ( ( ( ( ( ( ( ( ( ( ( ( ( ( ( ( ( ( ( ( ( ( ( ( ( ( ",
"( ( ( ( ( ( ( ( ( ( ( ( ( ( ( ( ( ( ( ( ( ( O O O , , , , : = & @ @ @ @ O O O ( ( ( ( ( ( ( ( ( ( ( ( ( ( ( ( ( ( ( ( ( ( ( ( ( ",
"( ( ( ( ( ( ( ( ( ( ( ( ( ( ( ( ( ( ( ( O O u t 0 9 9 9 < < > - - * % # $ 5 1 O ( ( ( ( ( ( ( ( ( ( ( ( ( ( ( ( ( ( ( ( ( ( ( ( ",
"( ( ( ( ( ( ( ( ( ( ( ( ( ( ( ( ( ( ( O v v b b i y y q 9 < < < > - * * * * a p O O ( ( ( ( ( ( ( ( ( ( ( ( ( ( ( ( ( ( ( ( ( ( ",
"( ( ( ( ( ( ( ( ( ( ( ( ( ( ( ( ( ( O v b b b b b b i y q 9 < < < - - - * * 3 a 1 1 O ( ( ( ( ( ( ( ( ( ( ( ( ( ( ( ( ( ( ( ( ( ",
"( ( ( ( ( ( ( ( ( ( ( ( ( ( ( ( ( O v b b b b b b b i i y q 9 < < > > - - * ; a a 2 1 O ( ( ( ( ( ( ( ( ( ( ( ( ( ( ( ( ( ( ( ( ",
"( ( ( ( ( ( ( ( ( ( ( ( ( ( ( ( O u i i b b i b b b i i y y q < < < > - - * * a a a 2 p O O ( ( ( ( ( ( ( ( ( ( ( ( ( ( ( ( ( ( ",
"( ( ( ( ( ( ( ( ( ( ( ( ( ( ( O u i i i b i i i b i i i i y q q < < < - - - * ; a a a a & & O O O ( ( ( ( ( ( ( ( ( ( ( ( ( ( ( ",
"( ( ( ( ( ( ( ( ( ( ( ( ( ( O l i i i b i i i i i i i i y y y q 9 < 9 > - - * * * ; 3 ; * * & & & O O O O O ( ( ( ( ( ( ( ( ( ( ",
"( ( ( ( ( ( ( ( ( ( ( ( ( (   P K D z b i i i i i i i i y y y q 9 j A B 4 - * * * * * * * - * * * & = , 0 0 O O ( ( ( ( ( ( ( ( ",
"( ( ( ( ( ( ( ( ( ( ( ( ( O L P K P K b i i i i i i i i i y q g V A A B B > - * * * * * * - - * * * * - > < 8 8 O ( ( ( ( ( ( ( ",
"( ( ( ( ( ( ( ( ( ( ( ( (   P P K K K I i i i i i i i y y z S A A A A B B 7 - * * * * * * * * * * * * - - > < 9 8 O ( ( ( ( ( ( ",
"( ( ( ( ( ( ( ( ( ( ( ( O G K K K K K F i i i y y q q q y S S A A A V B B 7 - * * * * * * * * 6 a 3 - - - - > < 9 0 O ( ( ( ( ( ",
"( ( ( ( ( ( ( ( ( ( ( O J H H H H K K K i i y q q q q y y k A A A A V B f > - - * * * * * * ; d d d 6 * * - - > < q 0 O ( ( ( ( ",
"( ( ( ( ( ( ( ( ( ( O R P H H H H H K K i q q q q q y q q q V A A V f 4 > - - - * * * * * * * a d d d ; * - - - > 9 q   ( ( ( ( ",
"( ( ( ( ( ( ( ( O O W Q E H H H H H H H q q q q q q q q q q 9 9 9 < < > > - - - - * * * * * ; d d d d 6 * * - - 7 V j w O ( ( ( ",
"( ( ( ( ( ( ( O M U E E K H H H H H H k q q q q q q q q q q < < < < < > > - - - - - * * * * a d d d d 6 * * * * 4 B A A   ( ( ( ",
"( ( ( ( ( ( O M b I P P H H H H H H C q q q q q q q q q q 9 < < < < < > > - - - - - - * * a d d d d d a * * * * - 4 V A   ( ( ( ",
"( ( ( ( ( O M n b D P K H H H H H S q q q q q q q q q q q 9 < < < < < > > - - - - - - * * d d d d d d a * * * * - - 9 A   ( ( ( ",
"( ( ( ( O M N b i D K H H H H H H k q q q q q q q q q q 9 < < < < < < < > - - - - - - - - d d f d d d 6 * * * * - - < e Z O ( ( ",
"( ( ( O v N N b i z K H H H H H H r q q q q q q q q q q 9 < < < < < < < > > - - - - - - > f f f f d d ; * * * * - - < 9 A   ( ( ",
"( ( O x n N n b i i h H H H H H k q q q q q q q q q q e g g g 9 < < < < < > - - - - - - > f f f f 7 - * * * * * - - < < V   ( ( ",
"( (   K n N b b i i i q h C k r q q q q q q q q q q q S S A A A V 9 < < < > - - - - - - - - > > - - - * * * * * * - < q X ( ( ( ",
"( (   H m N n b i i i q q q q q q q q q q q q q q q r S S A A A A V 9 < < < > - - - - - - - - - - - - - * * * * * - q q   ( ( ( ",
"( O G H Y N b b i i i q q q q q q q q q q q q q q q k S S A A A A A g < < < > > - - - - - - - - - - - * * * * * - < q q   ( ( ( ",
"(   H H K N n b b i i i q q q q q q q q q q q q q q C S S S A A A A g < < < < < > - - - - - - - - - - * * * * * - < q X ( ( ( ( ",
"(   A H F b b b b i i i y q q q q q q q q q q q q q S H S S A A A A 9 < < < < < > > - - - - - - - - * * * * * * > q q   ( ( ( ( ",
"(   B H k i n b b b i i i i q q q q q q q q q q q q S H H S A A A j < < < < < < < > > - - - - - - - * * * * * - < q X ( ( ( ( ( ",
"(   f V r i b b b b b i z i y q q q q q q q q q q q r C S S S A g < < < < < < < < > > - - - - - - * * * * * * < q q   ( ( ( ( ( ",
"(   f 7 q q i b b b n T P P F r q q q q q q q q q q q q r h h q q 9 < < < < < < < > > - - - - - * * * * * * > 9 q X ( ( ( ( ( ( ",
"( ( X < < q q i b b T E E P P K k q q q q q q q q q q q q q q q q q 9 9 < < < < < < > - - > 7 a 6 ; * * * - < q X ( ( ( ( ( ( ( ",
"( (   < < < q q i n E E E E E E P D q q q q q q q q q q q q q q q q q 9 9 9 < < < > > > 7 f d a a a 3 * - < q X ( ( ( ( ( ( ( ( ",
"( ( ( . < < < q q r K E E Q Q Q E E F i i i i i i i q q q q q q q q q 9 9 9 < < < > 4 f d d a a a a d > < q X ( ( ( ( ( ( ( ( ( ",
"( ( (   - < < < 9 q S K P E E E E E P c i i i i i i i q q q q q q q q q < < < < e f B d a a a a a d B 9 q X ( ( ( ( ( ( ( ( ( ( ",
"( ( ( ( . - > < < < e H H H H H K K K z i i i i i i i q q q q q q q q 9 < < 9 B B f d a a a a a d B A q X   ( ( ( ( ( ( ( ( ( ( ",
"( ( ( ( ( . - > < < < j A A S H H H S q q q q q q q q q q q 9 9 9 9 < < < < B B d d a a a a d f B A X X ~ ~ O ( ( ( ( ( ( ( ( ( ",
"( ( ( ( ( ( . - - > < 9 V A A A A V 9 9 9 9 9 9 9 9 9 9 9 9 < < < < < < < 4 d d a a a a d d B B V X ~ ~ ^ ^ ~ O ( ( ( ( ( ( ( ( ",
"( ( ( ( ( ( ( . * - - - > > 7 s e < < < < < < < < < < 9 < < < < < > > - * ; a a a a d d f B j X X ~ ^ ^ ^ ^ ^   ( ( ( ( ( ( ( ( ",
"( ( ( ( ( ( ( ( . . * * * * # # * * - - > > > < < < < < > - - * * * * * * * 6 d d d d f X X X ~ ~ ^ ^ ^ ^ ^ ^ ! O ( ( ( ( ( ( ( ",
"( ( ( ( ( ( ( ( ( ( . . * * * % # # # # % * * * * * * * * * # # # % % * * * * ; 3 X X X ~ ~ ~ ^ ^ ^ _ _ ^ ^ ^ ^   ( ( ( ( ( ( ( ",
"( ( ( ( ( ( ( ( ( ( ( ( . . . * * * * % % % % # % # # # # # # # # % * * * . . . X ~ ~ ~ ^ ^ ^ ^ ^ _ ` ` _ ^ ^ ^   ( ( ( ( ( ( ( ",
"( ( ( ( ( ( ( ( ( ( ( (   &.$.. . . . . * * * * * # # # # # . . . . . . . ~ ~ ~ ~ ^ ^ ^ ^ ^ ^ _ _ ` ` ` ` ^ ^ ^ ~ O ( ( ( ( ( ( ",
"( ( ( ( ( ( ( ( ( ( ( O $.*.*.O.] ) ~ ~ . . . . . . . . . . ~ ~ ~ ~ ~ ~ ~ ^ ^ ^ ^ ^ ^ ^ ^ _ _ _ ` ` ` ` ` _ ^ ^ ^   ( ( ( ( ( ( ",
"( ( ( ( ( ( ( ( ( ( O O.#.*.*.#.| ` _ ^ ~ ~ ~ ~ ~ ~ ~ ~ ~ ~ ^ ^ ^ ^ ^ ^ ^ ^ ^ ^ ^ ^ _ _ _ ` ` ` [ [ ` ` ` _ ^ ^ ^   ( ( ( ( ( ( ",
"( ( ( ( ( ( ( ( ( (   +.#.*.=.*.#.| [ ` _ _ _ _ ^ ^ ^ ^ ^ ^ ^ ^ ^ ^ ^ ^ ^ / _ _ _ _ ` ` ` ` [ | o.[ ` ` ` _ ^ ^ ^   ( ( ( ( ( ( ",
"( ( ( ( ( ( ( ( ( O X.+.#.*.=.=.*.#. .[ ` ` ` ` ` _ _ ^ / ^ ^ / _ _ _ _ _ _ ` ` ` ` ` ` [ | o.+.+.{ ` ` ` _ ^ ^ ^   ( ( ( ( ( ( ",
"( ( ( ( ( ( ( ( (   o.+.#.*.=.-.=.*.%.+.| [ [ ` ` ` ` ` ` ` ` ` ` ` ` ` ` ` ` ` ` [ [ | +.+.@.#.@.{ ` ` ` _ ^ ^ ^   ( ( ( ( ( ( ",
"( ( ( ( ( ( ( ( (   o.+.#.*.*.=.-.-.=.*.#.o.| } [ [ [ ' ` ` ` ` ` ` ` ` ` [ [ { | | +.+.@.#.#.*.#.[ ` ` ` _ ^ ^ ^   ( ( ( ( ( ( ",
"( ( ( ( ( ( ( ( (   o.o.@.*.*.*.=.-.-.=.*.%.@.+.o.o.| | | } } { { { { } | | o.+.+.@.#.%.*.*.*.*.@.[ ` ` ` ^ ^ ^ X ( ( ( ( ( ( ( ",
"( ( ( ( ( ( ( ( (   o.o.+.#.*.*.*.=.=.-.-.=.*.*.#.@.+.+.+.+.+.+.+.+.+.+.@.#.#.#.%.*.*.*.*.*.*.*.+.[ ` ` _ ^ ^ ^   ( ( ( ( ( ( ( ",
"( ( ( ( ( ( ( ( ( ( + o.o.+.#.*.*.*.*.=.=.-.-.=.=.*.*.*.*.*.%.%.*.*.*.*.*.*.*.*.*.*.*.*.*.*.*.#.| [ ` ` ^ ^ ^ X ( ( ( ( ( ( ( ( ",
"( ( ( ( ( ( ( ( ( (   o.o.o.o.#.%.*.*.*.*.=.=.=.-.-.=.-.=.=.=.=.=.=.=.=.*.*.*.*.*.*.*.*.*.*.#.o.[ ` ` / ^ ^ ^   ( ( ( ( ( ( ( ( ",
"( ( ( ( ( ( ( ( ( ( ( +  .o. .o.+.#.*.*.*.*.*.*.=.=.*.=.=.=.=.*.*.*.*.*.*.*.*.*.*.*.*.*.%.@...{ ' ` _ ^ ^ ^ X ( ( ( ( ( ( ( ( ( ",
"( ( ( ( ( ( ( ( ( ( ( ( +  . .| o.o.+.#.%.*.*.*.*.*.*.*.*.*.*.*.*.*.*.*.*.*.*.*.*.*.%.#.+.| { ` ` _ ^ ^ ^ X ( ( ( ( ( ( ( ( ( ( ",
"( ( ( ( ( ( ( ( ( ( ( ( ( + + | | | | o.+.@.#.#.%.*.*.*.*.*.*.*.*.*.*.*.*.*.*.%.#.@.+.| } [ ` _ ^ ^ ^ ^ X ( ( ( ( ( ( ( ( ( ( ( ",
"( ( ( ( ( ( ( ( ( ( ( ( ( ( ( + + { { { | | o.+.+.@.%.*.*.*.*.*.*.*.*.%.#.@.+.o.| | { [ ` ` _ ^ ^ ^ X X ( ( ( ( ( ( ( ( ( ( ( ( ",
"( ( ( ( ( ( ( ( ( ( ( ( ( ( ( ( ( + + + [ [ { { } | o.+.+.+.+.+.+.+.o.| | } { [ [ [ _ _ _ ^ ^ X X X ( ( ( ( ( ( ( ( ( ( ( ( ( ( ",
"( ( ( ( ( ( ( ( ( ( ( ( ( ( ( ( ( ( ( ( + + + + [ [ [ [ [ [ [ [ [ [ [ [ ` ' [ ' ` _ ^ + + X X ( ( ( ( ( ( ( ( ( ( ( ( ( ( ( ( ( ",
"( ( ( ( ( ( ( ( ( ( ( ( ( ( ( ( ( ( ( ( ( ( ( ( + + + + + + + + + + + + + + + + + + X ( ( ( ( ( ( ( ( ( ( ( ( ( ( ( ( ( ( ( ( ( "
};
