/* XPM */
static char *result[] = {
/* columns rows colors chars-per-pixel */
"64 64 72 1 ",
"  c black",
". c #010000",
"X c #010100",
"o c #010001",
"O c #010101",
"+ c #CC6600",
"@ c #DC6600",
"# c #DD6600",
"$ c #CC7700",
"% c #DC7700",
"& c #DD7700",
"* c #ED7700",
"= c #EE7700",
"- c #DD8800",
"; c #CC9900",
": c #DC9800",
"> c #DD9900",
", c #ED8700",
"< c #EE8800",
"1 c #FE8700",
"2 c #FF8800",
"3 c #ED9800",
"4 c #EE9900",
"5 c #FF9900",
"6 c #FF8811",
"7 c #FF9911",
"8 c #CCAA00",
"9 c #DCA900",
"0 c #DDAA00",
"q c #CCBB00",
"w c #DDBB00",
"e c #EDA900",
"r c #EEAA00",
"t c #FFAA00",
"y c #EEBB00",
"u c #FEBA00",
"i c #FFBB00",
"p c #FFAA11",
"a c #FFBB11",
"s c #FF9922",
"d c #FF9933",
"f c #FFAA33",
"g c #DCCB00",
"h c #DDCC00",
"j c #EDCB00",
"k c #EECC00",
"l c #FFCC00",
"z c #EDDC00",
"x c #EEDD00",
"c c #FEDC00",
"v c #FFDD00",
"b c #FFCC11",
"n c #EEDD11",
"m c #FFDD11",
"M c #FFEE00",
"N c #FFEE11",
"B c #FFCC22",
"V c #FFCC33",
"C c #FFEE22",
"Z c #FFAA44",
"A c #FFFFFFFF",
"S c #A9A987",
"D c #AAAA88",
"F c #BBAA88",
"G c #BBAA99",
"H c #BBBB99",
"J c #CCBBAA",
"K c #CCCCAA",
"L c #CBCBBA",
"P c #CCCCBB",
"I c #DCCBBA",
"U c #DDCCBB",
/* pixels */
"AAAAAAAAAAAAAAAAAAAAAAAAAAAAAAAAAAAAAAAAAAAAAAAAAAAAAAAAAAAAAAAA",
"AAAAAAAAAAAAAAAAAAAAAAAAAAAAAAAAAAAAAAAAAAAAAAAAAAAAAAAAAAAAAAAA",
"AAAAAAAAAAAAAAAAAAAAAAAAAAAAAAAAAAAAAAAAAAAAAAAAAAAAAAAAAAAAAAAA",
"AAAAAAAAAAAAAAAAAAAAAAAAAAAAAAAAAAAAAAAAAAAAAAAAAAAAAAAAAAAAAAAA",
"AAAAAAAAAAAAAAAAAAAAAAAAAAAAAAAAAAAAAAAAAAAAAAAAAAAAAAAAAAAAAAAA",
"AAAAAAAAAAAAAAAAAAAAAAAAAAAAAAAAAAAAAAAAAAAAAAAAAAAAAAAAAAAAAAAA",
"AAAAAAAAAAAAAAAAAAAAAAAAAAAAAAAAAAAAAAAAAAAAAAAAAAAAAAAAAAAAAAAA",
"AAAAAAAAAAAAAAAAAAAAAAAAAAAAAAAAAAAAAAAAAAAAAAAAAAAAAAAAAAAAAAAA",
"AAAAAAAAAAAAAAAAAAAAAAAAAAAAAAAAAAAAAAAAAAAAAAAAAAAAAAAAAAAAAAAA",
"AAAAAAAAAAAAAAAAAAAAAAAAAAAAAAAAAAAAAAAAAAAAAAAAAAAAAAAAAAAAAAAA",
"AAAAAAAAAAAAAAAAAAAAAAAAAAAAAAAAAAAAAAAAAAAAAAAAAAAAAAAAAAAAAAAA",
"AAAAAAAAAAAAAAAAAAAAAAAAAAAAAAAAAAAAAAAAAAAAAAAAAAAAAAAAAAAAAAAA",
"AAAAAAAAAAAAAAAAAAAAAAAAAAAAAAAAAAAAAAAAAAAAAAAAAAAAAAAAAAAAAAAA",
"AAAAAAAAAAAAAAAAAAAAAAAAAAAAAAAAAAAAAAAAAAAAAAAAAAAAAAAAAAAAAAAA",
"AAAAAAAAAAAAAAAAAAAAAAAAAAAAAAAAAAAAAAAAAAAAAAAAAAAAAAAAAAAAAAAA",
"AAAAAAAAAAAAAAAAAAAAAAAAAAAAAAAAAAAAAAAAAAAAAAAAAAAAAAAAAAAAAAAA",
"AAAAAAAAAAAAAAAAAAAAAAAAAAAAAAAAAAAAAAAAAAAAAAAAAAAAAAAAAAAAAAAA",
"AAAAAAAAAAAAAAAAAAAAAAAAAAAAAAAAAAAAAAAAAAAAAAAAAAAAAAAAAAAAAAAA",
"AAAAAAAAAAAAAAAAAAAAAAAAAAAAAAAAAAAAAAAAAAAAAAAAAAAAAAAAAAAAAAAA",
"AAAAAAAAAAAAAAAAAAAAAAAAAAAAAAAAAAAAAAAAAAAAAAAAAAAAAAAAAAAAAAAA",
"AAAAAAAAAAAAAAAAAAAAAAAAAAAAAAAAAAAAAAAAAAAAAAAAAAAAAAAAAAAAAAAA",
"AAAAAAAAAAAAAAAAAAAAAAAAAAA       AAAAAAAAAAAAAAAAAAAAAAAAAAAAAA",
"AAAAAAAAAAAAAAAAAAAAAAooooo%%@@@%%ooooAAAAAAAAAAAAAAAAAAAAAAAAAA",
"AAAAAAAAAAAAAAAAAAAAooze***===&&##%%@%ooAAAAAAAAAAAAAAAAAAAAAAAA",
"AAAAAAAAAAAAAAAAAAoozzy=========&&#&=#@%ooAAAAAAAAAAAAAAAAAAAAAA",
"AAAAAAAAAAAAAAAAoo3cxx<==<====<<<<&#&&&&%*oAAAAAAAAAAAAAAAAAAAAA",
"AAAAAAAAAAAAAAAo*,<xvi22<===<xxxxkkw&&&&&&%oAAAAAAAAAAAAAAAAAAAA",
"AAAAAAAAAAAAAAo*=<2vM5222<=<xxxxxxxkw&&&=&&9oAAAAAAAAAAAAAAAAAAA",
"AAAAAAAAAAAAAo*==22vv222222kxxxxxxxxk>&&&=&& AAAAAAAAAAAAAAAAAAA",
"AAAAAAAAAAAAo*==22252222<=2vxxxxxxxxkr&&&&&&:oAAAAAAAAAAAAAAAAAA",
"AAAAAAAAAAAA r=22222222222<tvvxxxxxxxr&&&&&&-goAAAAAAAAAAAAAAAAA",
"AAAAAAAAAAAozk22222222222222ivvxxxxxxr=&&&#&&hjoAAAAAAAAAAAAAAAA",
"AAAAAAAAAAozxl222222222222222vvvvxxxx4=&&&##&hh AAAAAAAAAAAAAAAA",
"AAAAAAAAAA xxv222222226622222iMvvxxxy===&&###hh,oAAAAAAAAAAAAAAA",
"AAAAAAAAAozxMv222266777766622iMMvvxx4===&&###-==*ooooAAAAAAAAAAA",
"AAAAAAAAozxMMb7777sss77777762tMMMvxy=====&#++#&&=* IIooAAAAAAAAA",
"AAAAAAAA 4xNNa7ssssssss7766662tlllr======&#+++##&=*OUIIoAAAAAAAA",
"AAAAAAAo,<5bb7sssfffdsss77666622222======&##+++##&=,OUUIoAAAAAAA",
"AAAAAAo,<<227ssdfZZZfdsss7766622222<=====&&##+++##&=*OUUIoAAAAAA",
"AAAAAA <<222sssfZZZZZfsss77776622222<=====&##++++##&=*OUU AAAAAA",
"AAAAAo1<<227ssfZZZZZZZfss77776662222<=====&&&#++++##&= UUIoAAAAA",
"AAAAA 2<<227ssfZZZZZZZfss77776662222<=====-hhw-++++#&&*OUU AAAAA",
"AAAAo12<<227ssfZZZZZZZfss77776662tlt2=====<hhhw&++++#&& UUIoAAAA",
"AAAA 22==<27ssffZZZZZZdss77776662vMvt======whhww+++++#& PUU AAAA",
"AAAA 22=<<26ssdfZZZZZfss777776665MMvl======whhww-++++#&*OPU AAAA",
"AAAo122<<<227sssfffffss777776666tMMMx======whhhw>+++++#= KPLoAAA",
"AAA 222<<tli77ssssssss7777776666vMMMk======yhhhw0+++++#= HKK AAA",
"AAou222<<rvvMNNNBsss77777776666pMMMM4======khhhw0++++$wkcOHJ AAA",
"AA M52<<<<vvMMNNNb7777777777767MMMMl======<khhhw0+++++wxM FH AAA",
"AA Ni2<<<<ivMMNNNb777777777667MMMMl<======yhhhhh>+++++$kM DH AAA",
"AA Nl2<<=<4vvvMNNa677777776666tiit<======<khhhhw&#+++++-M DH AAA",
"AA Nb2<<=<<kxvvvM56666666666622222=======ykhhhw-#++++++#l DG AAA",
"AA Cp22<<=<5vxvvl2222666666222222========4khhw&##++++++#2 DD AAA",
"AA Vs22<<<=<ivvv52222222222222222=========&--####++++++#2 DD AAA",
"AA fs22<<<<<<kvt222222222222tvMvxk4=======&&&###+++++++#2 DD AAA",
"AA Zf722<<<<<<<22222222222<<xxxxxxxy=====&&&&###++++++#&< DD AAA",
"AAAXZs22<<<<<<<<<<<<<<======xxxxxxxxy====&&&###+++++++#&XSDOAAAA",
"AAA Zf722<<<<<<<<<=========<xxxxxxxxk===&&&####+++++++#& DD AAAA",
"AAAAXfs2224<<<<<<<<<<<<<<<<kxxxxxxxxk===&&&###++++$$#### DD AAAA",
"AAAA ds22lvk4<<<<<<<<<<<<<<xxxxxxxxx4====&&##+++$qwh>##.SDOAAAAA",
"AAAAAX<<2MNNma4<<==========4ykkkkkk4===&&####++;qqwhh&# DD AAAAA",
"AAAAAAX&=kmNNnxk4<===&&&&&&&&&&---&&&&&#####+$8qqwhhh&.SDOAAAAAA",
"AAAAAAA.+-whhhhhhh>&&&#####++++++++++++###&>8qqqwhhhw.SDD AAAAAA",
"AAAAAAAA.X$;8qqqqqq+++++++++++++++++++++$;qqqqqhhhhXXSDDD AAAAAA"
};
