/* XPM */
static char *result[] = {
/* columns rows colors chars-per-pixel */
"64 66 139 2 ",
"   c black",
".  c #110000",
"X  c #111100",
"o  c #111111",
"O  c #221100",
"+  c #331100",
"@  c #221111",
"#  c #332200",
"$  c #222211",
"%  c #222222",
"&  c #332222",
"*  c #333322",
"=  c #442200",
"-  c #552200",
";  c #443300",
":  c #443311",
">  c #553311",
",  c #663300",
"<  c #663311",
"1  c #443322",
"2  c #554400",
"3  c #664411",
"4  c #774411",
"5  c #444422",
"6  c #554422",
"7  c #444433",
"8  c #554433",
"9  c #555533",
"0  c #664422",
"q  c #665533",
"w  c #775533",
"e  c #666633",
"r  c #776633",
"t  c #555544",
"y  c #665544",
"u  c #666644",
"i  c #776644",
"p  c #777744",
"a  c #776655",
"s  c #777755",
"d  c #CC0000",
"f  c #994400",
"g  c #885500",
"h  c #995500",
"j  c #884411",
"k  c #885511",
"l  c #995511",
"z  c #AA4400",
"x  c #AA5500",
"c  c #BB5500",
"v  c #AA5511",
"b  c #886600",
"n  c #997700",
"m  c #996611",
"M  c #AA6600",
"N  c #BB6600",
"B  c #AA7700",
"V  c #BB7700",
"C  c #AA6611",
"Z  c #BB7711",
"A  c #885522",
"S  c #996622",
"D  c #886633",
"F  c #996633",
"G  c #BB7733",
"H  c #CC5500",
"J  c #CC6600",
"K  c #DD6600",
"L  c #CC7700",
"P  c #DD7700",
"I  c #EE7700",
"U  c #FF7700",
"Y  c #886644",
"T  c #887744",
"R  c #887755",
"E  c #AA8800",
"W  c #BB8800",
"Q  c #AA9900",
"!  c #BB9900",
"~  c #BB8811",
"^  c #BB9911",
"/  c #BBAA00",
"(  c #CC8800",
")  c #DD8800",
"_  c #CC9900",
"`  c #DD9900",
"'  c #EE8800",
"]  c #FF8800",
"[  c #EE9900",
"{  c #FF9900",
"}  c #FF8811",
"|  c #FF9911",
" . c #CCAA00",
".. c #DDAA00",
"X. c #CCBB00",
"o. c #DDBB00",
"O. c #EEAA00",
"+. c #EEBB00",
"@. c #FFBB00",
"#. c #FFBB11",
"$. c #FF9922",
"%. c #FFAA22",
"&. c #FFBB22",
"*. c #DDCC00",
"=. c #EECC00",
"-. c #FFCC00",
";. c #EEDD00",
":. c #FFDD00",
">. c #FFEE00",
",. c #FFCC22",
"<. c #FFDD22",
"1. c #FFEE22",
"2. c #FFFF22",
"3. c #FFFF33",
"4. c #FFFFFFFF",
"5. c #AAAA88",
"6. c #BBAA88",
"7. c #BBAA99",
"8. c #BBBB99",
"9. c #BBBBBB",
"0. c #CCBB99",
"q. c #CCBBAA",
"w. c #CCCC99",
"e. c #CCCCAA",
"r. c #DDCCAA",
"t. c #CCCCBB",
"y. c #DDCCBB",
"u. c #DDDDBB",
"i. c #EEDDBB",
"p. c #DDDDCC",
"a. c #EEDDCC",
"s. c #EEEECC",
"d. c #EEEEDD",
"f. c #FFEEDD",
"g. c #FFFFDD",
"h. c #CCEEFF",
"j. c #FFEEEE",
"k. c #FFFFEE",
"l. c white",
/* pixels */
"4.4.4.4.4.4.4.4.4.4.4.4.4.4.4.4.4.4.4.4.4.4.4.4.4.4.4.4.4.4.4.4.4.4.4.4.4.4.4.4.4.4.4.4.4.4.4.4.4.4.4.4.4.4.4.4.4.4.4.4.4.4.4.4.",
"4.4.4.4.4.4.4.4.4.4.4.4.4.4.4.4.4.4.4.4.4.4.4.4.4.4.4.4.                    4.4.4.4.4.4.4.4.4.4.4.4.4.4.4.4.4.4.4.4.4.4.4.4.4.4.",
"4.4.4.4.4.4.4.4.4.4.4.4.4.4.4.4.4.4.4.4.4.4.4.          &.%.| | { ] ] ] ] ]       4.4.4.4.4.4.4.4.4.4.4.4.4.4.4.4.4.4.4.4.4.4.4.",
"4.4.4.4.4.4.4.4.4.4.4.4.4.4.4.4.4.4.4.4.      3.3.1.&.%.$.| | ] ] ] ] ] ] ] ] ] ]       4.4.4.4.4.4.4.4.4.4.4.4.4.4.4.4.4.4.4.4.",
"4.4.4.4.4.4.4.4.4.4.4.4.4.4.4.4.4.4.    3.2.2.2.,.%.| | | ] ] ] ] ] ] ] ] { @.-.@.{ I I     4.4.4.4.4.4.4.4.4.4.4.4.4.4.4.4.4.4.",
"4.4.4.4.4.4.4.4.4.4.4.4.4.4.4.4.    2.2.1.<.,.%.$.| | ] ] ] ] ] ] ] ] { :.>.>.>.>.:.-.[ P K     4.4.4.4.4.4.4.4.4.4.4.4.4.4.4.4.",
"4.4.4.4.4.4.4.4.4.4.4.4.4.      &.%.$.| | | } ] ] ' I I I I I I I U ] :.:.>.>.>.>.>.>.:.O.P K J   4.4.4.4.4.4.4.4.4.4.4.4.4.4.4.",
"4.4.4.4.4.4.4.4.4.4.4.    %.%.%.| | ] ' I I P P P K K K K K K K K K P [ =.;.:.:.:.:.:.:.;.O.K J J   4.4.4.4.4.4.4.4.4.4.4.4.4.4.",
"4.4.4.4.4.4.4.4.4.    $.$.| | ] I P K J J H c V V V N c c c c c c c c c J  .X.o.*.=.;.;.:.;.o.P J J   4.4.4.4.4.4.4.4.4.4.4.4.4.",
"4.4.4.4.4.4.4.4.  #.| { ] ' P J J c c c c N ! ! ! ! ! V c c c c c c c c c N ! ! !  .X.o.=.;.;.*.L J J   4.4.4.4.4.4.4.4.4.4.4.4.",
"4.4.4.4.4.4.4.  >.{ ' I K J c c c c c c N ! ! ! Q Q Q Q E x x x x x c c c c c V ! ! ! !  .X.*.=.o.K J J   4.4.4.4.4.4.4.4.4.4.4.",
"4.4.4.4.4.4.  >.-.I K J c c c c x x c x M Q Q Q Q Q Q Q Q B x x x x x x x x x x c V W ! ! ! /  .o.K K J J   4.4.4.4.4.4.4.4.4.4.",
"4.4.4.4.4.  :.;.` J J c c c x x x x x x B B m m m S F F F F S A j k j h x x x x x x x c N W ! ! ! J J K J _   4.4.4.4.4.4.4.4.4.",
"4.4.4.4.  :.;.*.K J c c c x x x x l 4 A D D i Y T p p s q s i i i w q 6 3 3 j h v v x x x c c c c c J J J (  .  4.4.4.4.4.4.4.4.",
"4.4.4.  :.;.*.) J c c c x x x < O 5 i i i 8 i i i i i i $ i i i i i i i q e 0 3 O k m v x x x c c c c c J L  . .  4.4.4.4.4.4.4.",
"4.4.4.  :.=...J c c x x x # : i i i i i u @ q i i y 8 7 o X 9 i i i i i * i i i q : O A v x x x c c c c c J J _ X.  4.4.4.4.4.4.",
"4.4.  :.=.` J c c x x O : i s s & 9 i i u o   o $ $ $ $ $ . $ 1 7 q u 8 X i i i i i i 1 O l x x x c c c c c J J ( X.  4.4.4.4.4.",
"4.4.  O.I K c c c x O r s s s i $   * * & $ $ o @ $ $ $ $ $ o $ $ $ @ X $ * 9 u i 7 u i 9 X O x x x c c c c c J J P o.  4.4.4.4.",
"4.  ] I P J c c x $ 8 s $ * 9 7 * $ X @ $ $ $                       o @ $ $ $ $ o o u       &   f x x c c c c c J K ) o.  4.4.4.",
"4.  ] I K c c c O 1 s s t $ $ % $ & & $       q.e.t.y.y.y.y.y.e.e.e.        @ X X $   l.l.h.  >   - c x c c c c c J K P   4.4.4.",
"4.  I I J c c z   i s a u t     X       8.u.  s.d.d.d.y.d.d.a.a.p.u.      e.    $   l.l.l.h.  s * O , x x x x c c c J K K   4.4.",
"4.  I P J c c X 9 8 u a u 9 &     l.l.l.  y.s.  f.  f.y.f.f.f.f.d.  l.l.l.        l.h.h.h.  7 i i 5   # ! Q E B c c c J P   4.4.",
"4.  I P J c c   u u $ $ * 1   l.9.    9.l.  y.s.    f.y.f.f.f.f.f.  l.l.l.l.l.l.l.h.      $ * i s i q O g ! ! Q Q W c J K J   4.",
"4.  I P J c z   a i u 9 X   l.l.        l.h.  s.f.  f.y.f.f.f.f.  l.l.9.      9.h.  8.  $ $ @ 9 a s i 1   b ! ! Q ! W c J K   4.",
"4.  I I J c z   i i i a y   l.l.        l.h.  s.f.f.f.s.f.f.f.  l.l.l.          l.h.  8.  $ o     @ R R # # ! / ! Q ! V J K   4.",
"4.4.  I J c c   t 9 y y 9 9   l.9.    9.l.h.  s.f.f.f.f.f.f.f.  l.l.l.          l.h.  8.8.  & * u s s R Y . b  .! Q ! ! J K   4.",
"4.4.  I K J N O X t 7 9 $     l.l.l.l.l.h.h.  s.        f.f.f.  l.l.l.9.      9.l.h.  8.8.  * 5 y s s R s X =  .! ! Q ! J K   4.",
"4.4.  +.o. .! n   7 u 9 u   y.  l.l.l.h.    s.s.  l.l.  f.f.f.s.    l.l.l.l.l.l.h.  y.e.8.8.  8 o * 8 R s @ +  ./ ! Q ! L K   4.",
"4.4.4.  =. .! ! ;   q y i   s.  h.h.h.  s.s.s.f.  d d   f.f.f.s.y.y.  l.l.l.h.h.h.  y.y.8.8.  u 8 o $ % $   ,  ./ ! Q ! J K   4.",
"4.4.4.  ;.o.! ! ! 2   9   f.f.y.      s.s.s.f.f.  d d   f.f.f.f.s.s.  h.h.h.      y.s.s.e.8.  a u s s a y   E  ./ ! Q W J P   4.",
"4.4.4.4.  *. .! ! ! =     f.f.s.y.y.y.s.f.f.f.f.  d d   f.f.f.f.f.f.y.      y.y.y.s.s.a.r.8.8.  y $ 9 s X #  . ./ ! W N J   4.4.",
"4.4.4.4.4.   .! Q ~ J % d.f.f.f.s.s.s.f.f.f.f.f.  d d   f.f.f.f.f.f.s.y.y.y.s.s.s.d.d.s.u.q.8.  u $ * X   W  . .! W c c K   4.4.",
"4.4.4.4.4.4.    W G   s.d.d.d.f.f.f.f.f.f.f.f.f.        f.f.f.f.f.f.f.s.s.s.d.d.d.d.d.s.u.e.8.  7 *     x Z J N c c c J K   4.4.",
"4.4.4.4.4.4.4.4.  J   s.d.d.d.f.f.f.f.f.f.f.f.f.  y.y.  f.f.f.f.f.f.f.d.d.d.d.d.d.d.d.d.p.u.0.8.      v C c c c c c c J   4.4.4.",
"4.4.4.4.4.4.4.4.4.  a.d.d.d.f.f.f.f.f.f.f.f.f.f.  s.s.s.f.f.f.f.f.f.f.f.d.d.d.d.d.d.d.d.a.u.e.8.    c c M V V N N N L   4.4.4.4.",
"4.4.4.4.4.4.4.4.4.  s.d.d.d.f.f.f.f.f.f.f.f.f.f.y.f.f.s.f.f.f.f.f.d.f.f.f.d.d.d.d.d.d.d.s.u.e.8.  J c ! ! ! ! ! ! X.  4.4.4.4.4.",
"4.4.4.4.4.4.4.4.  u.s.d.d.f.f.f.f.f.f.f.f.f.f.f.s.f.f.f.f.f.f.f.f.f.f.d.f.d.d.d.d.d.d.d.s.u.y.8.8.  c ! ! ! ! /     4.4.4.4.4.4.",
"4.4.4.4.4.4.4.4.  s.s.d.d.f.f.f.f.f.f.f.f.f.f.f.f.f.f.f.f.f.f.f.f.f.f.f.f.f.d.d.d.d.d.d.s.u.u.0.8.  J ~ ^       4.4.4.4.4.4.4.4.",
"4.4.4.4.4.4.4.  u.s.d.d.f.f.f.f.f.f.f.f.f.f.f.f.f.f.f.f.f.f.f.f.f.f.f.f.f.d.d.d.d.d.d.d.s.u.y.0.8.8.      4.4.4.4.4.4.4.4.4.4.4.",
"4.4.4.4.4.4.4.  s.d.d.d.f.f.f.f.f.f.f.f.f.f.f.f.f.f.f.f.f.f.f.f.f.f.f.f.f.d.d.d.d.d.d.d.s.u.y.0.8.8.  4.4.4.4.4.4.4.4.4.4.4.4.4.",
"4.4.4.4.4.4.4.  s.d.d.d.f.f.g.j.f.f.f.f.f.f.f.f.f.f.f.f.f.f.f.f.f.f.f.f.f.d.d.d.d.d.d.d.s.a.y.0.8.8.8.  4.4.4.4.4.4.4.4.4.4.4.4.",
"4.4.4.4.4.4.4.  s.d.d.d.f.f.k.j.f.f.f.f.f.f.f.f.f.f.f.f.f.f.f.f.f.f.f.f.d.d.d.d.d.d.d.d.s.a.y.0.8.8.8.  4.4.4.4.4.4.4.4.4.4.4.4.",
"4.4.4.4.4.4.4.  s.d.d.d.f.f.k.k.f.f.f.f.f.f.f.f.f.f.f.f.f.f.f.f.f.f.f.f.d.d.d.d.d.d.d.s.s.a.y.w.8.8.8.  4.4.4.4.4.4.4.4.4.4.4.4.",
"4.4.4.4.4.4.  s.s.d.d.d.f.f.k.k.j.f.f.f.f.f.f.f.f.f.f.f.f.f.f.f.f.f.f.f.d.d.d.d.d.d.d.s.s.u.y.e.8.8.8.8.  4.4.4.4.4.4.4.4.4.4.4.",
"4.4.4.4.4.4.  s.s.d.d.d.f.f.j.k.f.f.f.f.f.f.f.f.f.f.f.f.f.f.f.f.f.f.f.d.d.d.d.d.d.d.s.s.a.u.e.0.8.8.8.8.  4.4.4.4.4.4.4.4.4.4.4.",
"4.4.4.4.4.4.  s.s.d.d.d.f.f.f.k.j.f.f.f.f.f.f.f.f.f.f.f.f.f.f.f.f.f.d.d.d.d.d.d.d.d.s.s.a.u.e.0.8.8.8.0.  4.4.4.4.4.4.4.4.4.4.4.",
"4.4.4.4.4.4.  s.s.s.d.d.d.d.f.f.g.f.f.f.f.f.f.f.f.f.f.f.f.f.f.f.f.d.d.d.d.d.d.d.d.s.s.a.u.y.e.0.8.8.0.0.  4.4.4.4.4.4.4.4.4.4.4.",
"4.4.4.4.4.4.  s.s.s.d.d.d.d.f.f.f.j.f.f.f.f.f.f.f.f.f.f.f.f.f.f.f.f.d.d.d.d.d.d.s.s.a.u.u.e.e.8.8.8.0.0.  4.4.4.4.4.4.4.4.4.4.4.",
"4.4.4.4.4.4.  s.s.s.d.d.d.d.d.f.f.f.f.f.f.f.f.f.f.f.f.f.f.f.f.f.f.d.d.d.d.d.d.s.s.s.u.u.y.e.q.8.8.8.0.q.  4.4.4.4.4.4.4.4.4.4.4.",
"4.4.4.4.4.4.  a.s.s.d.d.d.d.d.f.f.f.f.f.f.f.j.j.f.f.f.f.f.f.f.f.d.d.d.d.d.s.s.s.a.u.u.u.e.e.0.8.8.8.0.q.  4.4.4.4.4.4.4.4.4.4.4.",
"4.4.4.4.4.4.  a.s.s.d.d.d.d.d.d.f.f.f.f.f.f.f.f.f.f.f.f.f.f.f.d.d.d.d.d.d.s.s.s.p.u.u.y.e.q.8.8.8.8.0.e.  4.4.4.4.4.4.4.4.4.4.4.",
"4.4.4.4.4.4.  u.a.s.s.d.d.d.d.d.d.f.f.f.f.f.f.f.f.f.f.f.f.d.d.d.d.d.d.d.s.s.a.u.u.u.y.e.e.8.8.8.8.8.q.e.  4.4.4.4.4.4.4.4.4.4.4.",
"4.4.4.4.4.4.4.  u.a.s.s.d.d.d.d.d.d.d.d.d.d.f.f.d.d.d.d.d.d.d.d.d.d.d.s.s.a.u.u.y.r.e.e.0.8.7.6.8.0.e.  4.4.4.4.4.4.4.4.4.4.4.4.",
"4.4.4.4.4.4.4.  u.p.a.s.d.s.s.d.d.d.d.d.d.d.d.d.d.d.d.d.d.d.d.d.d.s.s.a.u.u.u.y.r.e.e.8.8.6.6.6.8.q.e.  4.4.4.4.4.4.4.4.4.4.4.4.",
"4.4.4.4.4.4.4.  y.u.p.s.s.s.s.s.s.s.s.d.d.d.d.d.d.d.d.d.d.d.s.s.s.a.u.u.u.y.r.r.e.e.0.8.6.5.6.8.0.e.e.  4.4.4.4.4.4.4.4.4.4.4.4.",
"4.4.4.4.4.4.4.4.  y.u.u.a.s.s.s.s.a.s.s.s.s.s.s.s.s.s.s.s.s.s.a.u.u.y.y.r.e.e.e.q.8.8.6.5.5.6.8.e.e.  4.4.4.4.4.4.4.4.4.4.4.4.4.",
"4.4.4.4.4.4.4.4.4.  r.u.u.a.a.a.a.i.u.p.p.p.p.a.a.a.a.a.a.u.u.u.y.y.r.e.e.e.e.0.8.8.6.5.6.6.8.q.e.e.  4.4.4.4.4.4.4.4.4.4.4.4.4.",
"4.4.4.4.4.4.4.4.4.  e.e.y.u.a.p.u.u.u.u.u.u.u.u.u.u.u.u.u.y.y.r.r.e.e.e.e.q.0.8.7.6.5.6.7.8.e.e.e.  4.4.4.4.4.4.4.4.4.4.4.4.4.4.",
"4.4.4.4.4.4.4.4.4.4.  e.e.y.u.u.u.u.y.r.r.r.y.y.y.y.y.r.r.e.e.e.e.e.e.e.0.8.8.6.5.5.6.7.8.q.e.r.  4.4.4.4.4.4.4.4.4.4.4.4.4.4.4.",
"4.4.4.4.4.4.4.4.4.4.4.  e.e.r.y.y.y.y.e.e.e.e.e.e.e.e.e.e.e.e.e.e.q.0.0.8.8.6.6.6.6.7.8.e.e.e.  4.4.4.4.4.4.4.4.4.4.4.4.4.4.4.4.",
"4.4.4.4.4.4.4.4.4.4.4.4.  e.e.e.r.r.r.e.e.e.e.e.e.e.e.e.q.q.0.0.0.8.8.8.8.7.6.6.7.8.q.e.r.e.  4.4.4.4.4.4.4.4.4.4.4.4.4.4.4.4.4.",
"4.4.4.4.4.4.4.4.4.4.4.4.4.  e.e.e.e.e.e.e.e.e.e.q.q.q.0.0.0.0.8.8.8.8.8.8.8.8.8.0.e.e.e.    4.4.4.4.4.4.4.4.4.4.4.4.4.4.4.4.4.4.",
"4.4.4.4.4.4.4.4.4.4.4.4.4.4.    e.e.e.e.e.e.e.q.q.0.0.0.0.8.8.8.8.8.8.8.8.8.0.e.e.r.    4.4.4.4.4.4.4.4.4.4.4.4.4.4.4.4.4.4.4.4.",
"4.4.4.4.4.4.4.4.4.4.4.4.4.4.4.4.      q.e.e.e.q.0.0.0.0.0.0.8.8.8.8.8.0.q.e.e.r.    4.4.4.4.4.4.4.4.4.4.4.4.4.4.4.4.4.4.4.4.4.4.",
"4.4.4.4.4.4.4.4.4.4.4.4.4.4.4.4.4.4.4.        e.e.e.e.e.q.e.e.e.e.e.e.e.r.      4.4.4.4.4.4.4.4.4.4.4.4.4.4.4.4.4.4.4.4.4.4.4.4.",
"4.4.4.4.4.4.4.4.4.4.4.4.4.4.4.4.4.4.4.4.4.4.4.                            4.4.4.4.4.4.4.4.4.4.4.4.4.4.4.4.4.4.4.4.4.4.4.4.4.4.4."
};
