/* XPM */
static char *result[] = {
/* columns rows colors chars-per-pixel */
"64 64 83 1 ",
"  c black",
". c #010000",
"X c #010100",
"o c #010001",
"O c #010101",
"+ c #CC6600",
"@ c #DC6600",
"# c #DD6600",
"$ c #CC7700",
"% c #DC7700",
"& c #DD7700",
"* c #ED7700",
"= c #EE7700",
"- c #CC8800",
"; c #DD8800",
": c #CC9900",
"> c #DC9800",
", c #DD9900",
"< c #ED8700",
"1 c #EE8800",
"2 c #FE8700",
"3 c #FF8800",
"4 c #ED9800",
"5 c #EE9900",
"6 c #FF9900",
"7 c #FF8811",
"8 c #FF9911",
"9 c #CCAA00",
"0 c #DDAA00",
"q c #CBBA00",
"w c #CCBB00",
"e c #DDBB00",
"r c #EDA900",
"t c #EEAA00",
"y c #EDBA00",
"u c #EEBB00",
"i c #FFBB00",
"p c #FFBB11",
"a c #FF9922",
"s c #FF9933",
"d c #FFAA33",
"f c #CBCB00",
"g c #CCCC00",
"h c #DCCB00",
"j c #DDCC00",
"k c #DDDD00",
"l c #EECC00",
"z c #FFCC00",
"x c #EDDC00",
"c c #EEDD00",
"v c #FEDC00",
"b c #FFDD00",
"n c #FFCC11",
"m c #FFDD11",
"M c #EDED00",
"N c #EEEE00",
"B c #FEED00",
"V c #FFEE00",
"C c #FFEE11",
"Z c #A99877",
"A c #AA9977",
"S c #A9A977",
"D c #AAAA77",
"F c #FFAA44",
"G c #FFFFFFFF",
"H c #A99887",
"J c #AA9988",
"K c #A9A987",
"L c #AAAA88",
"P c #BAA987",
"I c #BBAA88",
"U c #BAA998",
"Y c #BBAA99",
"T c #BABA98",
"R c #BBBB99",
"E c #CCBB99",
"W c #CCBBAA",
"Q c #CBCBA9",
"! c #CCCCAA",
"~ c #CCCCBB",
"^ c #DDCCBB",
"/ c #DDDDBB",
"( c #DDDDCC",
/* pixels */
"GGGGGGGGGGGGGGGGGGGGGGGGGGGGGGGGGGGGGGGGGGGGGGGGGGGGGGGGGGGGGGGG",
"GGGGGGGGGGGGGGGGGGGGGGGGGGGGGGGGGGGGGGGGGGGGGGGGGGGGGGGGGGGGGGGG",
"GGGGGGGGGGGGGGGGGGGGGGGGGGGGGGGGGGGGGGGGGGGGGGGGGGGGGGGGGGGGGGGG",
"GGGGGGGGGGGGGGGGGGGGGGGGGGGGGGGGGGGGGGGGGGGGGGGGGGGGGGGGGGGGGGGG",
"GGGGGGGGGGGGGGGGGGGGGGGGGGGGGGGGGGGGGGGGGGGGGGGGGGGGGGGGGGGGGGGG",
"GGGGGGGGGGGGGGGGGGGGGGGGGGGGGGGGGGGGGGGGGGGGGGGGGGGGGGGGGGGGGGGG",
"GGGGGGGGGGGGGGGGGGGGGGGGGGGGGGGGGGGGGGGGGGGGGGGGGGGGGGGGGGGGGGGG",
"GGGGGGGGGGGGGGGGGGGGGGGGGGGGGGGGGGGGGGGGGGGGGGGGGGGGGGGGGGGGGGGG",
"GGGGGGGGGGGGGGGGGGGGGGGGGGGGGGGGGGGGGGGGGGGGGGGGGGGGGGGGGGGGGGGG",
"GGGGGGGGGGGGGGGGGGGGGGGGGGGGGGGGGGGGGGGGGGGGGGGGGGGGGGGGGGGGGGGG",
"GGGGGGGGGGGGGGGGGGGGGGGGGGGGGGGGGGGGGGGGGGGGGGGGGGGGGGGGGGGGGGGG",
"GGGGGGGGGGGGGGGGGGGGGGGGGGGGGGGGGGGGGGGGGGGGGGGGGGGGGGGGGGGGGGGG",
"GGGGGGGGGGGGGGGGGGGGGGGGGG          GGGGGGGGGGGGGGGGGGGGGGGGGGGG",
"GGGGGGGGGGGGGGGGGGGGGGGooor****%%>fqoooGGGGGGGGGGGGGGGGGGGGGGGGG",
"GGGGGGGGGGGGGGGGGGGGGooMx4=======5jeqqqooGGGGGGGGGGGGGGGGGGGGGGG",
"GGGGGGGGGGGGGGGGGGGGoBMNt131=======&;wwqfoGGGGGGGGGGGGGGGGGGGGGG",
"GGGGGGGGGGGGGGGGGGGoMNNi3333331=====&&wwwhooGGGGGGGGGGGGGGGGGGGG",
"GGGGGGGGGGGGGGGGGGoyNVi333333331=====&;wwg42ooGGGGGGGGGGGGGGGGGG",
"GGGGGGGGGGGGGGGGGo*=53377777333331====&0ww,=*2ooGGGGGGGGGGGGGGGG",
"GGGGGGGGGGGGGGGGo*=1378888888733331====;ww:&==<2ooGGGGGGGGGGGGGG",
"GGGGGGGGGGGGGGoo*=178888a88888733331===&jw-+#&==22ooGGGGGGGGGGGG",
"GGGGGGGGGGGGoo**=17888addaaa88733333===&0w$++##&=3vBooGGGGGGGGGG",
"GGGGGGGGGGGoMx=113888dFFFdaa887333331==&&#+++++#&=zz<%oGGGGGGGGG",
"GGGGGGGGGGoMNc111788aFFFFFda887333333===&#++++++##=13=%oGGGGGGGG",
"GGGGGGGGGoBVVn311788aFFFFFda887333333===&##+++++###=1=#@oGGGGGGG",
"GGGGGGGGo28pp333378aadFFddaa887333331===&##++++++###&=&+%oGGGGGG",
"GGGGGGGo27787333378aaaadaaa888733333====&##+++++++###&=#+ GGGGGG",
"GGGGGGo2788733311788aaaa88888773333151==&&#####+$++###&#+%oGGGGG",
"GGGGGo27888331==1pp88aa888887773331lcc5=&&####&www-+##&#+# GGGGG",
"GGGGG 3888731==1cVCn88888877773311tcccu=&####&,wwgw-+###+#*oGGGG",
"GGGGo<788831==5cNNVm777777773331=tccccl&&###&;0wwwww+##+++= GGGG",
"GGGG 178873=5lNNNNNb377777333315lccccct&&##&&&wwwwww:+#+++= GGGG",
"GGGo*38aa71lNNNNNNcl11113331==1ccccccc1&####&&wwwwww:+#+++&*oGGG",
"GGG =18aa7tNNcNNNccu===========cccccct&&###&&$wwwwww:+++++&= GGG",
"GGG =3ada3lNNNccccct===========uccclt&&####&$:wwwwgw-++++:;= GGG",
"GGox17ads3NNNcccccc1===========&;11=&&####+++9wwwjjw++++-wj5 GGG",
"GG Nu7ads3NNccccccl===&&&=&&&&&&&=&&&####++++wwwjjj9+++++wkc GGG",
"GG Nc7ads3NNcccccc5==&&&&&&&&&&&&&&#####++++$wwjjjj&+++++:kN GGG",
"GG cc7add7zNcccccu==&&&&&&&&&&&&&#####+++++++:jjjj,#+++++$cXGGGG",
"GG cc78dd76cccccl==&&&&&&&&&&&#######++++++++#;0e,##++++++c GGGG",
"GG cc38as835ccct===&&&&&&&&#&;;#####++++++++########++++++l GGGG",
"GG cl17asa3=======&&&&&&&##&ejj0&#++++++++#########++++++#l GGGG",
"GGGX5=78aa7======&&&&&&####ejjjgww:+++++##########+++++++=XGGGGG",
"GGG 1=178871=====&&&&&###+-wwwwwwww-++############+++++++= GGGGG",
"GGG ===77773=====&&&&###++:wwwwwwww9##############++++++&1 GGGGG",
"GGGG.==177771====&&&&###++wgwwwwwwg0#########&#####+++++=XGGGGGG",
"GGGG ===17777====&&&&###++9gggggjjj&##############+++++&1 GGGGGG",
"GGGGG.===17pCz1===&&&&####-gggjjje;########&######++++#=X GGGGGG",
"GGGGG ====5CCCm5===&&&#####&,000;&#######&&######++++#=1 QoGGGGG",
"GGGGGG.&==tNCCCCu1==&&&&&&#############&&&&#####+++$#=1XTW GGGGG",
"GGGGGGG.&=5ccNCCCcu5==&&&&&&&&&&&&&#&&&&&#######$9wjt1XKIRQoGGGG",
"GGGGGGGG.&&cccNNVNNclt===&&&&&&&&&&&&&&########$wwjccXZAIR! GGGG",
"GGGGGGGGG.&0kccccNNNcc1========&&&&&#########+:wgjcNXZAALRE GGGG",
"GGGGGGGGGG.&,jccccccNc11111===&&&###########-wgjkcNXZAAALRE GGGG",
"GGGGGGGGGGG.X&0kkkccl1========&&&#########,wwjjcNXXZAAAAIRR GGGG",
"GGGGGGGGGGG T.X&,00;&&&&&&&&&&&&########-wwjkcNXXZZALAALIROGGGGG",
"GGGGGGGGGGG !TP.X&#################++++9jkcNNXXHHLLLDADLIR GGGGG",
"GGGGGGGGGGG (!RUP..+++++++++++++#####&5cNNVXXKKLLLILAALIRE GGGGG",
"GGGGGGGGGGGGO(~RRPP.....+++#&&=======1tXXXXKKLLLIYRAALIIROGGGGGG",
"GGGGGGGGGGGG ((/WRRUPKKZ.............XXKKKKLLLLRWELAALIROGGGGGGG",
"GGGGGGGGGGGGGO((/!RRRYILKKSZZZZZZHHKKKKLLLLLIR!~WLAALIEOGGGGGGGG",
"GGGGGGGGGGGGGGOO/(/!RRRYLLLLLAAAAJLLLLLLIRW~/(^RLAALROOGGGGGGGGG",
"GGGGGGGGGGGGGGGGOOOEWWWRILLLILAAALLLLYRW!^/^^WILAAXOOGGGGGGGGGGG",
"GGGGGGGGGGGGGGGGGGGOOOOOOOOOOOXXXOOOOOOOOOOOOOOOXXGGGGGGGGGGGGGG"
};
