/* XPM */
static char *result[] = {
/* columns rows colors chars-per-pixel */
"64 66 139 2 ",
"   c #FFFFFFFF",
".  c black",
"X  c #FF8800",
"o  c #FF9900",
"O  c #FF9911",
"+  c #FFAA22",
"@  c #FFBB22",
"#  c #FF9922",
"$  c #FFEE22",
"%  c #FFFF33",
"&  c #EE7700",
"*  c #FFBB00",
"=  c #FFCC00",
"-  c #FFCC22",
";  c #FFFF22",
":  c #DD6600",
">  c #DD7700",
",  c #EE9900",
"<  c #FFDD00",
"1  c #FFEE00",
"2  c #FFDD22",
"3  c #CC6600",
"4  c #EEAA00",
"5  c #FF7700",
"6  c #EE8800",
"7  c #FF8811",
"8  c #EEDD00",
"9  c #EECC00",
"0  c #DDBB00",
"q  c #DDCC00",
"w  c #CCBB00",
"e  c #CCAA00",
"r  c #BB5500",
"t  c #BB6600",
"y  c #BB7700",
"u  c #CC5500",
"i  c #CC7700",
"p  c #BB9900",
"a  c #FFBB11",
"s  c #AA5500",
"d  c #AA8800",
"f  c #AA9900",
"g  c #BBAA00",
"h  c #BB8800",
"j  c #AA7700",
"k  c #AA6600",
"l  c #CC9900",
"z  c #995500",
"x  c #884411",
"c  c #885511",
"v  c #885522",
"b  c #996622",
"n  c #996633",
"m  c #996611",
"M  c #DD9900",
"N  c #CC8800",
"B  c #AA5511",
"V  c #664411",
"C  c #554422",
"Z  c #665533",
"A  c #775533",
"S  c #776644",
"D  c #777755",
"F  c #777744",
"G  c #887744",
"H  c #886644",
"J  c #886633",
"K  c #774411",
"L  c #995511",
"P  c #221100",
"I  c #664422",
"U  c #666633",
"Y  c #222211",
"T  c #554433",
"R  c #444422",
"E  c #663311",
"W  c #DD8800",
"Q  c #443311",
"!  c #333322",
"~  c #555533",
"^  c #111100",
"/  c #111111",
"(  c #444433",
")  c #665544",
"_  c #221111",
"`  c #666644",
"'  c #332200",
"]  c #DDAA00",
"[  c #443322",
"{  c #110000",
"}  c #332222",
"|  c #776633",
" . c #994400",
".. c #552200",
"X. c #553311",
"o. c #CCEEFF",
"O. c white",
"+. c #CCCCAA",
"@. c #DDCCBB",
"#. c #CCCCBB",
"$. c #CCBBAA",
"%. c #222222",
"&. c #555544",
"*. c #663300",
"=. c #DDDDBB",
"-. c #DDDDCC",
";. c #EEDDCC",
":. c #EEEEDD",
">. c #EEEECC",
",. c #BBBB99",
"<. c #776655",
"1. c #AA4400",
"2. c #FFEEDD",
"3. c #885500",
"4. c #BBBBBB",
"5. c #886600",
"6. c #887755",
"7. c #442200",
"8. c #331100",
"9. c #997700",
"0. c #EEBB00",
"q. c #CC0000",
"w. c #443300",
"e. c #554400",
"r. c #DDCCAA",
"t. c #BB8811",
"y. c #BB7711",
"u. c #BB7733",
"i. c #AA6611",
"p. c #CCBB99",
"a. c #BB9911",
"s. c #FFEEEE",
"d. c #FFFFDD",
"f. c #FFFFEE",
"g. c #CCCC99",
"h. c #BBAA88",
"j. c #BBAA99",
"k. c #AAAA88",
"l. c #EEDDBB",
/* pixels */
"                                                                                                                                ",
"                                                    . . . . . . . . . .                                                         ",
"                                              . . . X X X X X o O O + @ . . . . .                                               ",
"                                        . . . X X X X X X X X X X O O # + @ $ % % . . .                                         ",
"                                    . . & & o * = * o X X X X X X X X O O O + - ; ; ; % . .                                     ",
"                                . . : > , = < 1 1 1 1 < o X X X X X X X X O O # + - 2 $ ; ; . .                                 ",
"                              . 3 : > 4 < 1 1 1 1 1 1 < < X 5 & & & & & & & 6 X X 7 O O O # + @ . . .                           ",
"                            . 3 3 : 4 8 < < < < < < 8 9 , > : : : : : : : : : > > > & & 6 X O O + + + . .                       ",
"                          . 3 3 > 0 8 < 8 8 9 q 0 w e 3 r r r r r r r r r t y y y r u 3 3 : > & X O O # # . .                   ",
"                        . 3 3 i q 8 8 9 0 w e p p p t r r r r r r r r r y p p p p p t r r r r 3 3 > 6 X o O a .                 ",
"                      . 3 3 : 0 9 q w e p p p p y r r r r r s s s s s d f f f f p p p t r r r r r r 3 : & 6 o 1 .               ",
"                    . 3 3 : : 0 e g p p p h y r s s s s s s s s s s j f f f f f f f f k s r s s r r r r 3 : & = 1 .             ",
"                  . l 3 : 3 3 p p p h t r s s s s s s s z x c x v b n n n n b m m m j j s s s s s s r r r 3 3 M 8 < .           ",
"                . e N 3 3 3 r r r r r s s s B B z x V V C Z A S S S D Z D F F G H S J J v K L s s s s r r r 3 : q 8 < .         ",
"              . e e i 3 r r r r r s s s B m c P V I U Z S S S S S S S Y S S S S S S T S S S R P E s s s r r r 3 W q 8 < .       ",
"            . w l 3 3 r r r r r s s s B v P Q Z S S S ! S S S S S ~ ^ / ( T ) S S Z _ ` S S S S S Q ' s s s r r 3 ] 9 < .       ",
"          . w N 3 3 r r r r r s s s L P [ S S S S S S ^ T ` Z ( [ Y { Y Y Y Y Y / . / ` S S ~ } D D S Q P s s r r 3 M 9 < .     ",
"        . 0 > 3 3 r r r r r s s s P ^ ~ S ` ( S ` ~ ! Y ^ _ Y Y Y / Y Y Y Y Y _ / Y Y } ! ! . Y S D D D | P s r r r : & 4 .     ",
"      . 0 W : 3 r r r r r s s  .. } . . . ` / / Y Y Y Y _ / . . . . . . . . . . . Y Y Y _ ^ Y ! ( ~ ! Y D T Y s r r 3 > & X .   ",
"      . > : 3 r r r r r s r ... X.. o.O.O.. Y ^ ^ _ . . . . +.+.+.@.@.@.@.@.#.+.$.. . . Y } } Y %.Y Y &.D D [ P r r r : & X .   ",
"    . : : 3 r r r s s s s *.P ! D . o.O.O.O.. Y . . +.. . . =.-.;.;.:.:.@.:.:.:.>.. =.,.. . . ^ . . &.` <.D S . 1.r r 3 & & .   ",
"    . > 3 r r r j d f p ' . R S S ( . o.o.o.O.. . . . O.O.O.. :.2.2.2.2.@.2.. 2.. >.@.. O.O.O.. . } ~ ` <.` T ~ ^ r r 3 > & .   ",
"  . 3 : 3 r h f f p p 3.P Z S D S ! Y . . . o.O.O.O.O.O.O.O.. 2.2.2.2.2.@.2.. . >.@.. O.4.. . 4.O.. [ ! Y Y ` ` . r r 3 > & .   ",
"  . : 3 r h p f p p 5.. [ S D <.~ _ Y Y . ,.. o.4.. . . 4.O.O.. 2.2.2.2.@.2.. 2.>.. o.O.. . . . O.O.. ^ ~ ` S <.. 1.r 3 > & .   ",
"  . : 3 y p f p g p ' ' 6.6._ . . / Y . ,.. o.O.. . . . . O.O.O.. 2.2.2.>.2.2.2.>.. o.O.. . . . O.O.. ) <.S S S . 1.r 3 & & .   ",
"  . : 3 p p f p e 5.{ H 6.D D ` ! } . ,.,.. o.O.. . . . . O.O.O.. 2.2.2.2.2.2.2.>.. o.O.4.. . 4.O.. ~ ~ ) ) ~ &.. r r 3 & .     ",
"  . : 3 p f p p e 7.^ D 6.D D ) R ! . ,.,.. o.O.4.. . . 4.O.O.O.. 2.2.2.. . . . >.. o.o.O.O.O.O.O.. . Y ~ ( &.^ P t 3 : & .     ",
"  . : i p f p g e 8._ D 6.T ! / T . ,.,.+.@.. o.O.O.O.O.O.O.. . >.2.2.2.. O.O.. >.>.. . o.O.O.O.. @.. ` ~ ` ( . 9.p e 0 0..     ",
"  . : 3 p f p g e *.. Y %.Y / T ` . ,.,.@.@.. o.o.o.O.O.O.. @.@.>.2.2.2.. q.q.. 2.>.>.>.. o.o.o.. >.. S ) Z . w.p p e 9 .       ",
"  . > 3 h f p g e d . ) <.D D ` <.. ,.+.>.>.@.. . . o.o.o.. >.>.2.2.2.2.. q.q.. 2.2.>.>.>.. . . @.2.2.. ~ . e.p p p 0 8 .       ",
"    . 3 t h p g e e ' ^ D ~ Y ) . ,.,.r.;.>.>.@.@.@.. . . @.2.2.2.2.2.2.. q.q.. 2.2.2.2.>.@.@.@.>.2.2.. . 7.p p p e q .         ",
"    . : r r h p e e h . ^ ! Y ` . ,.$.=.>.:.:.>.>.>.@.@.@.>.2.2.2.2.2.2.. q.q.. 2.2.2.2.2.>.>.>.2.2.2.:.%.3 t.f p e .           ",
"    . : 3 r r r t 3 y.s . . ! ( . ,.+.=.>.:.:.:.:.:.>.>.>.2.2.2.2.2.2.2.. . . . 2.2.2.2.2.2.2.2.2.:.:.:.>.. u.h . .             ",
"      . 3 r r r r r r i.B . . . ,.p.=.-.:.:.:.:.:.:.:.:.:.2.2.2.2.2.2.2.. @.@.. 2.2.2.2.2.2.2.2.2.:.:.:.>.. 3 .                 ",
"        . i t t t y y k r r . . ,.+.=.;.:.:.:.:.:.:.:.:.2.2.2.2.2.2.2.2.>.>.>.. 2.2.2.2.2.2.2.2.2.2.:.:.:.;..                   ",
"          . w p p p p p p r 3 . ,.+.=.>.:.:.:.:.:.:.:.2.2.2.:.2.2.2.2.2.>.2.2.@.2.2.2.2.2.2.2.2.2.2.:.:.:.>..                   ",
"            . . g p p p p r . ,.,.@.=.>.:.:.:.:.:.:.:.2.:.2.2.2.2.2.2.2.2.2.2.>.2.2.2.2.2.2.2.2.2.2.2.:.:.>.=..                 ",
"                . . . a.t.3 . ,.p.=.=.>.:.:.:.:.:.:.2.2.2.2.2.2.2.2.2.2.2.2.2.2.2.2.2.2.2.2.2.2.2.2.2.:.:.>.>..                 ",
"                      . . . ,.,.p.@.=.>.:.:.:.:.:.:.:.2.2.2.2.2.2.2.2.2.2.2.2.2.2.2.2.2.2.2.2.2.2.2.2.2.:.:.>.=..               ",
"                          . ,.,.p.@.=.>.:.:.:.:.:.:.:.2.2.2.2.2.2.2.2.2.2.2.2.2.2.2.2.2.2.2.2.2.2.2.2.2.:.:.:.>..               ",
"                        . ,.,.,.p.@.;.>.:.:.:.:.:.:.:.2.2.2.2.2.2.2.2.2.2.2.2.2.2.2.2.2.2.2.2.2.s.d.2.2.:.:.:.>..               ",
"                        . ,.,.,.p.@.;.>.:.:.:.:.:.:.:.:.2.2.2.2.2.2.2.2.2.2.2.2.2.2.2.2.2.2.2.2.s.f.2.2.:.:.:.>..               ",
"                        . ,.,.,.g.@.;.>.>.:.:.:.:.:.:.:.2.2.2.2.2.2.2.2.2.2.2.2.2.2.2.2.2.2.2.2.f.f.2.2.:.:.:.>..               ",
"                      . ,.,.,.,.+.@.=.>.>.:.:.:.:.:.:.:.2.2.2.2.2.2.2.2.2.2.2.2.2.2.2.2.2.2.2.s.f.f.2.2.:.:.:.>.>..             ",
"                      . ,.,.,.,.p.+.=.;.>.>.:.:.:.:.:.:.:.2.2.2.2.2.2.2.2.2.2.2.2.2.2.2.2.2.2.2.f.s.2.2.:.:.:.>.>..             ",
"                      . p.,.,.,.p.+.=.;.>.>.:.:.:.:.:.:.:.:.2.2.2.2.2.2.2.2.2.2.2.2.2.2.2.2.2.s.f.2.2.2.:.:.:.>.>..             ",
"                      . p.p.,.,.p.+.@.=.;.>.>.:.:.:.:.:.:.:.:.2.2.2.2.2.2.2.2.2.2.2.2.2.2.2.2.d.2.2.:.:.:.:.>.>.>..             ",
"                      . p.p.,.,.,.+.+.=.=.;.>.>.:.:.:.:.:.:.2.2.2.2.2.2.2.2.2.2.2.2.2.2.2.2.s.2.2.2.:.:.:.:.>.>.>..             ",
"                      . $.p.,.,.,.$.+.@.=.=.>.>.>.:.:.:.:.:.:.2.2.2.2.2.2.2.2.2.2.2.2.2.2.2.2.2.2.:.:.:.:.:.>.>.>..             ",
"                      . $.p.,.,.,.p.+.+.=.=.=.;.>.>.>.:.:.:.:.:.2.2.2.2.2.2.2.2.s.s.2.2.2.2.2.2.2.:.:.:.:.:.>.>.;..             ",
"                      . +.p.,.,.,.,.$.+.@.=.=.-.>.>.>.:.:.:.:.:.:.2.2.2.2.2.2.2.2.2.2.2.2.2.2.2.:.:.:.:.:.:.>.>.;..             ",
"                      . +.$.,.,.,.,.,.+.+.@.=.=.=.;.>.>.:.:.:.:.:.:.:.2.2.2.2.2.2.2.2.2.2.2.2.:.:.:.:.:.:.>.>.;.=..             ",
"                        . +.p.,.h.j.,.p.+.+.r.@.=.=.;.>.>.:.:.:.:.:.:.:.:.:.:.:.2.2.:.:.:.:.:.:.:.:.:.:.>.>.;.=..               ",
"                        . +.$.,.h.h.h.,.,.+.+.r.@.=.=.=.;.>.>.:.:.:.:.:.:.:.:.:.:.:.:.:.:.:.:.:.:.>.>.:.>.;.-.=..               ",
"                        . +.+.p.,.h.k.h.,.p.+.+.r.r.@.=.=.=.;.>.>.>.:.:.:.:.:.:.:.:.:.:.:.>.>.>.>.>.>.>.>.-.=.@..               ",
"                          . +.+.,.h.k.k.h.,.,.$.+.+.+.r.@.@.=.=.;.>.>.>.>.>.>.>.>.>.>.>.>.>.;.>.>.>.>.;.=.=.@..                 ",
"                          . +.+.$.,.h.h.k.h.,.,.p.+.+.+.+.r.@.@.=.=.=.;.;.;.;.;.;.-.-.-.-.=.l.;.;.;.;.=.=.r..                   ",
"                            . +.+.+.,.j.h.k.h.j.,.p.$.+.+.+.+.r.r.@.@.=.=.=.=.=.=.=.=.=.=.=.=.=.-.;.=.@.+.+..                   ",
"                              . r.+.$.,.j.h.k.k.h.,.,.p.+.+.+.+.+.+.+.r.r.@.@.@.@.@.r.r.r.@.=.=.=.=.@.+.+..                     ",
"                                . +.+.+.,.j.h.h.h.h.,.,.p.p.$.+.+.+.+.+.+.+.+.+.+.+.+.+.+.@.@.@.@.r.+.+..                       ",
"                                  . +.r.+.$.,.j.h.h.j.,.,.,.,.p.p.p.$.$.+.+.+.+.+.+.+.+.+.r.r.r.+.+.+..                         ",
"                                    . . +.+.+.p.,.,.,.,.,.,.,.,.,.p.p.p.p.$.$.$.+.+.+.+.+.+.+.+.+.+..                           ",
"                                        . . r.+.+.p.,.,.,.,.,.,.,.,.,.p.p.p.p.$.$.+.+.+.+.+.+.+.. .                             ",
"                                            . . r.+.+.$.p.,.,.,.,.,.p.p.p.p.p.p.$.+.+.+.$.. . .                                 ",
"                                                . . . r.+.+.+.+.+.+.+.$.+.+.+.+.+.. . . .                                       ",
"                                                      . . . . . . . . . . . . . .                                               "
};
