/* XPM */
static char *result[] = {
/* columns rows colors chars-per-pixel */
"64 64 107 2 ",
"   c #FFFFFFFF",
".  c #000001",
"X  c #010001",
"o  c #BA5500",
"O  c #CB6600",
"+  c #DC6600",
"@  c #DC7700",
"#  c #ED7700",
"$  c #BAA900",
"%  c #CB9800",
"&  c #CB5500",
"*  c #BB5500",
"=  c #CC5500",
"-  c #CC6600",
";  c #DD6600",
":  c #DD7700",
">  c #EE7700",
",  c #EE8800",
"<  c #FE8700",
"1  c #FE8711",
"2  c #FE9811",
"3  c #CBA900",
"4  c #CCAA00",
"5  c #FF8800",
"6  c #FF8811",
"7  c #FF9911",
"8  c #FF9922",
"9  c #FE9822",
"0  c #CC8800",
"q  c #BBAA00",
"w  c #CC7700",
"e  c #FEA911",
"r  c #DD8800",
"t  c #DDCC00",
"y  c #EEDD00",
"u  c #EEBB00",
"i  c #FFAA11",
"p  c #FFCC11",
"a  c #FFEE11",
"s  c #FFFF11",
"d  c black",
"f  c #ED8700",
"g  c #EECC00",
"h  c #EEAA00",
"j  c #FEFE11",
"k  c #DD9900",
"l  c #FFDD00",
"z  c #FFCC22",
"x  c #CC9900",
"c  c #FFDD11",
"v  c #FEED00",
"b  c #CCBB00",
"n  c #DDBB00",
"m  c #FFBB00",
"M  c #FFEE00",
"N  c #FEFE00",
"B  c #FEFE22",
"V  c #ED9800",
"C  c #FFFF22",
"Z  c #FFFF33",
"A  c #FEFE33",
"S  c #FEDC22",
"D  c #FEA933",
"F  c #FFCC00",
"G  c #FFAA22",
"H  c #EDDC00",
"J  c #EE9900",
"K  c #FFAA33",
"L  c #FF9900",
"P  c #FFAA00",
"I  c #FEBA11",
"U  c #010100",
"Y  c #FFBB22",
"T  c #FFDD22",
"R  c #FFEE22",
"E  c #010000",
"W  c #FFBB11",
"Q  c #A99877",
"!  c #AA9977",
"~  c #DDAA00",
"^  c #989877",
"/  c #AAAA88",
"(  c #BBAA88",
")  c #EDEDCB",
"_  c #EDEDDC",
"`  c #A9A987",
"'  c #BABA98",
"]  c #DCDCBA",
"[  c #EEEEDD",
"{  c #BBBB99",
"}  c #CCCCAA",
"|  c #EEDDCC",
" . c #DDCCBB",
".. c #AAAA77",
"X. c #FFEEDD",
"o. c #DDDDBB",
"O. c #CCBB99",
"+. c #DDCCAA",
"@. c #DCCBBA",
"#. c #DDDDCC",
"$. c #EEEECC",
"%. c #FFEEEE",
"&. c #BBBB88",
"*. c #CCBBAA",
"=. c #010101",
"-. c #CCCCBB",
";. c white",
/* pixels */
"                                                                                                                                ",
"                                                                                                                                ",
"                                                                                                                                ",
"                                                                                                                                ",
"                                                                                                                                ",
"                                                        . . . . . . . . . . .                                                   ",
"                                                  X X X o o o o O + @ # # # # X X X                                             ",
"                                                X $ % & * = - ; ; : > > , , , < 1 2 X X                                         ",
"                                            X X 3 4 - - - - ; : > > > , 5 6 6 7 8 8 9 9 X                                       ",
"                                          X $ $ 4 0 - - ; ; ; > > > , 5 6 7 8 8 8 8 8 8 9 X                                     ",
"                                        X $ q 4 4 w - ; ; : : > > , 5 6 7 7 8 8 8 8 8 8 8 9 X                                   ",
"                                    X X 3 q 4 4 4 - - ; ; : > > > 5 6 6 7 7 8 8 8 7 8 8 7 7 2 X                                 ",
"                              X X X O O 4 4 4 4 w - ; ; ; > > > 5 5 6 7 7 7 7 8 7 7 7 8 7 7 7 2 X                               ",
"                    X X X X X O O O - - w 0 w - - - ; ; : , > , 5 6 6 6 7 7 7 7 7 7 7 7 8 7 7 7 e X                             ",
"                X X < < # + O - - - ; - - - - - - - ; r t y u , 5 6 6 6 7 7 7 7 7 7 7 7 8 i p a s d                             ",
"              X f f > : ; - - - - ; ; - - - - - - ; : t t y y g h 5 6 7 7 7 7 7 7 7 7 7 8 a s a s j X                           ",
"            X f , > : ; ; - - - - - - - - - - - - ; k t t y y y y l i 6 6 7 7 7 7 7 7 7 z a a a s s d                           ",
"          X < , > : ; ; ; ; 0 4 x - - - - - - - - ; k t t g y y y l l 6 5 5 5 6 6 7 7 7 c a a a a a v X                         ",
"        X < 5 > : ; ; - - x b b b w - - - - - - ; ; : n t g y y y y m 6 6 5 5 5 5 6 7 7 a a a M M M M N X                       ",
"        d 5 , : ; ; ; - w b b b 4 - - - - - - - ; ; ; : r n g y y g 5 5 5 6 5 5 5 5 5 7 a a M M M M M s B X                     ",
"      X V u g k ; ; - - x b b b b w - - - - - ; ; ; ; : : > > , , , 5 5 5 5 5 5 5 5 5 5 M M M M M M M C Z A X X                 ",
"      d y y t r - - - - x b b b b 4 - - - - ; ; ; ; ; : : > > > > > 5 5 5 5 5 5 5 5 5 5 m M M M M M M a C C S D X               ",
"      d y g r ; - - - - 4 b b b b b 4 - - ; ; ; ; ; ; : : > > > > > , 5 5 5 5 5 5 5 5 5 5 F M M M M M M s s z 8 D X             ",
"      d y , ; ; - - - - 4 b b b b b b - - ; ; ; ; ; ; : : > > > > > , 5 5 5 5 5 5 5 5 5 5 5 l M M M M M a s p 8 G D X           ",
"    X H J > ; ; - - - - x b b b n b b ; ; ; ; ; ; ; ; : > > > > > > > , 5 5 5 5 5 5 5 5 5 5 m M M M M M M a p 7 8 K D X         ",
"    d y , > ; ; - - - - w b b n n n n : ; ; ; ; ; ; : : > > > > > > > , 5 5 5 5 5 5 5 5 5 5 L M M M M M M a i 7 8 K K 9 X       ",
"    d g > > ; ; - - - - - ; k n n n n : ; ; ; ; ; ; : > > > > > , h h h J 5 5 5 5 5 5 5 5 5 5 m M M M M M P 7 7 8 G K G I X     ",
"      U 5 > ; - - - - - - ; ; ; : : ; ; ; ; ; ; ; ; : > > > , g y y y l l 5 5 5 5 5 5 5 5 5 5 5 L m F P 5 7 7 7 8 8 K G a d     ",
"      d 5 5 ; - - - - - ; ; ; ; ; ; ; ; ; ; ; ; ; : > > > , g y y y y l l L 5 5 5 5 5 5 5 5 5 5 5 5 5 5 5 7 7 7 8 G K Y M d     ",
"      d 5 5 > ; - - - - - ; ; ; ; ; ; ; ; ; ; ; : : > > > h y y y y y l l m 5 5 5 5 5 5 5 5 5 5 5 5 5 5 5 7 7 7 8 8 K T M v X   ",
"        U 5 > ; - - - - - ; ; ; ; ; ; ; ; ; ; : > > > > > h y y y y l l l F 5 5 5 5 5 5 5 5 5 5 5 5 5 5 7 7 7 8 8 G K a M M d   ",
"        d 5 5 : - - - - - - ; ; ; ; ; ; ; ; : : > > > > > , y y y y l l M l 5 5 5 5 5 5 5 5 5 5 5 5 5 6 7 7 7 8 8 8 8 c M y d   ",
"          U 5 > ; - - - - - ; ; ; ; ; ; ; : : > > > > > > > u y y y l M M l 5 5 5 5 5 5 5 5 5 5 5 5 7 7 7 7 8 8 8 G 7 m M t d   ",
"          d 5 5 > - - - - - - ; ; ; ; ; ; : : > > > > > > > > h y l l l F L 5 5 5 5 5 5 5 5 5 5 5 6 7 i 7 8 8 8 8 8 7 L g n d   ",
"            U 5 , : - - - - - - ; ; ; ; ; : : > > > > > > > , 5 5 P P L 5 5 5 5 5 5 5 5 5 5 5 5 L c s s R G 8 8 8 7 5 5 k n d   ",
"              U 5 > ; - - - w x 4 k : ; ; : > > > > > > , , 5 5 5 5 5 5 5 5 5 5 5 5 5 5 5 5 5 m a s s C C R 8 8 7 5 5 > > U     ",
"                U 5 > ; - 0 4 4 4 b n k : : : > > > , , , 5 5 5 5 5 5 5 5 5 5 5 5 5 5 5 5 5 p s C C C C C C G 7 5 5 > > > d     ",
"                  U 5 > : b 4 4 4 4 b b n r : > > > , , , 5 5 5 5 5 5 5 5 5 7 7 7 7 7 7 7 c C C Z Z Z C C a L 5 5 > > > E       ",
"                    U 5 , t b 4 4 4 4 4 b t n J > > > > 5 5 5 5 5 5 5 5 5 7 7 7 7 7 7 7 W s C C C C C s a l 5 , > > > ; d       ",
"                    d U 5 y t b 4 4 4 4 4 b n t t , > > , 5 5 5 5 5 5 5 5 7 7 7 7 7 7 7 i a a a M M M M M J > > > : ; E         ",
"                  X Q Q U U y t n b 4 4 4 4 b b t t > > > > , , , , 5 5 5 5 5 5 5 5 5 5 5 l M M M l y y u > > > : ; E           ",
"                X Q ! ! Q Q U g t t b b 4 4 4 4 b b r > > > > > > > , , , , , , , , , , , , g y y y y g , > : ; ; E             ",
"                d ! ! ! ! ! Q U U u t n b b 4 4 4 4 w - ; : : > > > > > , > > > > > > > > > > J ~ k : : ; ; ; - E               ",
"              X ^ ! ! ! ! ! ! Q Q U U U n b b b b x - - - - - - - ; ; : > > > > > : : : ; ; - - * * - - - - E E                 ",
"              d ! ! ! ! / / ! ! ! Q Q Q U U U 0 w - - - - = = * * * - - - - - - - - - = * * * * = - - - E E                     ",
"              d ! ! ! / ( ( / ! ! ! ! ! Q Q Q U E E E - - - = * * * * * * * * = * = = = = - - - - E E E                         ",
"            X Q ! ! ! ( ( ( ( / / ! ! ! ! ! ! Q Q Q Q E E E E E E E * * * * * - - - - - E E E E E ) _ d                         ",
"            d ! ! ! / ( ( ( ( ( / / / ! ! ! ! ! ! ! ! Q Q Q Q Q Q Q E E E E E E E E E E Q Q ` ' ] [ [ ) X                       ",
"            d ! ! ! / ( ( ( { { ( ( ( / / / ! ! ! ! ! ! ! ! ! ! ! ! Q Q Q Q Q Q Q Q Q Q ! / ( } | [ [ | ] X                     ",
"            d ! ! ! / ( ( ( {  .} { ( ( ( ( / / / / ..! ! ! ! ! ! ! ! ! ! ! ! ! / / / / ( { } | [ X.[ | o.d                     ",
"            d ! ! ! / ( ( ( O.o.o. .} { ( ( ( ( ( ( / / / / / / ..! ! ..! / / ( ( ( ( ( { +.| [ X.X.[ | o.@.X                   ",
"            d ! ! ! / ( ( ( O.#.| #.o.o.} { { ( ( ( ( ( ( ( ( ( ( ( ( ( ( ( ( ( ( { { } o.$.[ X.%.X.[ | o. .d                   ",
"            d ! ! ! / ( ( ( { | [ | | #.o.o.} } O.{ { ( ( ( ( ( ( ( ( ( &.{ { { *.}  .| [ X.%.%.X.[ [ | o. .d                   ",
"              U ! ! ! ( ( ( { #.[ [ [ [ $.| #.o.o. .} } *.O.O.O.O.*.*.} } }  . .o.#.$.[ X.%.%.X.[ [ [ #. . .d                   ",
"              d ! ! ! / ( ( { o.[ [ [ [ [ [ [ $.| | | #.o.o.o.o.o.o.o.o.o.o.#.| [ [ X.%.%.X.X.[ [ [ | o. . .d                   ",
"                U ! ! ! ( ( { } | [ [ [ [ [ [ [ [ [ [ [ [ [ [ [ $.$.[ [ [ [ [ X.X.%.%.X.X.[ [ [ [ | o. . .=.                    ",
"                d ! ! ! ..( ( {  .| [ [ [ [ [ [ [ [ [ [ X.X.X.X.X.X.X.X.%.X.%.%.X.X.X.[ [ [ [ $.|  . . . .d                     ",
"                  U ! ! ! / ( &.O.-.#.$.[ [ [ [ [ [ [ [ [ [ [ [ [ X.X.X.X.[ X.X.[ [ [ [ [ [ | o. .+. .+.=.                      ",
"                    U ! ! ! / ( ( O.} o.| $.[ [ [ [ [ [ [ [ [ [ [ [ [ [ [ [ [ [ [ [ [ $.| o. . .} +.+.=.                        ",
"                      U ! ! ! ! / ( { *.} o.#.| $.[ [ [ [ [ [ [ [ [ [ [ [ [ [ $.| | #.o. .} } } } =.=.                          ",
"                        U U ! ! ! / ( ( { O.} }  .o.#.| $.[ [ [ [ [ [ [ [ $.#.o.o. .} } O.O.O.=.=.                              ",
"                            U U U ! ! / / / { { { O.*.} }  .o.o.o.o.o.o.o. .} *.O.O.{ { =.=.=.                                  ",
"                                  U U =.=.! / ( &.{ &.( { { { { { { { { { { { { =.=.=.=.                                        ",
"                                          U =.=.=.=.=.=.=.=.=.=.=.=.=.=.=.=.=.=.                                                "
};
