/* XPM */
static char *result[] = {
/* columns rows colors chars-per-pixel */
"64 64 73 1 ",
"  c #FFFFFFFF",
". c black",
"X c #010001",
"o c #DC7700",
"O c #DC6600",
"+ c #DD6600",
"@ c #DD7700",
"# c #EE7700",
"$ c #ED7700",
"% c #EDA900",
"& c #EDDC00",
"* c #EEBB00",
"= c #EE8800",
"- c #EEDD00",
"; c #FEDC00",
": c #ED9800",
"> c #DDBB00",
", c #EECC00",
"< c #FF8800",
"1 c #FFBB00",
"2 c #FFDD00",
"3 c #ED8700",
"4 c #DCA900",
"5 c #FF9900",
"6 c #FFEE00",
"7 c #DD9900",
"8 c #DC9800",
"9 c #EEAA00",
"0 c #DCCB00",
"q c #DD8800",
"w c #FFAA00",
"e c #EDCB00",
"r c #DDCC00",
"t c #EE9900",
"y c #FFCC00",
"u c #FF8811",
"i c #FF9911",
"p c #DCCBBA",
"a c #CC6600",
"s c #FF9922",
"d c #FFCC11",
"f c #DDCCBB",
"g c #010101",
"h c #FFBB11",
"j c #FFEE11",
"k c #FF9933",
"l c #FFAA33",
"z c #FFAA44",
"x c #FE8700",
"c c #CCCCBB",
"v c #CBCBBA",
"b c #CCCCAA",
"n c #BBBB99",
"m c #DDAA00",
"M c #CCBBAA",
"N c #CC7700",
"B c #FFAA11",
"V c #FFCC22",
"C c #FEBA00",
"Z c #BBAA88",
"A c #AAAA88",
"S c #BBAA99",
"D c #FFEE22",
"F c #FFCC33",
"G c #A9A987",
"H c #010100",
"J c #010000",
"K c #CCBB00",
"L c #CC9900",
"P c #FFDD11",
"I c #CCAA00",
"U c #EEDD11",
"Y c white",
/* pixels */
"                                                                ",
"                                                                ",
"                                                                ",
"                                                                ",
"                                                                ",
"                                                                ",
"                                                                ",
"                                                                ",
"                                                                ",
"                                                                ",
"                                                                ",
"                                                                ",
"                                                                ",
"                                                                ",
"                                                                ",
"                                                                ",
"                                                                ",
"                                                                ",
"                                                                ",
"                                                                ",
"                                                                ",
"                              .......                           ",
"                          XXXXooOOOooXXXXX                      ",
"                        XXoOoo++@@###$$$%&XX                    ",
"                      XXoO+#@+@@#########*&&XX                  ",
"                     X$o@@@@+@====####=##=--;:XX                ",
"                    Xo@@@@@@>,,----=###=<<12-=3$X               ",
"                   X4@@#@@@>,-------=#=<<<562<=#$X              ",
"                   .@@#@@@7,--------,<<<<<<22<<##$X             ",
"                  X8@@@@@@9,--------2<#=<<<<5<<<##$X            ",
"                 X0q@@@@@@9-------22w=<<<<<<<<<<<#9.            ",
"                Xer@@+@@@#9------221<<<<<<<<<<<<<<,&X           ",
"                .rr@++@@@#t----2222<<<<<<<<<<<<<<<y-&X          ",
"               X3rr+++@@###*---2261<<<<<uu<<<<<<<<2--.          ",
"           XXXX$##q+++@@###t--22661<<uuuiiiiuu<<<<26-&X         ",
"         XXpp.$#@@+aa+@#####*-2666w<uiiiiiisssiiiid66-&X        ",
"        Xppfg$#@++aaa+@######9yyyw<uuuuiissssssssihjj-t.        ",
"       Xpffg3#@++aaa++@######<<<<<uuuuiisssklllsssidd5=3X       ",
"      Xpffg$#@++aaa++@@#####=<<<<<uuuiisssklzzzlkssi<<==3X      ",
"      .ffg$#@++aaaa++@#####=<<<<<uuiiiissslzzzzzlsss<<<==.      ",
"     Xpff.#@++aaaa+@@@#####=<<<<uuuiiiisslzzzzzzzlssi<<==xX     ",
"     .ffg$@@+aaaaq>rrq#####=<<<<uuuiiiisslzzzzzzzlssi<<==<.     ",
"    Xpff.@@+aaaa@>rrr=#####<wyw<uuuiiiisslzzzzzzzlssi<<==<xX    ",
"    .ffc.@+aaaaa>>rr>######w262<uuuiiiisskzzzzzzllssi<=##<<.    ",
"    .fcg$@+aaaaq>>rr>######y2665uuuiiiiisslzzzzzlkssu<==#<<.    ",
"   Xvcb.#+aaaaa7>rrr>######-666wuuuuiiiiisslllllsssi<<===<<xX   ",
"   .bbn.#+aaaaam>rrr*######,6662uuuuiiiiiissssssssii1yw==<<<.   ",
"   .Mng;,>Naaaam>rrr,######t6666BuuuuiiiiiiisssVjjj6229==<<<CX  ",
"   .nZ.6->aaaaam>rrr,=######y6666iuiiiiiiiiiiidjjj6622====<56.  ",
"   .nA.6,Naaaaa7rrrrr*######=y6666iuuiiiiiiiiidjjj6621====<1j.  ",
"   .nA.6qaaaaa+@>rrrr,=######=w11wuuuuiiiiiiiuhjj6222t=#==<yj.  ",
"   .SA.y+aaaaaa+q>rrr,*#######<<<<<uuuuuuuuuuu56222-,==#==<dj.  ",
"   .AA.<+aaaaaa++@>rr,t########<<<<<<uuuuuu<<<<y22-25=#==<<BD.  ",
"   .AA.<+aaaaaa++++qq@#########<<<<<<<<<<<<<<<<52221=#===<<sF.  ",
"   .AA.<+aaaaaaa+++@@@#######t,-262w<<<<<<<<<<<<w2,======<<sl.  ",
"   .AA.=@+aaaaaa+++@@@@#####*-------==<<<<<<<<<<<=======<<ilz.  ",
"    gAGH@+aaaaaaa+++@@@####*--------######==============<<szH   ",
"    .AA.@+aaaaaaa++++@@@###,--------=#########=========<<ilz.   ",
"    .AA.++++NNaaaa+++@@@###,--------,================t<<<slH    ",
"     gAGJ++7r>KNaaa++@@####t---------==============t,2y<<sk.    ",
"     .AA.+@rr>KKLaa++++@@###t,,,,,,*t##########==thPjj6<==H     ",
"      gAGJ@rrr>KKINa+++++@@@@@qqq@@@@@@@@@@###=t,-UjjP,#@H      ",
"      .AAGJ>rrr>KKKI7@+++aaaaaaaaaaaa+++++@@@7rrrrrrr>qaJ       ",
"      .AAAGHHrrrrKKKKKLNaaaaaaaaaaaaaaaaaaaaaKKKKKKILNHJ        "
};
