/* XPM */
static char *result[] = {
/* columns rows colors chars-per-pixel */
"64 64 84 1 ",
"  c #FFFFFFFF",
". c black",
"X c #010001",
"o c #CBBA00",
"O c #CBCB00",
"+ c #DC9800",
"@ c #DC7700",
"# c #ED7700",
"$ c #EDA900",
"% c #DDBB00",
"& c #DDCC00",
"* c #EE9900",
"= c #EE7700",
"- c #ED9800",
"; c #EDDC00",
": c #EDED00",
"> c #CCBB00",
", c #DD8800",
"< c #DD7700",
"1 c #EE8800",
"2 c #FF8800",
"3 c #EEAA00",
"4 c #EEEE00",
"5 c #FEED00",
"6 c #DCCB00",
"7 c #FFBB00",
"8 c #FE8700",
"9 c #CCCC00",
"0 c #FFEE00",
"q c #EDBA00",
"w c #DD9900",
"e c #DDAA00",
"r c #FF8811",
"t c #ED8700",
"y c #CC9900",
"u c #FF9911",
"i c #DD6600",
"p c #CC6600",
"a c #CC8800",
"s c #FF9922",
"d c #FEDC00",
"f c #CC7700",
"g c #FFAA33",
"h c #FFCC00",
"j c #FFAA44",
"k c #EEDD00",
"l c #DC6600",
"z c #FFCC11",
"x c #FFBB11",
"c c #EECC00",
"v c #EEBB00",
"b c #FFEE11",
"n c #FFDD11",
"m c #FFDD00",
"M c #CCAA00",
"N c #FF9933",
"B c #DDDD00",
"V c #010100",
"C c #FF9900",
"Z c #010000",
"A c #CBCBA9",
"S c #CCBBAA",
"D c #BABA98",
"F c #BBBB99",
"G c #BBAA88",
"H c #A9A987",
"J c #CCCCAA",
"K c #AA9977",
"L c #A99877",
"P c #CCBB99",
"I c #AAAA88",
"U c #010101",
"Y c #AAAA77",
"T c #A99887",
"R c #BAA987",
"E c #BAA998",
"W c #DDDDCC",
"Q c #BBAA99",
"! c #CCCCBB",
"~ c #DDDDBB",
"^ c #A9A977",
"/ c #DDCCBB",
"( c #AA9988",
") c white",
/* pixels */
"                                                                ",
"                                                                ",
"                                                                ",
"                                                                ",
"                                                                ",
"                                                                ",
"                                                                ",
"                                                                ",
"                                                                ",
"                                                                ",
"                                                                ",
"                                                                ",
"                            ..........                          ",
"                         XXXoO+@@####$XXX                       ",
"                       XXooo%&*=======-;:XX                     ",
"                      XOo>>,<=======12134:5X                    ",
"                    XX6>>><<=====1222222744:X                   ",
"                  XX8-9>>,<=====122222222704qX                  ",
"                XX8#=w>>e<====122222rrrrr22*=#X                 ",
"              XX8t==<y>>,====12222ruuuuuuur21=#X                ",
"            XX88==<ipa>&<===12222ruuuuusuuuur1=#XX              ",
"          XX5d2=<iippf>e<===22222ruusssggsuuur1=##XX            ",
"         X@thh=<ipppppi<<==122222ruussgjjjguuu211=;:X           ",
"        X@=21=iippppppi<===222222ruusgjjjjjsuur111k4:X          ",
"       Xli=1=iiipppppii<===222222ruusgjjjjjsuur112z005X         ",
"      X@p<=<iiippppppii<===122222ruussggjjgssur2222xxu8X        ",
"      .pi=<iiipppppppii<====22222ruuusssgssssur2222rurr8X       ",
"     X@pi<iiippfpiiiii<<==1*12222rruuuuussssuur11222ruur8X      ",
"     .ipi<iipa>>><iiii<<=*kkc1222rrruuuuussuuxx1==122uuur8X     ",
"    X#ipiiipa>9>>w<iiii<=vkkk31122rrrruuuuuuzb0k1==12ruuu2.     ",
"    .=pppiip>>>>>e,<iii<<ckkkk3=1222rrrrrrrrn044k*==12uuurtX    ",
"    .=pppipy>>>>>><<<ii<<3kkkkkc*12222rrrrr2m44444c*=2ruur1.    ",
"   X#<pppipy>>>>>><<iiii<1kkkkkkk1==12221111ck444444c1rssu2#X   ",
"   .=<pppppy>>>>>>f<<iii<<3kkkkkk===========vkk444k443rssu1=.   ",
"   .=,yppppa>9>>>>yf<iiii<<3ckkkv===========3kkkkk444c2sgs2=.   ",
"   .*&>apppp>&&>>>Mpppiiii<<=11,<===========1kkkkkk4442Ngsr1;X  ",
"   .kB>pppppM&&&>>>ppppiiii<<<=<<<<<<<=<<<===ckkkkkk442Ngsrv4.  ",
"   .4Byppppp<&&&&>>fppppiiiii<<<<<<<<<<<<<<==*kkkkkk442Ngsrk4.  ",
"    Vkfpppppiw&&&&ypppppppiiiii<<<<<<<<<<<<<==vkkkkk4hrggsrkk.  ",
"    .kppppppiiw%e,ippppppppiiiiiii<<<<<<<<<<<==ckkkkkCrggurkk.  ",
"    .cppppppiiiiiiiippppppppiiiii,,<i<<<<<<<<===3kkk*2uNsu2kk.  ",
"    .cippppppiiiiiiiiippppppppi<e&&%<ii<<<<<<<=======2sNsr1ck.  ",
"     V=pppppppiiiiiiiiiipppppy>>9&&&%iiii<<<<<<======rssur=*V   ",
"     .=pppppppiiiiiiiiiiiippa>>>>>>>>apiii<<<<<=====1ruur1=1.   ",
"     .1<ppppppiiiiiiiiiiiiiiM>>>>>>>>yppiii<<<<=====2rrrr===.   ",
"      V=pppppiiiii<iiiiiiiiie9>>>>>>9>ppiii<<<<====1rrrr1==Z    ",
"      .1<pppppiiiiiiiiiiiiii<&&&99999Mppiii<<<<====rrrr1===.    ",
"      .V=ippppiiiiii<iiiiiiii,%&&&999aiiii<<<<===1hbxr1===Z     ",
"     XA.1=ippppiiiiii<<iiiiiii<,eeew<iiiii<<<===*nbbb*====.     ",
"     .SDV1=ifpppiiiii<<<<iiiiiiiiiiiii<<<<<<==1vbbbb43==<Z      ",
"    XAFGHV13&>Mfiiiiiii<<<<<i<<<<<<<<<<<<<==*vkbbb4kk*=<Z       ",
"    .JFGKLVkk&>>fiiiiiiii<<<<<<<<<<<<<<===3ck44044kkk<<Z        ",
"    .PFIKKLV4k&9>ypiiiiiiiii<<<<<========1kk444kkkkBe<Z         ",
"    .PFIKKKLV4kB&9>aiiiiiiiiiii<<<===11111k4kkkkkk&w<Z          ",
"    .FFGKKKKLVV4k&&>>wiiiiiiiii<<<========1ckkBBBe<VZ           ",
"     UFGIKKIKLLVV4kB&>>aiiiiiiii<<<<<<<<<<<<,eew<VZD.           ",
"     .FGIYKYIIITTVV44kB&Mppppiiiiiiiiiiiiiiiii<VZRDJ.           ",
"     .PFGIKKIGIIIHHVV044k*<iiiiipppppppppppppZZREFJW.           ",
"      UFGGIKKFQGIIIHHVVVV31=======<<ipppZZZZZRRFF!WU            ",
"       UFGIKKIPSFIIIIHHHHVVZZZZZZZZZZZZZLHHREFFS~WW.            ",
"        UPGIKKIS!JFGIIIIIHHHHTTLLLLLL^HHIGQFFFJ~WWU             ",
"         UUFIKKIF/W~!SFGIIIIII(KKKKIIIIIQFFFJ~W~UU              ",
"           UUVKKIGS//~/JSFQIIIIKKKIGIIIGFSSSPUUU                ",
"              VVUUUUUUUUUUUUUUUVVVUUUUUUUUUUU                   "
};
