/* XPM */
static char *_826e0a33a78424e83650c96a4d22a07M20WAqbWZi4BmynX[] = {
/* columns rows colors chars-per-pixel */
"64 64 201 2 ",
"   c #271700",
".  c #2D1F09",
"X  c #331E03",
"o  c #2F2102",
"O  c #2E210A",
"+  c #342303",
"@  c #3B2502",
"#  c #362905",
"$  c #3C2B04",
"%  c #32240B",
"&  c #3B260A",
"*  c #372B0A",
"=  c #3D2C0B",
"-  c #3F3007",
";  c #3E310D",
":  c #372A10",
">  c #3D2E12",
",  c #3D3113",
"<  c #402700",
"1  c #422D04",
"2  c #482F01",
"3  c #422E0B",
"4  c #482C0D",
"5  c #453105",
"6  c #4A3404",
"7  c #4D3A05",
"8  c #45320C",
"9  c #4A340C",
"0  c #4D3A0C",
"q  c #503700",
"w  c #523C05",
"e  c #503708",
"r  c #533C0C",
"t  c #583F0F",
"y  c #432E12",
"u  c #4A2E11",
"i  c #443313",
"p  c #4A3513",
"a  c #473914",
"s  c #4D3A13",
"d  c #463519",
"f  c #4A3619",
"g  c #45381A",
"h  c #4C3A1A",
"j  c #523711",
"k  c #533D13",
"l  c #5A3E14",
"z  c #51361A",
"x  c #533D1A",
"c  c #593F1B",
"v  c #4C3A20",
"b  c #513E21",
"n  c #574006",
"m  c #5B4305",
"M  c #55420D",
"N  c #5A440D",
"B  c #5C480D",
"V  c #554114",
"C  c #5B4414",
"Z  c #5D4914",
"A  c #55421B",
"S  c #5B441B",
"D  c #554918",
"F  c #5D491C",
"G  c #614A06",
"H  c #60470E",
"J  c #634A0D",
"K  c #694D0F",
"L  c #614715",
"P  c #624C15",
"I  c #694E15",
"U  c #61451B",
"Y  c #634C1B",
"T  c #694E1C",
"R  c #655116",
"E  c #6A5214",
"W  c #6F5813",
"Q  c #66521C",
"!  c #6B531C",
"~  c #6D591C",
"^  c #7A5C17",
"/  c #72551C",
"(  c #735B1D",
")  c #7A5F1D",
"_  c #72611E",
"`  c #7B621E",
"'  c #554322",
"]  c #5B4621",
"[  c #5D4B22",
"{  c #5C4A2A",
"}  c #624D22",
"|  c #6A4D22",
" . c #674E2A",
".. c #665223",
"X. c #6B5423",
"o. c #6D5923",
"O. c #65532B",
"+. c #6B552A",
"@. c #6E5A2A",
"#. c #725622",
"$. c #735B24",
"%. c #795E25",
"&. c #72552A",
"*. c #735C2B",
"=. c #795E2B",
"-. c #6B5433",
";. c #6E5933",
":. c #6E5838",
">. c #735C33",
",. c #795D30",
"<. c #745D39",
"1. c #766024",
"2. c #7B6325",
"3. c #7A6126",
"4. c #76622B",
"5. c #73602C",
"6. c #74612D",
"7. c #786128",
"8. c #7E6129",
"9. c #79652A",
"0. c #7B642B",
"q. c #7F652B",
"w. c #7A642E",
"e. c #7E692C",
"r. c #766233",
"t. c #776034",
"y. c #7B6533",
"u. c #7D6A33",
"i. c #77623B",
"p. c #7B653A",
"a. c #7E6839",
"s. c #7E6B39",
"d. c #826626",
"f. c #826823",
"g. c #826A26",
"h. c #81662B",
"j. c #82662E",
"k. c #82682B",
"l. c #836B2C",
"z. c #85682C",
"x. c #85692F",
"c. c #8A6E2E",
"v. c #86742F",
"b. c #8A712E",
"n. c #8C712D",
"m. c #91742C",
"M. c #806730",
"N. c #856730",
"B. c #876B32",
"V. c #826D30",
"C. c #836C33",
"Z. c #836E35",
"A. c #886B30",
"S. c #8A6D31",
"D. c #8C6F32",
"F. c #8A6F35",
"G. c #81663C",
"H. c #836D3B",
"J. c #876E39",
"K. c #857235",
"L. c #8F7333",
"P. c #8F7236",
"I. c #8B7434",
"U. c #8D7936",
"Y. c #86733A",
"T. c #8B753B",
"R. c #8E793C",
"E. c #927635",
"W. c #937A36",
"Q. c #987B36",
"!. c #90763A",
"~. c #927B3B",
"^. c #9A7E3D",
"/. c #856E40",
"(. c #896F41",
"). c #867442",
"_. c #8A7344",
"`. c #8D7944",
"'. c #937D42",
"]. c #9A7F40",
"[. c #937D48",
"{. c #96823E",
"}. c #9B833D",
"|. c #9F883C",
" X c #A1893E",
".X c #968243",
"XX c #9C8343",
"oX c #9F8A41",
"OX c #978349",
"+X c #9C854A",
"@X c #9E8849",
"#X c #A38644",
"$X c #A28B43",
"%X c #A58748",
"&X c #A48C4A",
"*X c #A98D4B",
"=X c #A69046",
"-X c #A89047",
";X c #AB924A",
":X c #AE9554",
">X c #B29957",
/* pixels */
"` W 1.v.Z.u.5.o.Y Q o.9.1._ ( ` j.N.N.N.N.N.$.T T C k k V N V P e.L.E.c.c.L.f.W J ! %.! P V Y ! ~ P D N C A A x f s a s p y = * ",
"2.~ ( 9.w.5.o.F D D ! *.1.~ ~ ( j.j.N.N.N.d.%.T U C C l k 0 V R 2.c.E.S.S.c.) G G ~ 2.Q C C F F Z N V D } [ } ] a s s a i 3 & % ",
"1.! Q o.o.Q F V r V F o.o.! R E #.d.d.d.d.d.&./ S F C k 0 k V C ! %.B.F.F.z.! w w / w.Y B M L C B M N D O.O.{ A a a a 8 = & % X ",
"1.I Z Q F V k 8 9 0 D ..o.Q I ! / #.&.d.d.&./ U C C c p s V c 0 r ! w.B.J.y.I 6 6 Q *.Z r C X.X.B n r M O. .} A p 8 8 3 = + X X ",
"$.Z C Z S V s 1 8 9 x } +.....! | #.d.#.%.$.T L l S x p p x k 9 5 C @.s.J.r.Y 9 6 l C r M X.w.9.Q N w 9 V S S s 8 8 ; $ $ + . o ",
"! C C F F A s 8 8 8 p F ....| #./ #./ #.! %.T C k c c f i f i 8 5 0 } ;.i.-.c 4 4 9 0 9 Q u.T.q.9.Q r 2 9 p p 4 8 ; - $ + + * O ",
"Y N C Q } [ A p i 3 8 A } ....&.I / / #.%.%.X.L k k x z f y 3 i 5 0 ' O.-.{ f & 4 1 6 r *.T.T.l.9.! l 2 9 8 p i 8 ; # # # * * * ",
"Z n C ..O.} ] s 8 1 1 j F } X.*.I T / / %.%.#.} c z f z p u = 3 8 a ' { { b y X X & p S r.T.U.c.h.$.U 0 4 1 i 9 5 = $ # # * : , ",
"Q M B o.5.O.] A $ 3 5 8 V @.6.*./ / / ( %.8.6.*.S x 4 f f f 3 ; ; a a h v v y X & y z &.Y.'.~.T.j.#.L 6 4 1 4 3 = $ $ + o o ; , ",
"~ B B Q o.o.[ s 1 1 5 9 C o.r.4.=.( $.%.2.q.w.r.O.S f h f i = # $ ; ; d g v d : & y c +.s.R.U.K.N.X.U 4 3 & 3 $ $ $ # # # # , g ",
"1.B B R o.O...D 5 5 1 5 V X.w.M.z.%.2.2.N.e.q.u.+.S i p p f - # - ; ; = y f d > & 8 A o.4.C.K.l.*.X.C 9 4 1 & @ # $ $ $ # * * , ",
"e.~ B Z Q @.O.D 8 - - 5 r ..6.C.S.d.2.2.l.e.q.u...c 4 p h A - $ - - 8 = y i i 8 & 9 A  .*.9.7.2.%.| S 0 3 $ $ $ $ $ $ # # * ; g ",
"e.~ B D Y @.O.] 8 5 5 5 k Y @.u.l.g.q.c.b.2.1.1.} k 5 s D ' 8 - $ 5 a - 8 0 s p 8 0 C ..o.o.o.o.X.Y S 9 8 & & & 8 8 5 $ # # i f ",
"e.~ Z B D ..O.D 8 = 8 8 0 V ..*.q.k.h.c.b.e.1.! Y V 0 S [ D a 8 - 5 8 7 0 D A F r k V Q X.! ~ Q Q D A 9 4 = a p h h 8 = $ # i f ",
"_ Q Z M M D F A = = 8 8 0 s F o.2.l.b.b.b.K._ P M r s F [ [ M $ 5 M M a 0 D ..+.C C C Q Q ~ Q Z Y C A 9 8 3 h ' ] ' A 8 ; & i d ",
"Q R D M 8 s A s 3 = 3 p p p x Y 1.c.U.b.b.v.%.B 6 5 0 ....[ M 7 M V V 0 0 S +.*.F C C Z o.o.Q Z Q F k 8 8 8 ' [ ] ] A s 8 8 = 3 ",
"O.D D s 8 = = 3 y d a i 3 9 9 k ! e.I.U.U.U.9.Z 7 7 k <.y.&.C N Y ..Y r r } >.*.! Z N Z R R Q Q } F V $ $ $ k D  .[ D s s s 8 # ",
"[ D 0 8 ; # * d d i p y 3 8 4 r P _ K.U.U.K.$.Z 7 V Y p.p.@.C N ! ..} C k Y +.>.X.P N B R Q P Y ..[ V 1 1 5 V F } F V s s V 8 $ ",
"D 8 - - = = 8 g g f h i 3 9 8 0 Z 1.U..X{.K.1.Z r C +.H.p.X.C N Q ! ..Y C ] +.,.*.Q Z P Q P L F [ S s $ $ $ D ] [ D a 0 s A 8 $ ",
"M 8 5 - 3 a v ' ' v c p p p i r n o.K.R.U.l.~ Z r F &.H.4.Y N N Y Y | } S } +.i.r.Q P P Q Y Z C D V 0 @ @ = V F [ A 8 8 x D a $ ",
"0 8 5 8 8 h ' { v h h a p p 9 9 M ~ u.T.Y.e.~ Y e F *.p.*.P N B P Y ..Y U  .+.y.>.X.P L Y P C C F S s 1 $ 5 A [ A a 8 8 s ] V $ ",
"0 5 1 0 s s A { s i i 4 8 p 4 9 0 N ! $.o.Q Z N 0 S @.&.@.Q R R Q Y Y F c  .+.<.*.} C Z Y S C C A A x $ 5 8 s A s a = = h ' h = ",
"r 0 0 V A A A { h i 8 4 i k s 0 r M N Z P P Z C r C +.o.*.! o.~ *.! l A S ] } +.+.Y C C F S V x s s x 8 - ; 8 p p 8 = 8 d ' A a ",
"C C F F [ [ [ [ A s s p h S k k k r 0 M B Z Z C r C ..X.*.o.w.4.u...l k c c b  .+.F V V S C C c V D D p 8 8 a 8 3 3 3 3 p x x p ",
"C T Y Y F [ ..F a 0 s x s c S c 0 r C r r N C C C S Y Y Q o.e.R.u.@.Z k x A S S k V C j V C ' k ' D A A a a f h i y 3 8 9 8 = $ ",
"N T #.&.o.....S V s A F S A A k l F Y Z C C C r k C S S F X.q.T.K.*.F k k c x c k V V 0 x x C x A A A s a 8 i a 3 = $ = 8 3 1 $ ",
"L #.*.4.*.o.o.D V V F @...F V k F +.+...Y Z C r j k C l C Y w.T.Y.5.Y k k k h p k k k 9 0 s c x , V a a i = = = = & = = 8 a 9 9 ",
"I %.8.h.o.~ Q P Z V ..s.r...F D F ..&.*.X.Y Z k C S S C C Q w.Y.Y.5.Q V j 0 p p s j k 1 3 9 p p ; ; a d ; = = & y 3 8 8 s F Q F ",
"I 2.z.B.%.! R Z M M ..s.u.O.F D C } &.*.*.o.F e } } } U F } *.Z.u.4.Q V s 0 p 0 s k k 6 4 1 i 8 * ; a a , = = = = 8 a s F @.r.o.",
"K d.E.!.l.~ R B M M Q u.r.o.Q Y Z } @.*.r.@.S 2 k c c k j r P o.9.o.Q C r s p k A F } k 0 3 9 3 ; ; ; , : = = > = 8 x D ..4.4.5.",
"K z.^.].K.( E m B B Q o.o.o...F k Z | *.H.a.Q 6 j x S c k l L ! ~ ! Z V k j k c } +.&.} C i p 8 ; ; ; , = = = i 8 s D F ..w.4.o.",
"^ L.^.{.v.( ~ R B R ~ o...Q D D r k L 6.T.R.@.r 1 0 z c k k S Y Q Q Z C r k c F +.<.s.+.} k 9 8 ; ; ; ; # = = 8 a F ....5.u.5.R ",
"f.Q.^.^.W.k.2.E Z P o.6...F V 7 7 7 R K.{.XXz.B 7 j u z z k k Z F Y Z l k C ] ] { -.&.p.o.Y l j z u 4 & @ 3 s l V Z ..X.*.q.*.~ ",
"f.^.%X XE.f.%./ R Q 5.@.[ M 9 1 5 N 2.{.oX}.b.! U j u f z x k C F U C k r k ] x c } Y X.Y Y l l c c c S C S Y C Q *.=.$.$.$.#.T ",
"f.^.*X#XE.g.2.( E ~ *...V 5 1 @ 6 Z U.@X=X}.U.2.| l 4 4 z k x k x c C r k x z f p p 9 L T X.T U C l F } U T | Y Z ! X.X.T U Y L ",
"n.#X*XXXW.c.2.W Q ! $.D 5 $ 3 3 0 ! R.oX|.}.W.c.%.c 4 4 p z z p p k x k V c k y & 1 1 C $.y.=.| S l C U Y | X.T N S X.| U U U T ",
"c.%X*X^.W.z.3.~ E ~ o.A 1 $ i 0 V $.'.-X$X|.{.U.=.L 4 @ i f p p h h V V A D d = X @ @ U ,.(.G.&.L l C Y T T | U U U | | U l L U ",
"z.%X*X^.c.` W ! Y ! ..k $ 3 s p V *.&X>X=X X|.W.8.Z 1 4 f h h p f g a s s A p & X X @ P y.(.G.&.L N L Q T X.| l l c U | U l L U ",
"m.*X*XQ.d.! P B C F S 0 = 0 ' x l *.OX:X=X X}.W.1.C 1 4 a f g g d d i 8 s s a & + @ @ F ,.(.G.+.Y N C L Y } U e l j l S } U | | ",
"Q.*X%XE.3.I l 7 0 r j 8 1 A } F S #.P.#X$X$X}.b.( N 6 3 s h g g d d ; 8 8 s 3 + $ 1 < L *.H.G.>.C 9 1 9 9 k p 1 u < 1 9 l l S } ",
" X*X=XI.( ! r < 9 $ 1 X @ U *.@.X.$.A.XX#XXX^.k.R n 6 5 s g v , > d 8 = $ $ $ = 8 6 6 V X.p.i.F f = + X X 3 3 1 X @ + @ 5 5 D Q ",
" X$X{.3.! Y C 9 3 @ 1 @ $ Y s.H.y.7.A.K.!.].~.e.P r 7 8 A A h * * d 8 $ $ 5 5 r 0 9 6 C ..+.@.' = +     + 3 3 8 4 2 $ 1 $ 5 D F ",
" X}.g.W H L U F c s k 5 2 Q H.`.[.y.h.#.8.J.K.1.I M 7 9 A ' A * = i 0 8 8 M S F C r N Q X...O.h %     + & 3 j S F V V V $ ; D D ",
"$XE.( m w C } +.i.&.+.C 5 Z r.T.`.=.*.N P $.q.X.Q r 5 9 A ] A , i s V M w Q *.&.o.X.o.%.o.[ F a %     = 8 j } r.*.#.o.@.M 1 8 M ",
"R.2.J w w C 7.J.`.s.r.D 5 r Q 5.u.Q } w k Z Y U C r 9 r F [ s = 3 x C w N / q.u.u.G.l.Z.5...[ d : . X 8 l P *.T.`.B.h.y.Q - - a ",
"o.Q m w w E C.+XOXR.u.Z 1 @ 0 F o.P L 0 0 9 j 0 0 r k } O...0 $ 9 k L w N ( h.u.J.Y.Y.T.w.@.[ a = # $ 0 Y #.l.~.XX!.h.q.@.V a s ",
"l C M 7 m R e.{.{.v.w.N 5 $ 8 V o.n r e 0 4 1 < 4 l Y >.y.+.r @ r U Y w G ( c.N.B.q.e.Y.u.@.[ a = 3 0 Y 2.c.m.m.^.S.%.%.&. .S i ",
"p C V 7 7 B 2.U.I.e.1.Z 7 w V ..F 6 @ 9 r 9 9 4 9 C ..p.4.+.V 7 S | X.L J d.P.F.2.( $.C.s.o.F D 5 0 Z %.E.^.Q.n.n.f./ %.>.<. .1 ",
"x c S S r D *.w.u.9.*.r 6 C ..&.+.5 $ < 6 m C N N ! 6.`.r.*.w 6 l -.&.! ! %.T.W.j.$./ P.R.B./ m w P ( T.XX].P.g.g.^ I ! *.>.-.z ",
"+.+.+.o.} Y X.o.*.*.X.r 6 Z *.).N.T H P ! q.q.z.l.T.~.K.q.! C C | +.| X.( 2.E.L.b.) ! P.~.P.8.W J ( A.R.R.K.l.g.2.E m I &.>.-.z ",
")./.a.@.} Z C D X.X.Q w 7 Q s.[.[.u.$.$.u.T.R.[.@X+X+Xz.9.I I C | | ! ! ! ( c.W.L.( E S.].XXW.2.1.K..XR.e.2.( ( E B q C  .:.-.z ",
"`.`.p.Q M 7 r Z X.Q C 7 M o.T.OXOXT.h.7.h.!.XX@X&X@X+Xz.2.! ~ ! #.| ! I J W L.{.b.( G l.XX*X XW.I.R.R.Y.8./ Y P w w 6 w } <.:.u ",
"`.Y.o.M M 5 M F X.Z r N X.K..X+XT.1.$.~ ~ T.+X&X.XT.I.2.( E / %.#.! E G m W {.XXc.E w 2.~.=X=X}.{.U.Y.u.w.o.L S 6 7 6 9 C -.:.f ",
"Y.*.M n M D C C 7 6 $ w *.T.[.R.3.H m w m %.T.K.l.2.E J r P ~ e.z.( K m G g.{.~.2.B q ( v.|.$X{.K.9.4.o.o.D j j 5 1 < 0 x { { f ",
"u.~ M n D ..D 9 8 5 1 Z u.`.R.K.! t w 7 w 6.8.%.2.~ B n w R 8.~.{.` ^ W ( E.'.J.! t 2 I 2.U.{.U.e.9.o.6.O.} c k 3 @ $ p s f h a ",
"s.Q 5 5 M D D 3 @ @ 1 S r.u.u.o.P r e 6 Y N.C.=.Y P w 6 w ! C.'.}.2.g.g.h.!.!.j.! e < P _ g.v.v._ _ Q F } ] h & & < & i = = d > ",
"s.N - 7 V V 8 # $ $ 1 k } @.@.X.C e 2 t &._.G.*.U 2 < 2 2 ! G.+X{.W.E.R.!.E.u.&.l 1 2 r Y 7.v._ ~ ~ Q Y ] c z y & & = 4 , = = * ",
"r.7 - 9 s x 3 $ @ 1 9 p j k S F r 2 2 U y.(.y.| l 2 2 2 6 Y r.J.R.R.~.~.!.C.X.S 9 @ 4 l L *.9.~ R ! X.} A u 3 & & 3 = y i , , , ",
"@.a 5 0 s s - - c A c k p 9 9 0 9 2 r X.G._.>.U r e e e r T y.M.z.B.T.T.J.*.U k 1 4 p V C F Q ~ R Q } F p 4 & X y i i i g g , , ",
"O.a 8 s x k a D O.>.;.' 4 @ & 9 r L +.i.(.(.>.U e r C t Y &.H.u.w.q.4.w.$.T C l 9 x A j s M Z o.Q Q Z k 0 i u u p z h f g , , > ",
"..a 8 D a M V [ r.H.p.A 9 X @ @ r $.G.z.y.y.&.U 4 e l N ! %.Y.Z.$.&.#.~ I C N k k } [ A M 1 M o.Q Z M V S } ] c x A h a a > * % ",
"O.8 8 s M M D O.).`.p.k z 1 < & r $.Z.*.X.&.! t q e L T *.w.T.J.#.#.#.! P N w 6 r } ..[ A M M R N M M D  .<. .S A A V a i * O O ",
"O.5 - 7 M M R y.).).p.0 s 4 y 4 9 ! %.X.T #.Y w 6 r P 8.q.N.F.l.X.X.I T E H w 5 7 D D D D D V Q N M V Y  .&. .S 9 a 8 a > = % O ",
"-.$ # - - M R u.s.s...@ 0 3 4 @ w J ! ! ! #.T w 6 7 B z.l.7.2.%.! Y L P ! R N 6 r r V s M D Q o.Z C Z U } } C C 1 5 8 3 = : % O "
};
