/* XPM */
static char *result[] = {
/* columns rows colors chars-per-pixel */
"64 64 149 2 ",
"   c #FFFFFFFF",
".  c black",
"X  c #FF8800",
"o  c #FFEE00",
"O  c #FFEE11",
"+  c #FFFF11",
"@  c #FFFF22",
"#  c #EE7700",
"$  c #EE8800",
"%  c #FFAA00",
"&  c #FFFF33",
"*  c #DD7700",
"=  c #FF9900",
"-  c #FFCC00",
";  c #FFDD00",
":  c #FFDD11",
">  c #FFDD22",
",  c #FFEE33",
"<  c #FFDD33",
"1  c #FFCC33",
"2  c #FFBB33",
"3  c #DD6600",
"4  c #FF9911",
"5  c #FF9922",
"6  c #FFAA33",
"7  c #FFBB00",
"8  c #CC6600",
"9  c #EE9900",
"0  c #FFAA22",
"q  c #DD9900",
"w  c #EECC00",
"e  c #EEDD00",
"r  c #DDAA00",
"t  c #DDDD00",
"y  c #EEEE00",
"u  c #FFEE22",
"i  c #DD8800",
"p  c #DDCC00",
"a  c #DDBB00",
"s  c #CCAA00",
"d  c #CC7700",
"f  c #CCCC00",
"g  c #CCBB00",
"h  c #CC9900",
"j  c #CC8800",
"k  c #BB6600",
"l  c #BB5500",
"z  c #CC6611",
"x  c #BB6611",
"c  c #BB6622",
"v  c #AA6622",
"b  c #996622",
"n  c #AA7722",
"m  c #BB7711",
"M  c #885522",
"N  c #997744",
"B  c #887744",
"V  c #887755",
"C  c #776644",
"Z  c #665533",
"A  c #776633",
"S  c #775533",
"D  c #775522",
"F  c #AA6611",
"G  c #AA7733",
"H  c #777755",
"J  c #443322",
"K  c #555533",
"L  c #666644",
"P  c #665544",
"I  c #222222",
"U  c #555544",
"Y  c #333322",
"T  c #777744",
"R  c #774422",
"E  c #884411",
"W  c #995511",
"Q  c #BBAA00",
"!  c #222211",
"~  c #776655",
"^  c #774411",
"/  c #AA5500",
"(  c #AA8855",
")  c #998855",
"_  c #AA9977",
"`  c #999977",
"'  c #AAAA77",
"]  c #887766",
"[  c #886644",
"{  c #886622",
"}  c #998866",
"|  c #AAAA88",
" . c #554433",
".. c #774400",
"X. c #CC5500",
"o. c #886633",
"O. c #BBAA88",
"+. c #221111",
"@. c #444433",
"#. c #773300",
"$. c #AA5511",
"%. c #888866",
"&. c #552200",
"*. c #111111",
"=. c #442200",
"-. c #994400",
";. c #AA4400",
":. c #664422",
">. c #BBBB88",
",. c #BBBB99",
"<. c #664411",
"1. c #CCAA11",
"2. c #999966",
"3. c #CCBB99",
"4. c #CCCCAA",
"5. c #331100",
"6. c #CCBB11",
"7. c #553311",
"8. c #443333",
"9. c #CCBBAA",
"0. c #DDCCAA",
"q. c #DDDDBB",
"w. c #EEDDBB",
"e. c #EEDDCC",
"r. c #EEEECC",
"t. c #442211",
"y. c #110000",
"u. c #BB7700",
"i. c #BB9911",
"p. c #332200",
"a. c #EEEEDD",
"s. c #AA7700",
"d. c #CC9911",
"f. c #221100",
"g. c #AA9988",
"h. c #FFEEDD",
"j. c #DDDDCC",
"k. c #111100",
"l. c #BB9900",
"z. c #BBAA22",
"x. c #DDCCBB",
"c. c #CCCC11",
"v. c #BB9922",
"b. c #FFEEEE",
"n. c #BB8800",
"m. c #884400",
"M. c #FFFFEE",
"N. c #BBAA99",
"B. c white",
/* pixels */
"                                                                                                                                ",
"                                                                                                                                ",
"                                                                                                                                ",
"                                                                                                                                ",
"                                                                                                                                ",
"                                                                                                                                ",
"                                                                                                                                ",
"                                                                                                                                ",
"                                                                                                                                ",
"                                                  . . . . . . . . . .                                                           ",
"                                          . . . . X X X X o o O + @ @ . . . .                                                   ",
"                                      . . # # # $ X X X X % o o O + @ & & & & . .                                               ",
"                                  . . * * # # # X X X X X X = % - ; : > , < 1 2 2 . .                                           ",
"                                . 3 * * * # $ X X X X X X X X X X X X 4 5 6 6 6 6 2 2 .                                         ",
"                              . 3 * * * # # X % 7 % = X X X X X X X X X 4 4 5 5 6 6 2 2 . .                                     ",
"                            . 8 3 * * * 9 - o o o o ; = X X X X X X X X = 4 4 5 0 0 0 < & & . . .                               ",
"                          . 8 8 3 * q w e o o o o o o ; % X X X X X X X X X X X X X X % + + @ & & . . .                         ",
"                          . 8 3 * r t e e y o o o o o o o = X X X X X X X X X X X X X X % ; O u @ u 6 6 . .                     ",
"                        . 8 8 3 r t e e e e e e e e e e w # # # # # # # # # # # # # # X X X = 7 - % X 4 5 4 . .                 ",
"                      . 8 8 8 i w e t t t t e t t p p p i * * * * * * * * * * * * * # # # # # $ X X X X X X X 7 . .             ",
"                      . 8 8 3 q t t p p p p p p p p a i 8 8 8 3 3 3 3 3 3 3 3 * * * * * * * * # # # # # X X X X o o .           ",
"                    . 8 8 8 3 i p p p p p p p p p s d 8 8 8 3 * * * * 3 3 * * q q * * * * * * * * * * * # # X X % o o .         ",
"                  . 8 8 8 3 * * r p p p f g g h d 8 8 8 8 3 8 8 8 8 8 8 8 h g g g g h 8 3 3 * * * * * 3 * * * # X o o o .       ",
"                . g 8 3 3 * * * * i j j j d 8 8 8 8 8 8 8 8 8 8 8 8 8 8 d s s s g g g d 8 8 8 8 3 3 8 8 8 8 * * * w o o .       ",
"            . . a a 3 3 * * * 3 8 8 k l k 8 8 8 8 8 8 8 8 8 z x c v b b b v v v v v n m x x 8 8 8 8 8 8 8 8 8 8 8 r e o o .     ",
"          . a a a q * * * 3 8 k l l l k 8 8 8 8 z z x c v M N B V V C C Z C C A A S S A D M M b F x 8 8 8 8 8 8 8 d p e o .     ",
"        . a a a a * * * 8 k l l l l 8 8 8 8 z x n G B B H J K V L L P P I H H L P U Y H V T C S D R E W k 8 8 8 8 l Q p o o .   ",
"      . g g g r * 3 8 k l l l l 8 8 8 8 z c b J B V . . . . . . . . . . . . . . . . ! L L L C U ~ H C D ^ W k 8 8 l k s e o .   ",
"    . g g g s 8 8 l l / l l 8 8 8 8 z m G ( ) . . . _ _ _ _ ` _ _ _ _ _ _ _ _ _ ' ] . . . K Y ! C V V V [ D ^ / 8 l / l i - .   ",
"  . h s h j 8 8 l / / l k 8 8 8 z F { B } . . _ ` _ _ _ _ _ _ _ _ _ _ _ _ _ _ _ _ | | | ` . .  .U H H K P V D ..l X.l l 8 X .   ",
"  . 8 8 8 8 l / / / / l 8 8 8 F b o.J . . ' _ _ _ _ _ ' | | ' ' ' _ ' ' ' ' ' ' ' | O.O.O.| ` . +.+.! @.V V V ^ #.X.l / 8 $ .   ",
". 8 8 8 8 l / / / l k z 8 z $.{ ( | . %.` _ _ ' ' | O.O.O.O.| | | | | | | | | | | O.O.O.O.O.O.` .  .P L H V V D &./ l l 8 # .   ",
". 8 8 X.l / / / l k z z x W D C V . O.| ' | | O.O.O.O.O.O.O.O.O.O.O.O.O.O.O.O.O.O.O.O.O.O.O.O.O._ . *.U ~ H V M =.-.l l 8 .     ",
". 8 8 l / ;./ / l 8 z F ^ :.P @.. %.O.| O.O.O.O.O.O.O.O.O.O.O.O.O.O.O.O.>.O.O.O.O.O.O.. . . O.,.O.. ! Y Y K C <.=./ X.k 8 .     ",
". 8 X./ ;.;./ l j s 1.<.<.2._ . | | O.O.O.O.O.O.. . . O.O.O.>.,.,.3.4.4.4.4.4.4.3.3.. . . . . ,.>.I L C V H :.5.=.8 8 8 .       ",
". 8 l ;.;.;./ h g 6.<.7.B H 8.. _ O.O.O.O.O.O.. . . . . ,.9.0.q.w.e.r.r.r.r.r.r.q.q.. . . . . ,.,.O.. ~ H t.. y.-.8 8 8 .       ",
". 8 l ;.;.;.u.s s i.p.7. .I @.. | O.O.O.O.O.>.. . . . . q.e.r.a.. a.a.a.a.a.a.. a.r.r.. . . 4.4.3.,.. J y.. 5.k d 8 8 .         ",
". 8 l ;.;.;.s.Q s d.f.D ` } . g.O.O.O.O.O.,.,.,.. . . e.r.a.a.a.. h.a.a.. a.a.. a.a.a.r.r.j.q.0.4.3.,.. k.#.h g g j .           ",
". X.X./ ;.;./ l.g z.f.<._ . ` | O.O.O.>.,.,.3.4.0.q.r.r.a.a.h.h.h.. . . h.. . h.h.a.a.a.a.r.r.q.x.4.3.. z 8 d g c..             ",
"  . X.l ;.;.;.l d v.t.f.P . ` | | O.O.,.3.4.0.q.e.r.r.a.a.h.h.h.h.h.h.h.h.h.h.h.h.h.h.a.a.a.a.r.e.q.4.3.. 8 z . .               ",
"  . X.X.l / ;./ 8 8 W 5.f.` _ _ O.O.,.,.4.q.e.r.r.r.r.a.h.h.h.h.h.h.h.h.h.h.b.b.h.h.h.h.h.a.a.a.r.r.q.4.3.. .                   ",
"    . X.j n.s.u.8 8 8 m.. ` _ ' O.>.,.4.q.r.r.r.r.r.a.h.h.h.h.h.h.h.h.h.h.h.b.b.b.b.b.b.b.h.h.a.a.r.r.q.4.4..                   ",
"      . s s s Q s h 8 . ` _ _ | O.,.4.q.r.r.r.r.a.a.a.h.h.h.h.h.h.h.h.h.b.b.M.M.b.b.b.b.b.b.b.h.a.a.r.r.e.q.x..                 ",
"        . . s s g g . ` _ _ | | ,.4.q.r.r.r.r.r.a.a.h.h.h.h.h.h.h.h.h.b.b.b.M.b.b.b.b.b.b.b.b.b.h.h.a.a.r.e.q.x..               ",
"            . . . g . ` _ ' | O.4.q.r.r.r.r.r.a.a.h.h.h.h.h.h.h.h.h.h.M.b.b.M.M.b.b.b.b.M.M.b.b.b.h.h.a.r.r.e.q.x..             ",
"                  . ` _ _ | O.3.x.e.r.r.a.a.a.a.a.h.h.h.h.h.h.h.h.h.b.b.M.M.M.M.M.M.M.M.M.M.M.M.b.h.h.a.a.r.r.q.q..             ",
"                  . ` _ | | ,.4.q.r.r.r.a.a.r.a.a.a.h.a.h.h.h.h.h.h.b.M.M.M.M.M.M.M.M.M.M.M.M.M.M.b.h.h.a.a.r.e.q.q..           ",
"                  . ` _ | O.9.x.e.r.r.a.a.a.r.a.a.a.a.a.h.h.h.h.h.h.b.M.M.M.M.M.M.M.M.M.M.M.M.M.M.b.h.h.h.a.r.r.e.q..           ",
"                . ` ` ' | ,.4.q.r.r.r.a.a.a.a.a.a.a.a.a.h.h.h.h.h.h.h.h.M.M.M.M.M.M.M.M.M.M.M.M.M.b.h.h.h.a.a.r.e.q.q..         ",
"                . ` ` _ | ,.4.q.r.r.r.a.a.a.a.a.a.a.a.a.h.h.h.h.h.h.h.h.h.b.b.b.M.M.M.M.M.M.M.M.b.h.h.h.h.a.a.r.e.e.q..         ",
"                . ` _ _ | ,.x.e.r.r.r.a.a.a.a.a.a.a.a.a.a.h.h.h.h.h.h.h.h.h.h.h.h.h.M.M.M.b.b.h.h.h.h.h.h.a.a.r.r.e.j..         ",
"                . ` _ _ | 3.x.e.r.a.a.a.a.a.a.a.a.a.a.a.a.a.h.h.h.h.h.h.h.h.h.h.h.h.h.b.h.h.h.h.h.h.h.h.h.h.a.a.r.e.e..         ",
"                . ` ` _ | 3.x.j.r.r.a.a.a.a.a.a.a.a.a.a.a.a.a.a.h.h.h.h.h.h.h.h.h.h.h.h.h.h.h.h.h.h.h.h.h.h.a.a.r.e.e..         ",
"                . ` ` _ | ,.4.q.r.r.r.a.a.a.a.a.a.a.a.a.a.a.a.a.a.a.h.h.h.h.h.h.h.h.h.h.h.h.h.h.h.h.h.h.h.h.a.a.r.r.r..         ",
"                . ` ` _ | O.9.q.e.r.r.r.r.a.a.a.a.a.a.a.a.a.a.a.a.a.a.h.h.h.h.h.h.h.h.h.h.h.h.h.h.h.h.h.h.a.a.a.r.e.q..         ",
"                . ` ` _ ' O.,.4.q.e.r.r.r.r.a.a.a.a.a.a.a.a.a.a.a.a.a.a.h.h.h.h.h.h.h.h.h.h.h.h.h.h.h.h.h.a.a.r.e.e..           ",
"                  . ` ` _ | O.3.0.q.e.e.r.r.r.r.a.a.a.a.a.a.r.r.r.a.a.a.a.a.a.a.a.h.h.a.h.h.h.h.h.h.a.a.a.a.r.r.e.q..           ",
"                  . ` ` _ | O.N.3.4.q.q.j.e.e.r.r.r.r.r.r.r.r.r.r.r.r.a.a.a.a.a.a.a.a.a.a.a.a.a.a.r.r.r.r.r.e.e.q..             ",
"                    . ` ` _ | O.N.,.4.4.x.x.q.q.q.q.j.e.e.e.e.e.r.e.r.r.r.r.r.r.r.r.r.r.r.r.r.r.r.e.e.e.e.e.q.q.x..             ",
"                      . ` _ _ | O.O.,.,.3.9.4.4.0.x.x.q.q.q.q.q.q.q.q.q.q.q.q.q.q.j.j.e.e.e.j.j.q.q.q.q.q.x.4.4..               ",
"                        . ` _ _ | | O.O.N.,.,.,.3.3.9.4.4.4.4.4.0.x.x.x.x.x.x.x.x.x.q.x.q.q.x.x.x.4.4.4.4.4.9..                 ",
"                          . . _ _ | | O.O.O.O.O.O.,.,.,.,.,.,.,.,.3.3.9.9.9.4.4.4.4.4.4.4.4.4.9.3.3.,.,.3.. .                   ",
"                              . . . . | | O.O.O.O.O.O.O.O.O.O.O.O.O.O.O.O.O.,.,.,.,.,.,.,.,.,.O.O.. . . .                       ",
"                                      . . . . . . . . . . . . . . . . . . . . . . . . . . . . . .                               "
};
