/* XPM */
static char *result[] = {
/* columns rows colors chars-per-pixel */
"64 64 151 2 ",
"   c #FFFFFFFF",
".  c black",
"X  c #FF8800",
"o  c #FF9900",
"O  c #FF9911",
"+  c #FFAA22",
"@  c #FFBB22",
"#  c #FF9922",
"$  c #FFEE22",
"%  c #FFFF33",
"&  c #EE7700",
"*  c #FFBB00",
"=  c #FFCC00",
"-  c #FFCC22",
";  c #FFFF22",
":  c #DD6600",
">  c #DD7700",
",  c #EE9900",
"<  c #FFDD00",
"1  c #FFEE00",
"2  c #FFDD22",
"3  c #CC6600",
"4  c #EEAA00",
"5  c #FF7700",
"6  c #EE8800",
"7  c #FF8811",
"8  c #EEDD00",
"9  c #EECC00",
"0  c #DDBB00",
"q  c #DDCC00",
"w  c #CCBB00",
"e  c #CCAA00",
"r  c #BB5500",
"t  c #BB6600",
"y  c #BB7700",
"u  c #CC5500",
"i  c #CC7700",
"p  c #BB9900",
"a  c #FFBB11",
"s  c #BB8800",
"d  c #BBAA00",
"f  c #AA5500",
"g  c #AA7700",
"h  c #AA9900",
"j  c #CC9900",
"k  c #995500",
"l  c #995511",
"z  c #885511",
"x  c #885522",
"c  c #996622",
"v  c #996633",
"b  c #996611",
"n  c #AA6611",
"m  c #DD9900",
"M  c #CC8800",
"N  c #AA5511",
"B  c #884411",
"V  c #774411",
"C  c #664411",
"Z  c #664422",
"A  c #775533",
"S  c #776633",
"D  c #776644",
"F  c #887744",
"G  c #887755",
"H  c #665544",
"J  c #886644",
"K  c #886633",
"L  c #221100",
"P  c #665522",
"I  c #666644",
"U  c #332211",
"Y  c #554433",
"T  c #554422",
"R  c #DD8800",
"E  c #553311",
"W  c #665533",
"Q  c #333322",
"!  c #777744",
"~  c #222211",
"^  c #777755",
"/  c #443311",
"(  c #332200",
")  c #DDAA00",
"_  c #553322",
"`  c #111100",
"'  c #555533",
"]  c #444433",
"[  c #444422",
"{  c #221111",
"}  c #332222",
"|  c #555544",
" . c #111111",
".. c #994400",
"X. c #998866",
"o. c #999977",
"O. c #110000",
"+. c #552200",
"@. c #AA9977",
"#. c #443322",
"$. c #663300",
"%. c #AAAA77",
"&. c #AA4400",
"*. c #AA8800",
"=. c #776655",
"-. c #AA8866",
";. c #AAAA88",
":. c #885500",
">. c #998855",
",. c #886600",
"<. c #BBAA88",
"1. c #BBBB99",
"2. c #CCBB99",
"3. c #DDCCAA",
"4. c #DDCCBB",
"5. c #DDDDBB",
"6. c #EEDDCC",
"7. c #AA9966",
"8. c #EEEECC",
"9. c #EEEEDD",
"0. c #442200",
"q. c #331100",
"w. c white",
"e. c #FFEEDD",
"r. c #222222",
"t. c #997700",
"y. c #EEBB00",
"u. c #CCCCAA",
"i. c #443300",
"p. c #887766",
"a. c #BBBB88",
"s. c #554400",
"d. c #CC0000",
"f. c #BB0000",
"g. c #770000",
"h. c #BB8811",
"j. c #BB7711",
"k. c #888877",
"l. c #220000",
"z. c #BB7733",
"x. c #AA6600",
"c. c gray60",
"v. c #CCCCBB",
"b. c #BB9911",
"n. c #FFEEEE",
"m. c #FFFFDD",
"M. c #CCBBAA",
"N. c #FFFFEE",
"B. c #DDDDCC",
"V. c #BBAA99",
"C. c #EEDDBB",
/* pixels */
"                                                      . . . . . . . . . .                                                       ",
"                                                . . . X X X X X o O O + @ . . . . .                                             ",
"                                          . . . X X X X X X X X X X O O # + @ $ % % . . .                                       ",
"                                      . . & & o * = * o X X X X X X X X O O O + - ; ; ; % . .                                   ",
"                                  . . : > , = < 1 1 1 1 < o X X X X X X X X O O # + - 2 $ ; ; . .                               ",
"                                . 3 : > 4 < 1 1 1 1 1 1 < < X 5 & & & & & & & 6 X X 7 O O O # + @ . . .                         ",
"                              . 3 3 : 4 8 < < < < < < 8 9 , > : : : : : : : : : > > > & & 6 X O O + + + . .                     ",
"                            . 3 3 > 0 8 < 8 8 9 q 0 w e 3 r r r r r r r r r t y y y r u 3 3 : > & X O O # # . .                 ",
"                          . 3 3 i q 8 8 9 0 w e p p p t r r r r r r r r r y p p p p p t r r r r 3 3 > 6 X o O a .               ",
"                        . 3 3 : 0 9 q w e p p p p y r r r r r r r r r r s p p p p p p p t r r r r r r 3 : & 6 o 1 .             ",
"                      . 3 3 : : 0 e d p p p s y r f r r r r r f f f f g h h h h h h h p t r r f f r r r r 3 : & = 1 .           ",
"                    . j 3 : 3 3 p p p s t r f f f f r f f k l z z x c v v v v c b n b g g f f f f f f r r r 3 3 m 8 < .         ",
"                  . e M 3 3 3 r r r r r f f f N N k B V C Z A S D F F G H G G G G F J K K x V l f f f f r r r 3 : q 8 < .       ",
"                . e e i 3 r r r r r r f f N n z L C P D I G G G G G G G U G G G G G G Y D D D T L V f f f r r r 3 R q 8 < .     ",
"              . w j 3 3 r r r r r r f f n x L E W F G G Q G G F F F F D . D G G G ! H ~ D G G ^ D D / ( f f f r r 3 ) 9 < .     ",
"            . w M 3 3 r r r r r r f f l L _ D ^ G G G D ` ' D D ' ] [ ` . ] ' ' Y { . ~ ^ ^ ^ H Q G ^ J / L f f r r 3 m 9 < .   ",
"          . 0 > 3 3 r r r r r r f f L ` W D D Y ! D D Y Q . } . . . . . . . . . . . . ] | H H  .Q ^ ^ ^ ^ S L f r r r : & 4 .   ",
"        . 0 R : 3 r r r r r r f ... Q D G ^ !  . .[ ] . . . . X.o.o.o.o.o.o.o.o.o.X.. . . O.. . I I | Q ~ ^ Y ~ f r r 3 > & X . ",
"        . > : 3 r r r r r f r +.. _ ^ ^ ^ ^ I ' ' . . X.@.@.@.@.@.@.@.@.@.@.@.@.@.@.@.o.X.. . ] Y [ } ` | ^ ^ #.L r r r : & X . ",
"      . : : 3 r r r f f f f $.L #.G ] H I W ' . . X.@.@.@.@.@.@.@.@.@.@.@.%.%.%.%.%.%.%.@.@.o..  .. . I I ^ ^ D . &.r r 3 & & . ",
"      . > 3 r r r g *.h p ( . T =.^ I ~ . . . G -.@.@.@.@.%.;.%.%.%.%.%.%.%.%.%.%.%.%.%.;.%.@.@..  .Q | D =.I Y ' ` r r 3 > & . ",
"    . 3 : 3 r s h h p p :.L W D ^ ^ D I ] . >.@.@.%.%.;.;.;.;.;.;.;.;.;.;.;.;.;.;.;.;.;.;.;.%.;.@.. ] ] Q ~ ~ I I . r r 3 > & . ",
"    . : 3 r s p h p p ,.. #.D ^ ^ =.| Q . G <.;.;.<.<.<.<.<.<.<.<.1.1.1.1.2.2.2.2.1.<.<.;.;.;.;.;.;.. ` ` ' I D =.. &.r 3 > & . ",
"    . : 3 y p h p d p ( ( G G ~ ~ ` . . D %.<.<.<.<.. . . <.1.2.3.4.5.5.5.5.5.6.6.5.5.3.2.. . . ;.;.. ~ ] I D =.D . &.r 3 & & . ",
"    . : 3 p p h p e ,.O.J G ^ ^ I ] Y . 7.<.<.<.<.. . . . . 5.6.6.8.8.8.8.8.8.9.9.8.8.8.. . . . . ;.;.. . `  .[ | . r r 3 & .   ",
"    . : 3 p h p p e 0.` ^ G ^ ^ I ~ . G %.<.<.<.<.. . . . . 8.8.9.9.. 9.9.9.. 9.9.. 9.9. .. . . . 5.;.. Q ] Q ' ` L t 3 : & .   ",
"    . : i p h p d e q.{ ^ G Y Q  .` . @.<.<.<.<.1.5.. . . 9.9.9.9.9.9.. . . w.. . e.e.e.9.r. .` 8.5.5.. ] ] I ] . t.p e 0 y..   ",
"    . : 3 p h p d e $.. ~ r.~  .Y I . @.<.<.<.1.u.5.9.9.9.9.9.9.9.9.9.. w.w.w.w.. e.e.e.e.e.e.9.9.8.5.4.. D W . i.p p e 9 .     ",
"    . > 3 s h p d e *.. H =.^ ^ I . p.;.<.a.1.u.5.8.9.9.9.9.9.9.9.e.e.. O.. . . . e.e.e.e.e.e.e.9.9.8.6.. D . s.p p p 0 8 .     ",
"      . 3 t s p d e e ( ` ^ ' ~  .. @.<.a.1.u.5.8.9.9.9.9.9.9.9.e.e.e.. d.f.g.. . e.e.e.e.e.e.e.e.9.9.8.6.. 0.p p p e q .       ",
"      . : r r s p e e s . ` Q ~ [ . ;.1.1.2.4.8.9.9.9.9.9.9.9.e.e.e.e.. d.d.d.. . e.e.e.e.e.e.e.e.e.9.8.8.6.. h.h p e .         ",
"      . : 3 r r r t 3 j.f . . #.. ;.a.1.1.u.6.9.9.9.9.9.9.9.e.e.e.e.e.k.. d.d.l.k.e.e.e.e.e.e.e.e.e.9.9.8.8.. z.s . .           ",
"        . 3 r r r r r r n N . . . 1.1.1.u.5.8.9.9.9.9.9.9.e.e.e.e.e.e.e.. d.d.. e.e.e.e.e.e.e.e.e.e.e.9.9.8.6.. .               ",
"          . i t t t y y x.r r r . 1.1.2.4.8.9.9.9.9.9.9.e.e.e.e.e.e.e.e.c.. . v.e.e.e.e.e.e.e.e.e.e.e.9.9.8.8..                 ",
"            . w p p p p p p r L 1.1.1.u.6.9.9.9.9.9.9.9.e.e.e.e.e.e.e.e.e.e.e.e.e.e.e.e.e.e.e.e.e.e.e.e.9.9.8.5..               ",
"              . w d p p p p r . 1.1.1.4.8.9.9.9.9.9.9.e.e.e.e.e.e.e.e.e.e.e.e.e.e.e.e.e.e.e.e.e.e.e.e.e.9.9.8.8..               ",
"                . . . p b.h.l.1.1.1.u.5.8.9.9.9.9.9.9.9.e.e.e.e.e.e.e.e.e.e.e.e.e.e.e.e.e.e.e.e.e.e.e.e.e.9.9.8.5..             ",
"                      . . . . 1.1.1.u.5.8.9.9.9.9.9.9.9.e.e.e.e.e.e.e.e.e.e.e.e.e.e.e.e.e.e.e.e.e.e.e.e.e.9.9.9.8..             ",
"                          . 1.1.1.2.4.6.8.9.9.9.9.9.9.9.e.e.e.e.e.e.e.e.e.e.e.e.e.e.e.e.e.e.e.e.e.n.m.e.e.9.9.9.8..             ",
"                          . 1.1.1.M.4.6.8.9.9.9.9.9.9.9.9.e.e.e.e.e.e.e.e.e.e.e.e.e.e.e.e.e.e.e.e.n.N.e.e.9.9.9.8..             ",
"                          . 1.1.1.u.4.6.8.8.9.9.9.9.9.9.9.e.e.e.e.e.e.e.e.e.e.e.e.e.e.e.e.e.e.e.e.N.N.e.e.9.9.9.8..             ",
"                        . 1.1.1.1.u.4.5.8.8.9.9.9.9.9.9.9.e.e.e.e.e.e.e.e.e.e.e.e.e.e.e.e.e.e.e.n.N.N.e.e.9.9.9.8.8..           ",
"                        . 1.1.1.1.2.u.5.6.8.8.9.9.9.9.9.9.9.e.e.e.e.e.e.e.e.e.e.e.e.e.e.e.e.e.e.e.N.n.e.e.9.9.9.8.8..           ",
"                        . 2.1.1.1.2.u.5.6.8.8.9.9.9.9.9.9.9.9.e.e.e.e.e.e.e.e.e.e.e.e.e.e.e.e.e.n.N.e.e.e.9.9.9.8.8..           ",
"                        . 2.2.1.1.2.u.4.5.6.8.8.9.9.9.9.9.9.9.9.e.e.e.e.e.e.e.e.e.e.e.e.e.e.e.e.m.e.e.9.9.9.9.8.8.8..           ",
"                        . 2.2.1.1.1.u.u.5.5.6.8.8.9.9.9.9.9.9.e.e.e.e.e.e.e.e.e.e.e.e.e.e.e.e.n.e.e.e.9.9.9.9.8.8.8..           ",
"                        . M.2.1.1.1.M.u.4.5.5.8.8.8.9.9.9.9.9.9.e.e.e.e.e.e.e.e.e.e.e.e.e.e.e.e.e.e.9.9.9.9.9.8.8.8..           ",
"                        . M.2.1.1.1.2.u.u.5.5.5.6.8.8.8.9.9.9.9.9.e.e.e.e.e.e.e.e.n.n.e.e.e.e.e.e.e.9.9.9.9.9.8.8.6..           ",
"                        . u.2.1.1.1.1.M.u.4.5.5.B.8.8.8.9.9.9.9.9.9.e.e.e.e.e.e.e.e.e.e.e.e.e.e.e.9.9.9.9.9.9.8.8.6..           ",
"                        . u.M.1.1.1.1.1.u.u.4.5.5.5.6.8.8.9.9.9.9.9.9.9.e.e.e.e.e.e.e.e.e.e.e.e.9.9.9.9.9.9.8.8.6.5..           ",
"                          . u.2.1.<.V.1.2.u.u.3.4.5.5.6.8.8.9.9.9.9.9.9.9.9.9.9.9.e.e.9.9.9.9.9.9.9.9.9.9.8.8.6.5..             ",
"                          . u.M.1.<.<.<.1.1.u.u.3.4.5.5.5.6.8.8.9.9.9.9.9.9.9.9.9.9.9.9.9.9.9.9.9.9.8.8.9.8.6.B.5..             ",
"                          . u.u.2.1.<.;.<.1.2.u.u.3.3.4.5.5.5.6.8.8.8.9.9.9.9.9.9.9.9.9.9.9.8.8.8.8.8.8.8.8.B.5.4..             ",
"                            . u.u.1.<.;.;.<.1.1.M.u.u.u.3.4.4.5.5.6.8.8.8.8.8.8.8.8.8.8.8.8.8.6.8.8.8.8.6.5.5.4..               ",
"                            . u.u.M.1.<.<.;.<.1.1.2.u.u.u.u.3.4.4.5.5.5.6.6.6.6.6.6.B.B.B.B.5.C.6.6.6.6.5.5.3..                 ",
"                              . u.u.u.1.V.<.;.<.V.1.2.M.u.u.u.u.3.3.4.4.5.5.5.5.5.5.5.5.5.5.5.5.5.B.6.5.4.u.u..                 ",
"                                . 3.u.M.1.V.<.;.;.<.1.1.2.u.u.u.u.u.u.u.3.3.4.4.4.4.4.3.3.3.4.5.5.5.5.4.u.u..                   ",
"                                  . u.u.u.1.V.<.<.<.<.1.1.2.2.M.u.u.u.u.u.u.u.u.u.u.u.u.u.u.4.4.4.4.3.u.u..                     ",
"                                    . u.3.u.M.1.V.<.<.V.1.1.1.1.2.2.2.M.M.u.u.u.u.u.u.u.u.u.3.3.3.u.u.u..                       ",
"                                      . . u.u.u.2.1.1.1.1.1.1.1.1.1.2.2.2.2.M.M.M.u.u.u.u.u.u.u.u.u.u..                         ",
"                                          . . 3.u.u.2.1.1.1.1.1.1.1.1.1.2.2.2.2.M.M.u.u.u.u.u.u.u.. .                           ",
"                                              . . 3.u.u.M.2.1.1.1.1.1.2.2.2.2.2.2.M.u.u.u.M.. . .                               ",
"                                                  . . . 3.u.u.u.u.u.u.u.M.u.u.u.u.u.. . . .                                     ",
"                                                        . . . . . . . . . . . . . .                                             "
};
