/* XPM */
static char *result[] = {
/* columns rows colors chars-per-pixel */
"64 64 148 2 ",
"   c black",
".  c #110000",
"X  c #111100",
"o  c #111111",
"O  c #221100",
"+  c #331100",
"@  c #221111",
"#  c #332200",
"$  c #222211",
"%  c #222222",
"&  c #333322",
"*  c #442200",
"=  c #552200",
"-  c #442211",
";  c #553311",
":  c #773300",
">  c #443322",
",  c #443333",
"<  c #774400",
"1  c #664411",
"2  c #774411",
"3  c #444433",
"4  c #554433",
"5  c #555533",
"6  c #664422",
"7  c #774422",
"8  c #775522",
"9  c #665533",
"0  c #775533",
"q  c #776633",
"w  c #555544",
"e  c #665544",
"r  c #666644",
"t  c #776644",
"y  c #777744",
"u  c #776655",
"i  c #777755",
"p  c #884400",
"a  c #994400",
"s  c #884411",
"d  c #995511",
"f  c #AA4400",
"g  c #AA5500",
"h  c #BB5500",
"j  c #AA5511",
"k  c #BB6600",
"l  c #AA7700",
"z  c #BB7700",
"x  c #AA6611",
"c  c #BB6611",
"v  c #BB7711",
"b  c #885522",
"n  c #886622",
"m  c #996622",
"M  c #886633",
"N  c #AA6622",
"B  c #BB6622",
"V  c #AA7722",
"C  c #AA7733",
"Z  c #CC5500",
"A  c #CC6600",
"S  c #DD6600",
"D  c #CC7700",
"F  c #DD7700",
"G  c #CC6611",
"H  c #EE7700",
"J  c #886644",
"K  c #887744",
"L  c #997744",
"P  c #887755",
"I  c #887766",
"U  c #BB8800",
"Y  c #BB9900",
"T  c #BB9911",
"R  c #BBAA00",
"E  c #BB9922",
"W  c #BBAA22",
"Q  c #CC8800",
"!  c #DD8800",
"~  c #CC9900",
"^  c #DD9900",
"/  c #CC9911",
"(  c #EE8800",
")  c #FF8800",
"_  c #EE9900",
"`  c #FF9900",
"'  c #FF9911",
"]  c #CCAA00",
"[  c #DDAA00",
"{  c #CCBB00",
"}  c #DDBB00",
"|  c #CCAA11",
" . c #CCBB11",
".. c #FFAA00",
"X. c #FFBB00",
"o. c #FF9922",
"O. c #FFAA22",
"+. c #FFAA33",
"@. c #FFBB33",
"#. c #CCCC00",
"$. c #DDCC00",
"%. c #DDDD00",
"&. c #CCCC11",
"*. c #EECC00",
"=. c #FFCC00",
"-. c #EEDD00",
";. c #FFDD00",
":. c #FFDD11",
">. c #EEEE00",
",. c #FFEE00",
"<. c #FFEE11",
"1. c #FFFF11",
"2. c #FFDD22",
"3. c #FFCC33",
"4. c #FFDD33",
"5. c #FFEE22",
"6. c #FFFF22",
"7. c #FFEE33",
"8. c #FFFF33",
"9. c #998855",
"0. c #AA8855",
"q. c #888866",
"w. c #998866",
"e. c #999966",
"r. c #999977",
"t. c #AA9977",
"y. c #AAAA77",
"u. c #FFFFFFFF",
"i. c #AA9988",
"p. c #AAAA88",
"a. c #BBAA88",
"s. c #BBBB88",
"d. c #BBAA99",
"f. c #BBBB99",
"g. c #CCBB99",
"h. c #CCBBAA",
"j. c #CCCCAA",
"k. c #DDCCAA",
"l. c #DDCCBB",
"z. c #DDDDBB",
"x. c #EEDDBB",
"c. c #DDDDCC",
"v. c #EEDDCC",
"b. c #EEEECC",
"n. c #EEEEDD",
"m. c #FFEEDD",
"M. c #FFEEEE",
"N. c #FFFFEE",
/* pixels */
"u.u.u.u.u.u.u.u.u.u.u.u.u.u.u.u.u.u.u.u.u.u.u.u.u.u.u.u.u.u.u.u.u.u.u.u.u.u.u.u.u.u.u.u.u.u.u.u.u.u.u.u.u.u.u.u.u.u.u.u.u.u.u.u.",
"u.u.u.u.u.u.u.u.u.u.u.u.u.u.u.u.u.u.u.u.u.u.u.u.u.u.u.u.u.u.u.u.u.u.u.u.u.u.u.u.u.u.u.u.u.u.u.u.u.u.u.u.u.u.u.u.u.u.u.u.u.u.u.u.",
"u.u.u.u.u.u.u.u.u.u.u.u.u.u.u.u.u.u.u.u.u.u.u.u.u.u.u.u.u.u.u.u.u.u.u.u.u.u.u.u.u.u.u.u.u.u.u.u.u.u.u.u.u.u.u.u.u.u.u.u.u.u.u.u.",
"u.u.u.u.u.u.u.u.u.u.u.u.u.u.u.u.u.u.u.u.u.u.u.u.u.u.u.u.u.u.u.u.u.u.u.u.u.u.u.u.u.u.u.u.u.u.u.u.u.u.u.u.u.u.u.u.u.u.u.u.u.u.u.u.",
"u.u.u.u.u.u.u.u.u.u.u.u.u.u.u.u.u.u.u.u.u.u.u.u.u.u.u.u.u.u.u.u.u.u.u.u.u.u.u.u.u.u.u.u.u.u.u.u.u.u.u.u.u.u.u.u.u.u.u.u.u.u.u.u.",
"u.u.u.u.u.u.u.u.u.u.u.u.u.u.u.u.u.u.u.u.u.u.u.u.u.u.u.u.u.u.u.u.u.u.u.u.u.u.u.u.u.u.u.u.u.u.u.u.u.u.u.u.u.u.u.u.u.u.u.u.u.u.u.u.",
"u.u.u.u.u.u.u.u.u.u.u.u.u.u.u.u.u.u.u.u.u.u.u.u.u.u.u.u.u.u.u.u.u.u.u.u.u.u.u.u.u.u.u.u.u.u.u.u.u.u.u.u.u.u.u.u.u.u.u.u.u.u.u.u.",
"u.u.u.u.u.u.u.u.u.u.u.u.u.u.u.u.u.u.u.u.u.u.u.u.u.u.u.u.u.u.u.u.u.u.u.u.u.u.u.u.u.u.u.u.u.u.u.u.u.u.u.u.u.u.u.u.u.u.u.u.u.u.u.u.",
"u.u.u.u.u.u.u.u.u.u.u.u.u.u.u.u.u.u.u.u.u.u.u.u.u.u.u.u.u.u.u.u.u.u.u.u.u.u.u.u.u.u.u.u.u.u.u.u.u.u.u.u.u.u.u.u.u.u.u.u.u.u.u.u.",
"u.u.u.u.u.u.u.u.u.u.u.u.u.u.u.u.u.u.u.u.u.u.u.u.u.u.u.u.u.                    u.u.u.u.u.u.u.u.u.u.u.u.u.u.u.u.u.u.u.u.u.u.u.u.u.",
"u.u.u.u.u.u.u.u.u.u.u.u.u.u.u.u.u.u.u.u.u.u.u.u.u.        6.6.1.<.,.,.) ) ) )         u.u.u.u.u.u.u.u.u.u.u.u.u.u.u.u.u.u.u.u.u.",
"u.u.u.u.u.u.u.u.u.u.u.u.u.u.u.u.u.u.u.u.u.u.u.    8.8.8.8.6.1.<.,.,...) ) ) ) ( H H H     u.u.u.u.u.u.u.u.u.u.u.u.u.u.u.u.u.u.u.",
"u.u.u.u.u.u.u.u.u.u.u.u.u.u.u.u.u.u.u.u.u.    @.@.3.4.7.2.:.;.=...` ) ) ) ) ) ) H H H F F     u.u.u.u.u.u.u.u.u.u.u.u.u.u.u.u.u.",
"u.u.u.u.u.u.u.u.u.u.u.u.u.u.u.u.u.u.u.u.  @.@.+.+.+.+.o.' ) ) ) ) ) ) ) ) ) ) ) ) ( H F F F S   u.u.u.u.u.u.u.u.u.u.u.u.u.u.u.u.",
"u.u.u.u.u.u.u.u.u.u.u.u.u.u.u.u.u.u.    @.@.+.+.o.o.' ' ) ) ) ) ) ) ) ) ) ` ..X...) H H F F F S   u.u.u.u.u.u.u.u.u.u.u.u.u.u.u.",
"u.u.u.u.u.u.u.u.u.u.u.u.u.u.u.      8.8.4.O.O.O.o.' ' ` ) ) ) ) ) ) ) ) ` ;.,.,.,.,.=._ F F F S A   u.u.u.u.u.u.u.u.u.u.u.u.u.u.",
"u.u.u.u.u.u.u.u.u.u.u.u.      8.8.6.1.1...) ) ) ) ) ) ) ) ) ) ) ) ) ) ..;.,.,.,.,.,.,.-.*.^ F S A A   u.u.u.u.u.u.u.u.u.u.u.u.u.",
"u.u.u.u.u.u.u.u.u.u.    +.+.5.6.5.<.;...) ) ) ) ) ) ) ) ) ) ) ) ) ) ` ,.,.,.,.,.,.,.>.-.-.%.[ F S A   u.u.u.u.u.u.u.u.u.u.u.u.u.",
"u.u.u.u.u.u.u.u.    ' o.' ) ..=.X.` ) ) ) H H H H H H H H H H H H H H *.-.-.-.-.-.-.-.-.-.-.%.[ S A A   u.u.u.u.u.u.u.u.u.u.u.u.",
"u.u.u.u.u.u.    X.) ) ) ) ) ) ) ( H H H H H F F F F F F F F F F F F F ! $.$.$.%.%.-.%.%.%.%.-.*.! A A A   u.u.u.u.u.u.u.u.u.u.u.",
"u.u.u.u.u.  ,.,.) ) ) ) H H H H H F F F F F F F F S S S S S S S S A A A ! } $.$.$.$.$.$.$.$.%.%.^ S A A   u.u.u.u.u.u.u.u.u.u.u.",
"u.u.u.u.  ,.,...) ) H H F F F F F F F F F F F ^ ^ F F S S F F F F S A A A D ] $.$.$.$.$.$.$.$.$.! S A A A   u.u.u.u.u.u.u.u.u.u.",
"u.u.u.  ,.,.,.) H F F F S F F F F F S S A ~ { { { { ~ A A A A A A A S A A A A D ~ { { #.$.$.$.[ F F S A A A   u.u.u.u.u.u.u.u.u.",
"u.u.u.  ,.,.*.F F F A A A A S S A A A A D { { { ] ] ] D A A A A A A A A A A A A A A D Q Q Q ! F F F F S S A {   u.u.u.u.u.u.u.u.",
"u.u.  ,.,.-.[ A A A A A A A A A A A c c v V N N N N N m m m N B c G A A A A A A A A A k h k A A S F F F S S } }     u.u.u.u.u.u.",
"u.u.  ,.-.$.D A A A A A A A c x m b b 8 q 0 0 q q t t 9 t t P P K L b N B c G G A A A A k h h h k A S F F F ^ } } }   u.u.u.u.u.",
"u.  ,.,.$.R h A A A A k d s 7 8 0 t y P i & w e r i i % e e r r P 5 > i K K C V c G A A A A h h h h k A F F F } } } }   u.u.u.u.",
"u.  ,.-.] k h A A k d 2 8 t i u w t r r r $                                 P K > m B G A A A A h h h h k A S F [ { { {   u.u.u.",
"u.  =.! h g h A g 2 8 J P P P t $ & 5       I y.t.t.t.t.t.t.t.t.t.r.t.t.t.t.      9.0.C v G A A A A h h g h h A A ] { { {   u.u.",
"u.  ) A h h Z h < 8 P e 5 i i w 4     r.p.p.p.t.t.t.t.t.t.t.t.t.t.t.t.t.t.t.t.r.t.    w.K n x G A A A k h g g h A A Q ~ ] ~   u.",
"u.  ( A g h Z : 2 P P P 3 $ @ @   r.p.a.a.a.p.y.y.y.y.y.y.y.t.y.y.y.p.p.y.t.t.t.t.t.y.    > M m x A A A h g g g g h A A A A   u.",
"u.  H A h h g = 8 P P i r e 4   r.a.a.a.a.a.a.p.p.p.p.p.p.p.p.p.p.p.a.a.a.a.p.y.y.t.t.r.q.  p.0.n j G A G k h g g g h A A A A   ",
"u.u.  A h h a * b P i u w o   t.a.a.a.a.a.a.a.a.a.a.a.a.a.a.a.a.a.a.a.a.a.a.a.a.a.p.p.y.p.a.  P t 8 d c G G k h g g g h Z A A   ",
"u.u.  A k Z g * 1 t 5 & & $   a.f.a.      a.a.a.a.a.a.s.a.a.a.a.a.a.a.a.a.a.a.a.a.a.a.a.p.a.q.  3 e 6 2 x G A h g g f g h A A   ",
"u.u.u.  A A A * + 6 i P t r % s.f.          g.g.j.j.j.j.j.j.g.f.f.s.a.a.a.      a.a.a.a.a.a.p.p.  t.e.1 1 | ] Q h g f f g Z A   ",
"u.u.u.  A A A a .   - i u   a.f.f.          z.z.b.b.b.b.b.b.v.x.z.k.h.f.          a.a.a.a.a.a.t.  , i K ; 1  .{ ~ g f f f h A   ",
"u.u.u.u.  A A D k +   . >   f.g.j.j.      b.b.n.  n.n.n.n.n.n.  n.b.v.z.          s.a.a.a.a.a.p.  3 % 4 ; # T ] ] z f f f h A   ",
"u.u.u.u.u.  Q { { ~ : X   f.g.j.k.z.c.b.b.n.n.n.  n.n.  n.n.m.  n.n.n.b.v.      f.f.f.a.a.a.a.a.i.  w.r.8 O / ] R l f f f h A   ",
"u.u.u.u.u.u.  &.{ D A G   g.j.l.z.b.b.n.n.n.n.m.m.    m.      m.m.m.n.n.b.b.z.k.j.g.f.f.s.a.a.a.p.r.  t.1 O W { Y g f f g Z Z   ",
"u.u.u.u.u.u.u.    G A   g.j.z.v.b.n.n.n.n.m.m.m.m.m.m.m.m.m.m.m.m.m.m.n.n.b.b.v.z.k.j.g.f.a.a.p.p.r.  e O - E D h f f f h Z   u.",
"u.u.u.u.u.u.u.u.u.    g.j.z.b.b.n.n.n.m.m.m.m.m.M.M.m.m.m.m.m.m.m.m.m.m.n.b.b.b.b.v.z.j.f.f.a.a.t.t.r.O + d A A g f g h Z Z   u.",
"u.u.u.u.u.u.u.u.u.  j.j.z.b.b.n.n.m.m.M.M.M.M.M.M.M.m.m.m.m.m.m.m.m.m.m.m.n.b.b.b.b.b.z.j.f.s.a.y.t.r.  p A A A z l U Q Z   u.u.",
"u.u.u.u.u.u.u.u.  l.z.v.b.b.n.n.m.M.M.M.M.M.M.M.N.N.M.M.m.m.m.m.m.m.m.m.m.n.n.n.b.b.b.b.z.j.f.a.p.t.t.r.  A ~ ] R ] ] ]   u.u.u.",
"u.u.u.u.u.u.u.  l.z.v.b.n.n.m.m.M.M.M.M.M.M.M.M.M.N.M.M.M.m.m.m.m.m.m.m.m.m.n.n.b.b.b.b.b.z.j.f.p.p.t.t.r.  { { ] ]     u.u.u.u.",
"u.u.u.u.u.u.  l.z.v.b.b.n.m.m.M.M.M.N.N.M.M.M.M.N.N.M.M.N.m.m.m.m.m.m.m.m.m.m.n.n.b.b.b.b.b.z.j.a.p.y.t.r.  {       u.u.u.u.u.u.",
"u.u.u.u.u.u.  z.z.b.b.n.n.m.m.M.N.N.N.N.N.N.N.N.N.N.N.N.M.M.m.m.m.m.m.m.m.m.m.n.n.n.n.n.b.b.v.l.g.a.p.t.t.r.  u.u.u.u.u.u.u.u.u.",
"u.u.u.u.u.  z.z.v.b.n.n.m.m.M.N.N.N.N.N.N.N.N.N.N.N.N.N.N.M.m.m.m.m.m.m.n.m.n.n.n.b.n.n.b.b.b.z.j.f.p.p.t.r.  u.u.u.u.u.u.u.u.u.",
"u.u.u.u.u.  z.v.b.b.n.m.m.m.M.N.N.N.N.N.N.N.N.N.N.N.N.N.N.M.m.m.m.m.m.m.n.n.n.n.n.b.n.n.n.b.b.v.l.h.a.p.t.r.  u.u.u.u.u.u.u.u.u.",
"u.u.u.u.  z.z.v.b.n.n.m.m.m.M.N.N.N.N.N.N.N.N.N.N.N.N.N.m.m.m.m.m.m.m.m.n.n.n.n.n.n.n.n.n.b.b.b.z.j.f.p.y.r.r.  u.u.u.u.u.u.u.u.",
"u.u.u.u.  z.v.v.b.n.n.m.m.m.m.M.N.N.N.N.N.N.N.N.M.M.M.m.m.m.m.m.m.m.m.m.n.n.n.n.n.n.n.n.n.b.b.b.z.j.f.p.t.r.r.  u.u.u.u.u.u.u.u.",
"u.u.u.u.  c.v.b.b.n.n.m.m.m.m.m.m.M.M.N.N.N.m.m.m.m.m.m.m.m.m.m.m.m.m.n.n.n.n.n.n.n.n.n.n.b.b.b.v.l.f.p.t.t.r.  u.u.u.u.u.u.u.u.",
"u.u.u.u.  v.v.b.n.n.m.m.m.m.m.m.m.m.m.m.M.m.m.m.m.m.m.m.m.m.m.m.m.m.n.n.n.n.n.n.n.n.n.n.n.n.n.b.v.l.g.p.t.t.r.  u.u.u.u.u.u.u.u.",
"u.u.u.u.  v.v.b.n.n.m.m.m.m.m.m.m.m.m.m.m.m.m.m.m.m.m.m.m.m.m.m.n.n.n.n.n.n.n.n.n.n.n.n.n.n.b.b.c.l.g.p.t.r.r.  u.u.u.u.u.u.u.u.",
"u.u.u.u.  b.b.b.n.n.m.m.m.m.m.m.m.m.m.m.m.m.m.m.m.m.m.m.m.m.n.n.n.n.n.n.n.n.n.n.n.n.n.n.n.b.b.b.z.j.f.p.t.r.r.  u.u.u.u.u.u.u.u.",
"u.u.u.u.  z.v.b.n.n.n.m.m.m.m.m.m.m.m.m.m.m.m.m.m.m.m.m.m.n.n.n.n.n.n.n.n.n.n.n.n.n.n.b.b.b.b.v.z.h.a.p.t.r.r.  u.u.u.u.u.u.u.u.",
"u.u.u.u.u.  v.v.b.n.n.m.m.m.m.m.m.m.m.m.m.m.m.m.m.m.m.m.n.n.n.n.n.n.n.n.n.n.n.n.n.n.b.b.b.b.v.z.j.f.a.y.t.r.r.  u.u.u.u.u.u.u.u.",
"u.u.u.u.u.  z.v.b.b.n.n.n.n.m.m.m.m.m.m.n.m.m.n.n.n.n.n.n.n.n.b.b.b.n.n.n.n.n.n.b.b.b.b.v.v.z.k.g.a.p.t.r.r.  u.u.u.u.u.u.u.u.u.",
"u.u.u.u.u.u.  z.v.v.b.b.b.b.b.n.n.n.n.n.n.n.n.n.n.n.n.n.n.b.b.b.b.b.b.b.b.b.b.b.b.v.v.c.z.z.j.g.d.a.p.t.r.r.  u.u.u.u.u.u.u.u.u.",
"u.u.u.u.u.u.  l.z.z.v.v.v.v.v.b.b.b.b.b.b.b.b.b.b.b.b.b.b.b.v.b.v.v.v.v.v.c.z.z.z.z.l.l.j.j.f.d.a.p.t.r.r.  u.u.u.u.u.u.u.u.u.u.",
"u.u.u.u.u.u.u.  j.j.l.z.z.z.z.z.c.c.v.v.v.c.c.z.z.z.z.z.z.z.z.z.z.z.z.z.z.l.l.k.j.j.h.g.f.f.a.a.p.t.t.r.  u.u.u.u.u.u.u.u.u.u.u.",
"u.u.u.u.u.u.u.u.  h.j.j.j.j.j.l.l.l.z.z.l.z.l.l.l.l.l.l.l.l.l.k.j.j.j.j.j.h.g.g.f.f.f.d.a.a.p.p.t.t.r.  u.u.u.u.u.u.u.u.u.u.u.u.",
"u.u.u.u.u.u.u.u.u.    g.f.f.g.g.h.j.j.j.j.j.j.j.j.j.h.h.h.g.g.f.f.f.f.f.f.f.f.a.a.a.a.a.a.p.p.t.t.    u.u.u.u.u.u.u.u.u.u.u.u.u.",
"u.u.u.u.u.u.u.u.u.u.u.        a.a.f.f.f.f.f.f.f.f.f.a.a.a.a.a.a.a.a.a.a.a.a.a.a.a.a.a.p.p.        u.u.u.u.u.u.u.u.u.u.u.u.u.u.u.",
"u.u.u.u.u.u.u.u.u.u.u.u.u.u.u.                                                            u.u.u.u.u.u.u.u.u.u.u.u.u.u.u.u.u.u.u."
};
