/* XPM */
static char *result[] = {
/* columns rows colors chars-per-pixel */
"64 64 128 2 ",
"   c #FFFFFFFF",
".  c black",
"X  c #DD7700",
"o  c #DD7711",
"O  c #EE8811",
"+  c #FF8811",
"@  c #FF9922",
"#  c #FFCC22",
"$  c #FFEE33",
"%  c #FFFF33",
"&  c #DDBB00",
"*  c #DD8800",
"=  c #EE7711",
"-  c #FF9911",
";  c #FFAA22",
":  c #DDDD11",
">  c #DD9900",
",  c #FFCC33",
"<  c #DDCC11",
"1  c #FFDD33",
"2  c #DDBB11",
"3  c #DDCC00",
"4  c #DDAA00",
"5  c #DD8811",
"6  c #CCAA00",
"7  c #CC7700",
"8  c #CC8800",
"9  c #CC6600",
"0  c #DD6600",
"q  c #FFBB22",
"w  c #FFBB33",
"e  c #FFAA33",
"r  c #EE9911",
"t  c #EEAA11",
"y  c #EEBB11",
"u  c #EECC11",
"i  c #EEDD11",
"p  c #FFDD11",
"a  c #FFDD22",
"s  c #FFEE22",
"d  c #FFEE11",
"f  c #CC9900",
"g  c #CCBB00",
"h  c #DDAA11",
"j  c #CC5500",
"k  c #BB5500",
"l  c #BB6600",
"z  c #FFFF22",
"x  c #BB4400",
"c  c #BB8800",
"v  c #BB9900",
"b  c #BBAA00",
"n  c #AA4400",
"m  c #AA5500",
"M  c #AA6600",
"N  c #BB7700",
"B  c #FFAA11",
"V  c #883300",
"C  c #773300",
"Z  c #552200",
"A  c #221100",
"S  c #111100",
"D  c #110000",
"F  c #331100",
"G  c #442200",
"H  c #663300",
"J  c #994400",
"K  c #993300",
"L  c #AA3300",
"P  c #884400",
"I  c #332211",
"U  c #998866",
"Y  c #AA9977",
"T  c #BBAA77",
"R  c #BBAA88",
"E  c #999977",
"W  c #777755",
"Q  c #444433",
"!  c #662200",
"~  c #553311",
"^  c #885522",
"/  c #886622",
"(  c #886633",
")  c #BB9966",
"_  c #332222",
"`  c #BBBB88",
"'  c #332200",
"]  c #886644",
"[  c #776633",
"{  c #665533",
"}  c #443311",
"|  c #554422",
" . c #BBBB99",
".. c #333322",
"X. c #554433",
"o. c #995500",
"O. c #AA8800",
"+. c #222200",
"@. c #776644",
"#. c #665544",
"$. c #222211",
"%. c #442211",
"&. c #997700",
"*. c #887744",
"=. c #777744",
"-. c #AA7700",
";. c #996600",
":. c #885500",
">. c #AAAA88",
",. c #AAAA77",
"<. c #999966",
"1. c #888866",
"2. c #CCBB99",
"3. c #CCCCAA",
"4. c #DDCCBB",
"5. c #DDDDBB",
"6. c #CCBBAA",
"7. c #EEDDCC",
"8. c #EEEECC",
"9. c #EEEEDD",
"0. c #FFEEDD",
"q. c #DDCCAA",
"w. c #FFEEEE",
"e. c #FFFFEE",
"r. c #FFFFDD",
"t. c #DDDDCC",
"y. c #BBAA99",
"u. c white",
/* pixels */
"                                                                                                                                ",
"                                                                                                                                ",
"                                                                                                                                ",
"                                                                                                                                ",
"                                                                                                                                ",
"                                                                                                                                ",
"                                                                                                                                ",
"                                                                                                                                ",
"                                                                                                                                ",
"                                                                                                                                ",
"                                                        . . . . . . . . . . .                                                   ",
"                                                  . . . X o O O + @ # $ % % % . . .                                             ",
"                                            . . . & * X = O + + - @ ; # $ % % % % % . .                                         ",
"                                        . . : : & > X = O + - - - @ ; ; , % % % % % % % .                                       ",
"                                      . : : : < & o O O - - - - - @ ; ; ; 1 % % % % % % % .                                     ",
"                                    . 2 < < 3 4 5 O O + - - - @ @ @ @ ; ; ; $ % % % % % % % .                                   ",
"                                  . 6 6 6 4 * o o O O + - - @ @ @ @ @ ; ; ; ; $ % % % % % % % .                                 ",
"                                . 7 8 7 X X o o O O O + - - - - - @ @ ; ; ; ; ; , 1 % % % % $ $ .                               ",
"                              . 9 9 9 0 X X o = O O O + - - - - @ @ ; ; ; ; ; ; ; ; q w , , w w e .                             ",
"                            . 9 9 9 9 X X X o = O O O - - @ - - @ @ @ ; ; ; ; ; ; ; ; ; ; ; ; e e e .                           ",
"                          . 9 9 9 9 X X o o = O O O + - - - @ @ @ @ @ @ @ ; ; e ; ; ; ; ; ; e e w w e .                         ",
"                        . 9 9 9 9 X X o = O O O O + - @ @ @ @ @ @ @ @ @ @ @ ; ; ; ; e e e e e w w w w e .                       ",
"                    . . 9 9 9 9 X o = O O O r r - - @ @ @ @ @ @ @ @ @ @ @ @ @ @ ; ; ; ; ; e w , w w w w e .                     ",
"                  . 9 9 9 9 0 X o 5 t y u i i p p a # q @ @ @ @ @ @ @ @ @ @ @ @ @ @ @ ; # a s % % , w w w w .                   ",
"              . . 9 9 9 9 0 X o 2 u u u i i i p d s s s a ; @ @ @ @ @ @ @ @ @ @ @ @ @ a s s s s s s e e w w w .                 ",
"          . . 9 9 9 9 9 9 0 X & < < u u u i i i i p p a a # @ @ @ @ @ @ @ @ @ @ @ @ q s s s s s s s # ; e e w , . .             ",
"        . f 7 9 9 9 9 9 9 9 6 & 2 < < u u u i i i i i i i u O O O O O O O O + - - @ # s s s s s s s s ; ; ; e w % % .           ",
"      . 6 > 7 9 9 9 9 9 9 9 6 g g & 2 3 < < < u u u u u u r O O O O O O O O O O O O t i i p p p s s s q @ ; ; ; w % % .         ",
"    . & & 4 7 9 9 9 9 9 9 9 f 6 6 6 g g & & & & & & 2 3 h o o o o o o o o o o o o o = t u u i i i i p - @ @ @ ; ; a % % .       ",
"  . & & & f 9 9 9 9 j 9 j k l f 6 6 6 6 6 6 6 g g g g 6 7 9 9 9 9 9 9 0 0 0 0 0 X X X X 5 2 < < < y r O O + @ @ @ q z z % .     ",
"  . & & 4 8 9 9 j k k k k k x k c v v v v v v 6 b 6 f j j j j j j j 9 9 9 9 9 9 9 9 9 9 9 X * * X 0 X X o = O O @ ; s z z % .   ",
". & & 4 f 7 j k k x n n n n n n n m m M N N N N N l k k k k k k k k j j j 9 9 9 9 9 9 9 9 9 9 9 9 9 9 9 9 X X = O B s s z z .   ",
". & & 4 8 l k x n n n n n n n n n n n n x x x k k k j j j j k k j j j j j 7 7 7 7 9 9 9 9 9 9 j j k k j j 9 9 X o t p s s z z . ",
". & g 8 9 k n n n n n n n n n n n n x x k k k j j j j j j j k k k k k N v f 6 6 6 c k k 9 9 j j k k x k k k j 9 9 > u i s s z . ",
". 6 8 9 k n n n n n n n n x k n V C Z A A A A S D D D D D D D D . D D D D D D D A S A F Z G G G H J n x x x k k j 9 & u i s s . ",
". 9 9 k n K L n n n n P H F F F G G F F A D I U Y T R R R R R R R R R R R R R R R R R R E W Q S D D D A ! J x x k j 7 & u a s . ",
". 9 j n n K L n C F G ~ ^ ^ / ( ( A ) T T R R R R _ . . R R R R ` ` ` ` ` ` ` ` ` ` ` ` ` ` R R E Q . S D . D ! x k j 8 < i s . ",
"  . k n L K K M ' I ] [ { } } | D T T R R R R R . . . . . R ` ` ` `  . . . .` ` R  . . .. . . R R R . ..X.{ A . A n j j X y u . ",
"  . j n L K o.O.O.+...@.@.{ #.. R R R R R R R R . . . . . ` ` ` ` ` ` ` ` ` ` ` ` `  .. . . . .  .R . Q $.Q @.%.. C k j 9 = O . ",
"    . k n n o.O.b 6 &.A A *.. R R R R R R R R R R . . . R R ` ` ` . ` ` ` ` ` ` ` ` ` . . . . .  .R . @.W W =.A D C x j 9 = .   ",
"      . . n n -.v & 3 ;.:.. >.R R R R >.>.R R R R R R R R R R R ` . ` ` ` . ` ` . ` ` ` . . .  . .` . I I +.D A C n x j 0 .     ",
"          . . n M v X 9 . ,.R R R >.>.>.>.R R R R R R R R R R R R R . . . R . . R R R ` ` ` ` `  . .R . P o.M k x x k j .       ",
"              . . . . . U ,.>.>.>.>.>.>.>.>.R R R R R R R R R R R ` ` ` ` R R R R R ` ` ` ` ` ` `  .` . 9 8 6 N k j . .         ",
"                    . U <.Y >.>.>.>.>.>.>.>.R R R R R R R `  . . . . . . . . . . . . . . .` ` ` ` ` ` ` . . . . . .             ",
"                  . 1.U E Y ,.>.>.>.>.>.R R R R  . . . .2.3.3.4.5.5.5.5.5.5.5.5.4.4.3.6. . . .` ` ` `  . ..                     ",
"                . U U E Y Y ,.>.>.R R R R  . . .2.3.4.5.7.8.9.9.9.0.0.0.0.0.0.0.9.9.9.8.5.4.3. . . . . . .2..                   ",
"                . E Y Y Y ,.>.>.R R R  . .2.3.4.5.7.8.8.9.9.0.0.0.0.0.0.0.0.0.0.0.0.0.0.0.9.8.5.3.2. . . . .2..                 ",
"              . E Y Y Y ,.>.R R R  . .2.3.5.7.8.8.9.9.9.9.9.9.0.0.9.0.0.0.0.0.0.0.0.0.0.0.0.0.0.8.5.3.2. . .2..                 ",
"              . E Y Y ,.>.R R R  .2.3.5.7.8.8.9.9.9.9.9.0.0.0.0.0.0.0.0.0.0.0.0.0.0.0.0.0.0.0.0.0.9.7.q.2.2.2.2..               ",
"              . Y Y Y >.R R  . .2.4.7.8.8.8.9.9.9.9.9.0.0.0.0.0.w.e.e.e.w.w.0.0.0.w.e.e.w.0.0.0.0.0.9.7.3.2.2.2..               ",
"            . Y Y Y >.R R  .2.3.5.7.8.8.9.9.9.9.9.9.0.0.0.0.0.0.0.0.e.e.e.e.e.e.e.e.e.e.e.e.r.0.0.0.0.8.5.3.2.2.3..             ",
"            . Y Y Y >.R  . .3.5.8.8.9.9.9.9.9.9.9.9.0.0.0.0.0.0.0.0.0.w.w.w.e.e.e.e.e.e.e.e.w.0.0.0.0.9.8.5.3.3.q..             ",
"            . E Y ,.>. . .6.4.7.8.9.9.9.9.9.9.9.9.9.9.0.0.0.0.0.0.0.0.0.0.0.0.0.e.e.e.w.w.0.0.0.0.0.0.9.9.8.4.q.4..             ",
"            . Y Y >.R  .2.3.t.8.9.9.9.9.9.9.9.9.9.9.9.9.9.9.0.0.0.0.0.0.0.0.0.0.0.0.0.0.0.0.0.0.0.0.0.0.9.9.7.5.5..             ",
"            . Y Y >.R  .2.4.7.8.8.9.9.9.9.9.9.9.9.9.9.9.9.9.9.9.0.0.0.0.0.0.0.0.0.0.0.0.0.0.0.0.0.0.0.0.9.9.8.7.7..             ",
"            . Y Y >.R R  .4.7.8.8.8.8.9.9.9.9.9.9.9.9.9.9.9.9.9.9.0.0.0.0.0.0.0.0.0.0.0.0.0.0.0.0.0.0.9.9.9.8.7.5..             ",
"            . E Y ,.>.R  .3.5.7.8.8.8.9.9.9.9.9.9.9.9.9.9.9.9.9.9.9.0.0.0.0.0.0.0.0.0.0.0.0.0.0.0.0.0.9.9.8.7.7..               ",
"              . Y Y >.R R 2.q.5.7.7.8.8.8.8.9.9.9.9.9.9.8.8.8.9.9.9.9.9.9.9.9.0.0.9.0.0.0.0.0.0.9.9.9.9.8.8.7.5..               ",
"              . E Y ,.>.R y.2.3.5.5.7.7.8.8.8.8.8.8.8.8.8.8.8.8.8.9.9.9.9.9.9.9.9.9.9.9.9.9.9.8.8.8.8.8.7.7.5..                 ",
"                . Y Y >.>.R y. .3.q.4.5.5.5.5.5.t.7.7.7.7.7.8.7.8.8.8.8.8.8.8.8.8.8.8.8.8.8.8.7.7.7.7.7.5.5.4..                 ",
"                  . Y Y >.>.R R  . .6.3.3.3.q.q.4.5.5.5.5.5.5.5.5.5.5.5.5.5.5.t.t.7.7.7.t.t.5.5.5.5.5.4.3.3..                   ",
"                    . Y Y Y >.>.R y. . . .2.2.6.6.3.3.3.3.3.q.4.4.4.4.4.4.4.4.4.5.4.5.5.4.4.4.3.3.3.3.3.6..                     ",
"                      . . Y Y >.>.R R R y. . . . . . . . .2. .2.2.6.6.6.3.3.3.3.3.3.3.3.3.6.2.2. . .2.. .                       ",
"                          . . . . >.>.R R R R R y.R R R R R R R R R R R  . . . . . . . . .R R . . . .                           "
};
