/* XPM */
static char *result[] = {
/* columns rows colors chars-per-pixel */
"64 64 127 2 ",
"   c black",
".  c #110000",
"X  c #111100",
"o  c #221100",
"O  c #331100",
"+  c #222200",
"@  c #332200",
"#  c #222211",
"$  c #332211",
"%  c #332222",
"&  c #333322",
"*  c #442200",
"=  c #552200",
"-  c #442211",
";  c #443311",
":  c #553311",
">  c #662200",
",  c #663300",
"<  c #773300",
"1  c #554422",
"2  c #444433",
"3  c #554433",
"4  c #665533",
"5  c #776633",
"6  c #665544",
"7  c #776644",
"8  c #777744",
"9  c #777755",
"0  c #883300",
"q  c #993300",
"w  c #AA3300",
"e  c #884400",
"r  c #994400",
"t  c #885500",
"y  c #995500",
"u  c #AA4400",
"i  c #BB4400",
"p  c #AA5500",
"a  c #BB5500",
"s  c #996600",
"d  c #997700",
"f  c #AA6600",
"g  c #BB6600",
"h  c #AA7700",
"j  c #BB7700",
"k  c #885522",
"l  c #886622",
"z  c #886633",
"x  c #CC5500",
"c  c #CC6600",
"v  c #DD6600",
"b  c #CC7700",
"n  c #DD7700",
"m  c #DD7711",
"M  c #EE7711",
"N  c #886644",
"B  c #887744",
"V  c #AA8800",
"C  c #BB8800",
"Z  c #BB9900",
"A  c #BBAA00",
"S  c #CC8800",
"D  c #DD8800",
"F  c #CC9900",
"G  c #DD9900",
"H  c #DD8811",
"J  c #EE8811",
"K  c #FF8811",
"L  c #EE9911",
"P  c #FF9911",
"I  c #CCAA00",
"U  c #DDAA00",
"Y  c #CCBB00",
"T  c #DDBB00",
"R  c #DDAA11",
"E  c #DDBB11",
"W  c #EEAA11",
"Q  c #FFAA11",
"!  c #EEBB11",
"~  c #FF9922",
"^  c #FFAA22",
"/  c #FFBB22",
"(  c #FFAA33",
")  c #FFBB33",
"_  c #DDCC00",
"`  c #DDCC11",
"'  c #DDDD11",
"]  c #EECC11",
"[  c #EEDD11",
"{  c #FFDD11",
"}  c #FFEE11",
"|  c #FFCC22",
" . c #FFDD22",
".. c #FFCC33",
"X. c #FFDD33",
"o. c #FFEE22",
"O. c #FFFF22",
"+. c #FFEE33",
"@. c #FFFF33",
"#. c #888866",
"$. c #998866",
"%. c #999966",
"&. c #999977",
"*. c #BB9966",
"=. c #AA9977",
"-. c #AAAA77",
";. c #BBAA77",
":. c #FFFFFFFF",
">. c #AAAA88",
",. c #BBAA88",
"<. c #BBBB88",
"1. c #BBAA99",
"2. c #BBBB99",
"3. c #CCBB99",
"4. c #CCBBAA",
"5. c #CCCCAA",
"6. c #DDCCAA",
"7. c #DDCCBB",
"8. c #DDDDBB",
"9. c #DDDDCC",
"0. c #EEDDCC",
"q. c #EEEECC",
"w. c #EEEEDD",
"e. c #FFEEDD",
"r. c #FFFFDD",
"t. c #FFEEEE",
"y. c #FFFFEE",
/* pixels */
":.:.:.:.:.:.:.:.:.:.:.:.:.:.:.:.:.:.:.:.:.:.:.:.:.:.:.:.:.:.:.:.:.:.:.:.:.:.:.:.:.:.:.:.:.:.:.:.:.:.:.:.:.:.:.:.:.:.:.:.:.:.:.:.",
":.:.:.:.:.:.:.:.:.:.:.:.:.:.:.:.:.:.:.:.:.:.:.:.:.:.:.:.:.:.:.:.:.:.:.:.:.:.:.:.:.:.:.:.:.:.:.:.:.:.:.:.:.:.:.:.:.:.:.:.:.:.:.:.",
":.:.:.:.:.:.:.:.:.:.:.:.:.:.:.:.:.:.:.:.:.:.:.:.:.:.:.:.:.:.:.:.:.:.:.:.:.:.:.:.:.:.:.:.:.:.:.:.:.:.:.:.:.:.:.:.:.:.:.:.:.:.:.:.",
":.:.:.:.:.:.:.:.:.:.:.:.:.:.:.:.:.:.:.:.:.:.:.:.:.:.:.:.:.:.:.:.:.:.:.:.:.:.:.:.:.:.:.:.:.:.:.:.:.:.:.:.:.:.:.:.:.:.:.:.:.:.:.:.",
":.:.:.:.:.:.:.:.:.:.:.:.:.:.:.:.:.:.:.:.:.:.:.:.:.:.:.:.:.:.:.:.:.:.:.:.:.:.:.:.:.:.:.:.:.:.:.:.:.:.:.:.:.:.:.:.:.:.:.:.:.:.:.:.",
":.:.:.:.:.:.:.:.:.:.:.:.:.:.:.:.:.:.:.:.:.:.:.:.:.:.:.:.:.:.:.:.:.:.:.:.:.:.:.:.:.:.:.:.:.:.:.:.:.:.:.:.:.:.:.:.:.:.:.:.:.:.:.:.",
":.:.:.:.:.:.:.:.:.:.:.:.:.:.:.:.:.:.:.:.:.:.:.:.:.:.:.:.:.:.:.:.:.:.:.:.:.:.:.:.:.:.:.:.:.:.:.:.:.:.:.:.:.:.:.:.:.:.:.:.:.:.:.:.",
":.:.:.:.:.:.:.:.:.:.:.:.:.:.:.:.:.:.:.:.:.:.:.:.:.:.:.:.:.:.:.:.:.:.:.:.:.:.:.:.:.:.:.:.:.:.:.:.:.:.:.:.:.:.:.:.:.:.:.:.:.:.:.:.",
":.:.:.:.:.:.:.:.:.:.:.:.:.:.:.:.:.:.:.:.:.:.:.:.:.:.:.:.:.:.:.:.:.:.:.:.:.:.:.:.:.:.:.:.:.:.:.:.:.:.:.:.:.:.:.:.:.:.:.:.:.:.:.:.",
":.:.:.:.:.:.:.:.:.:.:.:.:.:.:.:.:.:.:.:.:.:.:.:.:.:.:.:.:.:.:.:.:.:.:.:.:.:.:.:.:.:.:.:.:.:.:.:.:.:.:.:.:.:.:.:.:.:.:.:.:.:.:.:.",
":.:.:.:.:.:.:.:.:.:.:.:.:.:.:.:.:.:.:.:.:.:.:.:.:.                      :.:.:.:.:.:.:.:.:.:.:.:.:.:.:.:.:.:.:.:.:.:.:.:.:.:.:.:.",
":.:.:.:.:.:.:.:.:.:.:.:.:.:.:.:.:.:.:.:.:.:.      @.@.@.+.| ~ K J J m n       :.:.:.:.:.:.:.:.:.:.:.:.:.:.:.:.:.:.:.:.:.:.:.:.:.",
":.:.:.:.:.:.:.:.:.:.:.:.:.:.:.:.:.:.:.:.    @.@.@.@.@.+.| ^ ~ P K K J M n D T       :.:.:.:.:.:.:.:.:.:.:.:.:.:.:.:.:.:.:.:.:.:.",
":.:.:.:.:.:.:.:.:.:.:.:.:.:.:.:.:.:.:.  @.@.@.@.@.@.@...^ ^ ~ P P P K J M n G T ' '     :.:.:.:.:.:.:.:.:.:.:.:.:.:.:.:.:.:.:.:.",
":.:.:.:.:.:.:.:.:.:.:.:.:.:.:.:.:.:.  @.@.@.@.@.@.@.X.^ ^ ^ ~ P P P P P J J m T ` ' ' '   :.:.:.:.:.:.:.:.:.:.:.:.:.:.:.:.:.:.:.",
":.:.:.:.:.:.:.:.:.:.:.:.:.:.:.:.:.  @.@.@.@.@.@.@.+.^ ^ ^ ~ ~ ~ ~ P P P K J J H U _ ` ` E   :.:.:.:.:.:.:.:.:.:.:.:.:.:.:.:.:.:.",
":.:.:.:.:.:.:.:.:.:.:.:.:.:.:.:.  @.@.@.@.@.@.@.+.^ ^ ^ ^ ~ ~ ~ ~ ~ P P K J J m m D U I I I   :.:.:.:.:.:.:.:.:.:.:.:.:.:.:.:.:.",
":.:.:.:.:.:.:.:.:.:.:.:.:.:.:.  +.+.@.@.@.@.X...^ ^ ^ ^ ^ ~ ~ P P P P P K J J J m m n n b S b   :.:.:.:.:.:.:.:.:.:.:.:.:.:.:.:.",
":.:.:.:.:.:.:.:.:.:.:.:.:.:.  ( ) ) ....) / ^ ^ ^ ^ ^ ^ ^ ^ ~ ~ P P P P K J J J M m n n v c c c   :.:.:.:.:.:.:.:.:.:.:.:.:.:.:.",
":.:.:.:.:.:.:.:.:.:.:.:.:.  ( ( ( ^ ^ ^ ^ ^ ^ ^ ^ ^ ^ ^ ^ ~ ~ ~ P P ~ P P J J J M m n n n c c c c   :.:.:.:.:.:.:.:.:.:.:.:.:.:.",
":.:.:.:.:.:.:.:.:.:.:.:.  ( ) ) ( ( ^ ^ ^ ^ ^ ^ ( ^ ^ ~ ~ ~ ~ ~ ~ ~ P P P K J J J M m m n n c c c c   :.:.:.:.:.:.:.:.:.:.:.:.:.",
":.:.:.:.:.:.:.:.:.:.:.  ( ) ) ) ) ( ( ( ( ( ^ ^ ^ ^ ~ ~ ~ ~ ~ ~ ~ ~ ~ ~ ~ P K J J J J M m n n c c c c   :.:.:.:.:.:.:.:.:.:.:.:.",
":.:.:.:.:.:.:.:.:.:.  ( ) ) ) ) ..) ( ^ ^ ^ ^ ^ ~ ~ ~ ~ ~ ~ ~ ~ ~ ~ ~ ~ ~ ~ P P L L J J J M m n c c c c     :.:.:.:.:.:.:.:.:.:.",
":.:.:.:.:.:.:.:.:.  ) ) ) ) ..@.@.o. .| ^ ~ ~ ~ ~ ~ ~ ~ ~ ~ ~ ~ ~ ~ ~ ~ / |  .{ { [ [ ] ! W H m n v c c c c   :.:.:.:.:.:.:.:.:.",
":.:.:.:.:.:.:.:.  ) ) ) ( ( o.o.o.o.o.o. .~ ~ ~ ~ ~ ~ ~ ~ ~ ~ ~ ~ ~ ^  .o.o.o.} { [ [ [ ] ] ] E m n v c c c c     :.:.:.:.:.:.:.",
":.:.:.:.:.:.    ..) ( ( ^ | o.o.o.o.o.o.o./ ~ ~ ~ ~ ~ ~ ~ ~ ~ ~ ~ ~ |  . .{ { [ [ [ [ ] ] ] ` ` T n v c c c c c c     :.:.:.:.:.",
":.:.:.:.:.  @.@.) ( ^ ^ ^ o.o.o.o.o.o.o.o.| ~ P P K J J J J J J J J ] [ [ [ [ [ [ [ ] ] ] ` ` E T I c c c c c c c b F   :.:.:.:.",
":.:.:.:.  @.@.) ^ ^ ^ ~ / o.o.o.{ { { [ [ W J J J J J J J J J J J J L ] ] ] ] ] ] ` ` ` _ E T Y Y I c c c c c c c b G I   :.:.:.",
":.:.:.  @.@. .^ ^ ~ ~ ~ P { [ [ [ [ ] ] W M m m m m m m m m m m m m m R _ E T T T T T T Y Y I I I F c c c c c c c b U T T   :.:.",
":.:.  @.O.O./ ~ ~ ~ K J J L ! ` ` ` E H n n n n v v v v v c c c c c c b I Y Y Y Y I I I I I I I F g a x c x c c c c F T T T   :.",
":.  @.O.O.o.^ ~ J J M m n n v n D D n c c c c c c c c c c c x x x x x x x F I A I Z Z Z Z Z Z C a i a a a a a x c c S U T T   :.",
":.  O.O.o.o.Q J M n n c c c c c c c c c c c c c c c c x x x a a a a a a a a g j j j j j f p p u u u u u u u i a a x b F U T T   ",
"  O.O.o.o.{ W m n c c x x a a x x c c c c c c b b b b x x x x x a a x x x x a a a i i i u u u u u u u u u u u u i a g S U T T   ",
"  O.o.o.[ ] G c c x a a a i a a x x c c a a C I I I F Z j a a a a a x x x x x x x a a a i i u u u u u u u u u u u u a c S Y T   ",
"  o.o.[ ] T c x a a i i i u r , * * * = O o X o . . . . . . .   . . . . . . . . X o o o o = < 0 u a i u u u u u u u u a c S I   ",
"  o. .] T b x a i i r > o . . . X 2 9 &.,.,.,.,.,.,.,.,.,.,.,.,.,.,.,.,.,.,.;.=.$.$ . o O O * * O O O , e u u u u w q u a c c   ",
"  o.[ ` S x a i > .   . X   2 &.,.,.<.<.<.<.<.<.<.<.<.<.<.<.<.<.,.,.,.,.    % ,.,.,.,.;.;.*.o z z l k k : * O < u w q u u x c   ",
"  ] ! n x x u o   o 4 3 &   ,.,.,.      2.2.2.,.<.<.2.2.2.2.<.<.<.<.,.          ,.,.,.,.,.;.;.. 1 ; ; 4 5 N $ @ f q q w u a   :.",
"  J M c x a <   - 7 2 # 2   ,.2.          2.<.<.<.<.<.<.<.<.<.<.<.<.<.          ,.,.,.,.,.,.,.,.  6 4 7 7 & + V V y q w u x   :.",
":.  M c x i < . o 8 9 9 7   ,.2.          <.<.<.<.<.<.<.<.<.  <.<.<.,.,.      ,.,.,.,.,.,.,.,.,.,.  B o o d I A V y u u a   :.:.",
":.:.  v x i u < o . + $ $   <.2.2.      <.<.<.  <.<.  <.<.<.  <.,.,.,.,.,.,.,.,.,.,.,.>.>.,.,.,.,.>.  t s _ T Z h u u     :.:.:.",
":.:.:.  x a i i a f y e   ,.2.2.<.<.<.<.<.,.,.,.    ,.      ,.,.,.,.,.,.,.,.,.,.,.,.,.>.>.>.>.,.,.,.-.  c n Z f u     :.:.:.:.:.",
":.:.:.:.    x a j I S c   <.2.<.<.<.<.<.<.<.,.,.,.,.,.<.<.<.<.,.,.,.,.,.,.,.,.,.,.,.>.>.>.>.>.>.>.>.-.$.          :.:.:.:.:.:.:.",
":.:.:.:.:.:.            <.<.<.<.<.<.<.2.2.2.2.2.2.2.2.2.2.2.2.2.2.2.<.,.,.,.,.,.,.,.>.>.>.>.>.>.>.>.=.%.$.  :.:.:.:.:.:.:.:.:.:.",
":.:.:.:.:.:.:.:.:.:.  2.2.<.<.<.<.2.2.2.4.5.7.7.8.8.8.8.8.8.8.8.7.5.5.3.2.2.2.2.,.,.,.,.>.>.>.>.>.-.=.&.$.#.  :.:.:.:.:.:.:.:.:.",
":.:.:.:.:.:.:.:.:.  3.2.2.2.2.2.2.5.7.8.q.w.w.w.e.e.e.e.e.e.e.w.w.w.q.0.8.7.5.3.2.2.2.,.,.,.,.>.>.-.=.=.&.$.$.  :.:.:.:.:.:.:.:.",
":.:.:.:.:.:.:.:.  3.2.2.2.2.3.5.8.q.w.e.e.e.e.e.e.e.e.e.e.e.e.e.e.e.w.w.q.q.0.8.7.5.3.2.2.,.,.,.>.>.-.=.=.=.&.  :.:.:.:.:.:.:.:.",
":.:.:.:.:.:.:.:.  3.2.2.3.5.8.q.e.e.e.e.e.e.e.e.e.e.e.e.e.e.w.e.e.w.w.w.w.w.w.q.q.0.8.5.3.2.2.,.,.,.>.-.=.=.=.&.  :.:.:.:.:.:.:.",
":.:.:.:.:.:.:.  3.3.3.3.6.0.w.e.e.e.e.e.e.e.e.e.e.e.e.e.e.e.e.e.e.e.e.e.w.w.w.w.w.q.q.0.8.5.3.2.,.,.,.>.-.=.=.&.  :.:.:.:.:.:.:.",
":.:.:.:.:.:.:.  3.3.3.5.0.w.e.e.e.e.e.t.y.y.t.e.e.e.t.t.y.y.y.t.e.e.e.e.e.w.w.w.w.w.q.q.q.0.7.3.2.2.,.,.>.=.=.=.  :.:.:.:.:.:.:.",
":.:.:.:.:.:.  5.3.3.5.8.q.e.e.e.e.r.y.y.y.y.y.y.y.y.y.y.y.y.e.e.e.e.e.e.e.e.w.w.w.w.w.w.q.q.0.8.5.3.2.,.,.>.=.=.=.  :.:.:.:.:.:.",
":.:.:.:.:.:.  6.5.5.8.q.w.e.e.e.e.t.y.y.y.y.y.y.y.y.t.t.t.e.e.e.e.e.e.e.e.e.w.w.w.w.w.w.w.w.q.q.8.5.2.2.,.>.=.=.=.  :.:.:.:.:.:.",
":.:.:.:.:.:.  7.6.7.q.w.w.e.e.e.e.e.e.t.t.y.y.y.e.e.e.e.e.e.e.e.e.e.e.e.e.w.w.w.w.w.w.w.w.w.w.q.0.7.4.2.2.>.-.=.&.  :.:.:.:.:.:.",
":.:.:.:.:.:.  8.8.0.w.w.e.e.e.e.e.e.e.e.e.e.e.e.e.e.e.e.e.e.e.e.e.e.w.w.w.w.w.w.w.w.w.w.w.w.w.w.q.9.5.3.2.,.>.=.=.  :.:.:.:.:.:.",
":.:.:.:.:.:.  0.0.q.w.w.e.e.e.e.e.e.e.e.e.e.e.e.e.e.e.e.e.e.e.e.w.w.w.w.w.w.w.w.w.w.w.w.w.w.w.q.q.0.7.3.2.,.>.=.=.  :.:.:.:.:.:.",
":.:.:.:.:.:.  8.0.q.w.w.w.e.e.e.e.e.e.e.e.e.e.e.e.e.e.e.e.e.e.w.w.w.w.w.w.w.w.w.w.w.w.w.w.q.q.q.q.0.7.2.,.,.>.=.=.  :.:.:.:.:.:.",
":.:.:.:.:.:.:.  0.0.q.w.w.e.e.e.e.e.e.e.e.e.e.e.e.e.e.e.e.e.w.w.w.w.w.w.w.w.w.w.w.w.w.w.w.q.q.q.0.8.5.2.,.>.-.=.&.  :.:.:.:.:.:.",
":.:.:.:.:.:.:.  8.0.q.q.w.w.w.w.e.e.e.e.e.e.w.e.e.w.w.w.w.w.w.w.w.q.q.q.w.w.w.w.w.w.q.q.q.q.0.0.8.6.3.,.,.>.=.=.  :.:.:.:.:.:.:.",
":.:.:.:.:.:.:.:.  8.0.0.q.q.q.q.q.w.w.w.w.w.w.w.w.w.w.w.w.w.w.q.q.q.q.q.q.q.q.q.q.q.q.q.0.0.8.8.5.3.1.,.>.-.=.&.  :.:.:.:.:.:.:.",
":.:.:.:.:.:.:.:.  7.8.8.0.0.0.0.0.q.q.q.q.q.q.q.q.q.q.q.q.q.q.q.0.q.0.0.0.0.0.9.8.8.8.8.8.7.6.5.2.1.,.>.>.=.=.  :.:.:.:.:.:.:.:.",
":.:.:.:.:.:.:.:.:.  5.5.7.8.8.8.8.8.9.9.0.0.0.9.9.8.8.8.8.8.8.8.8.8.8.8.8.8.8.7.6.6.5.5.5.4.2.2.,.,.>.>.=.=.  :.:.:.:.:.:.:.:.:.",
":.:.:.:.:.:.:.:.:.:.  4.5.5.5.5.5.7.7.7.8.8.7.8.7.7.7.7.7.7.7.7.7.6.5.5.5.5.5.4.4.3.3.2.2.2.1.,.>.>.=.=.=.  :.:.:.:.:.:.:.:.:.:.",
":.:.:.:.:.:.:.:.:.:.:.    3.2.2.3.3.4.5.5.5.5.5.5.5.5.5.4.4.4.3.3.2.3.2.2.2.2.2.2.2.2.1.,.,.,.>.>.=.=.    :.:.:.:.:.:.:.:.:.:.:.",
":.:.:.:.:.:.:.:.:.:.:.:.:.        ,.,.2.2.2.2.2.2.2.2.2.,.,.,.,.,.,.,.,.,.,.,.1.,.,.,.,.,.>.>.        :.:.:.:.:.:.:.:.:.:.:.:.:."
};
