/* XPM */
static char *result[] = {
/* columns rows colors chars-per-pixel */
"64 64 151 2 ",
"   c black",
".  c #110000",
"X  c #111100",
"o  c #111111",
"O  c #220000",
"+  c #221100",
"@  c #331100",
"#  c #221111",
"$  c #332200",
"%  c #222211",
"&  c #332211",
"*  c #222222",
"=  c #332222",
"-  c #333322",
";  c #770000",
":  c #442200",
">  c #552200",
",  c #443300",
"<  c #443311",
"1  c #553311",
"2  c #663300",
"3  c #443322",
"4  c #553322",
"5  c #554400",
"6  c #664411",
"7  c #774411",
"8  c #444422",
"9  c #554422",
"0  c #444433",
"q  c #554433",
"w  c #555533",
"e  c #664422",
"r  c #665522",
"t  c #665533",
"y  c #775533",
"u  c #776633",
"i  c #555544",
"p  c #665544",
"a  c #666644",
"s  c #776644",
"d  c #777744",
"f  c #776655",
"g  c #777755",
"h  c #BB0000",
"j  c #CC0000",
"k  c #994400",
"l  c #885500",
"z  c #995500",
"x  c #884411",
"c  c #885511",
"v  c #995511",
"b  c #AA4400",
"n  c #AA5500",
"m  c #BB5500",
"M  c #AA5511",
"N  c #886600",
"B  c #997700",
"V  c #996611",
"C  c #AA6600",
"Z  c #BB6600",
"A  c #AA7700",
"S  c #BB7700",
"D  c #AA6611",
"F  c #BB7711",
"G  c #885522",
"H  c #996622",
"J  c #886633",
"K  c #996633",
"L  c #BB7733",
"P  c #CC5500",
"I  c #CC6600",
"U  c #DD6600",
"Y  c #CC7700",
"T  c #DD7700",
"R  c #EE7700",
"E  c #FF7700",
"W  c #886644",
"Q  c #887744",
"!  c #887755",
"~  c #887766",
"^  c #AA8800",
"/  c #BB8800",
"(  c #AA9900",
")  c #BB9900",
"_  c #BB8811",
"`  c #BB9911",
"'  c #BBAA00",
"]  c #CC8800",
"[  c #DD8800",
"{  c #CC9900",
"}  c #DD9900",
"|  c #EE8800",
" . c #FF8800",
".. c #EE9900",
"X. c #FF9900",
"o. c #FF8811",
"O. c #FF9911",
"+. c #CCAA00",
"@. c #DDAA00",
"#. c #CCBB00",
"$. c #DDBB00",
"%. c #EEAA00",
"&. c #EEBB00",
"*. c #FFBB00",
"=. c #FFBB11",
"-. c #FF9922",
";. c #FFAA22",
":. c #FFBB22",
">. c #DDCC00",
",. c #EECC00",
"<. c #FFCC00",
"1. c #EEDD00",
"2. c #FFDD00",
"3. c #FFEE00",
"4. c #FFCC22",
"5. c #FFDD22",
"6. c #FFEE22",
"7. c #FFFF22",
"8. c #FFFF33",
"9. c #998855",
"0. c #998866",
"q. c #888877",
"w. c #999977",
"e. c #AA8866",
"r. c #AA9966",
"t. c #AA9977",
"y. c #AAAA77",
"u. c #FFFFFFFF",
"i. c gray60",
"p. c #AAAA88",
"a. c #BBAA88",
"s. c #BBBB88",
"d. c #BBAA99",
"f. c #BBBB99",
"g. c #CCBB99",
"h. c #CCBBAA",
"j. c #CCCCAA",
"k. c #DDCCAA",
"l. c #CCCCBB",
"z. c #DDCCBB",
"x. c #DDDDBB",
"c. c #EEDDBB",
"v. c #DDDDCC",
"b. c #EEDDCC",
"n. c #EEEECC",
"m. c #EEEEDD",
"M. c #FFEEDD",
"N. c #FFFFDD",
"B. c #FFEEEE",
"V. c #FFFFEE",
"C. c white",
/* pixels */
"u.u.u.u.u.u.u.u.u.u.u.u.u.u.u.u.u.u.u.u.u.u.u.u.u.u.u.                    u.u.u.u.u.u.u.u.u.u.u.u.u.u.u.u.u.u.u.u.u.u.u.u.u.u.u.",
"u.u.u.u.u.u.u.u.u.u.u.u.u.u.u.u.u.u.u.u.u.u.          :.;.O.O.X. . . . . .      u.u.u.u.u.u.u.u.u.u.u.u.u.u.u.u.u.u.u.u.u.u.u.u.",
"u.u.u.u.u.u.u.u.u.u.u.u.u.u.u.u.u.u.u.      8.8.6.:.;.-.O.O. . . . . . . . . . .      u.u.u.u.u.u.u.u.u.u.u.u.u.u.u.u.u.u.u.u.u.",
"u.u.u.u.u.u.u.u.u.u.u.u.u.u.u.u.u.    8.7.7.7.4.;.O.O.O. . . . . . . . .X.*.<.*.X.R R     u.u.u.u.u.u.u.u.u.u.u.u.u.u.u.u.u.u.u.",
"u.u.u.u.u.u.u.u.u.u.u.u.u.u.u.    7.7.6.5.4.;.-.O.O. . . . . . . . .X.2.3.3.3.3.2.<...T U     u.u.u.u.u.u.u.u.u.u.u.u.u.u.u.u.u.",
"u.u.u.u.u.u.u.u.u.u.u.u.      :.;.-.O.O.O.o. . .| R R R R R R R E  .2.2.3.3.3.3.3.3.2.%.T U I   u.u.u.u.u.u.u.u.u.u.u.u.u.u.u.u.",
"u.u.u.u.u.u.u.u.u.u.    ;.;.;.O.O. .| R R T T T U U U U U U U U U T ..,.1.2.2.2.2.2.2.1.%.U I I   u.u.u.u.u.u.u.u.u.u.u.u.u.u.u.",
"u.u.u.u.u.u.u.u.    -.-.O.O. .R T U I I P m S S S Z m m m m m m m m m I +.#.$.>.,.1.1.2.1.$.T I I   u.u.u.u.u.u.u.u.u.u.u.u.u.u.",
"u.u.u.u.u.u.u.  =.O.X. .| T I I m m m m Z ) ) ) ) ) S m m m m m m m m m Z ) ) ) +.#.$.,.1.1.>.Y I I   u.u.u.u.u.u.u.u.u.u.u.u.u.",
"u.u.u.u.u.u.  3.X.| R U I m m m m m m Z ) ) ) ) ) ) ) / m m m m m m m m m m S ) ) ) ) +.#.>.,.$.U I I   u.u.u.u.u.u.u.u.u.u.u.u.",
"u.u.u.u.u.  3.<.R U I m m m m n n m m Z ) ( ( ( ( ( ( ( A n n n n m m m m m n m S / ) ) ) ' +.$.U U I I   u.u.u.u.u.u.u.u.u.u.u.",
"u.u.u.u.  2.1.} I I m m m n n n n n n A A V D V H K K K K H G c c v z n n m n n n n m Z / ) ) ) I I U I {   u.u.u.u.u.u.u.u.u.u.",
"u.u.u.  2.1.>.U I m m m n n n n v 7 G J J W Q ! ! ! ! p ! Q Q s u y e 6 7 x z M M n n n m m m m m I I I ] +.  u.u.u.u.u.u.u.u.u.",
"u.u.  2.1.>.[ I m m m n n n 7 + 9 s s s q ! ! ! ! ! ! & ! ! ! ! ! ! ! a s r 6 + c D M n n m m m m m m I Y +.+.  u.u.u.u.u.u.u.u.",
"u.u.  2.,.@.I m m n n n $ < s s g ! ! s % p d ! ! ! s   s Q Q Q Q ! ! - ! ! Q t 1 + G D n n m m m m m m I I { #.  u.u.u.u.u.u.u.",
"u.  2.,.} I m m n n + < W g ! - p g g g %   # q w w 0   X 8 0 w s s w X s ! ! ! g s 4 + v n n m m m m m m I I ] #.  u.u.u.u.u.u.",
"u.  %.R U m m m n + u g g g g - o p p i 0                         =   - q s s d q s s t X + n n m m m m m m I I T $.  u.u.u.u.u.",
"   .R T I m m n % q g % - i a a     .       0.w.w.w.w.w.w.w.w.w.0.        0 8 o o d g ! s -   k n m m m m m m I U [ $.  u.u.u.u.",
"   .R U m m m + 3 g g i X = 8 q 0     0.w.t.t.t.t.t.t.t.t.t.t.t.t.t.t.t.0.    w w a g g g g 4   > m n m m m m m I U T   u.u.u.u.",
"  R R I m m b   s g g a a     o   w.t.t.y.y.y.y.y.y.y.t.t.t.t.t.t.t.t.t.t.t.0.    w t a p 0 ! 3 + 2 n n n n m m m I U U   u.u.u.",
"  R T I m m X w q a f s i - o   t.t.y.p.y.y.y.y.y.y.y.y.y.y.y.y.y.p.y.t.t.t.t.e.!       % a g f 9   $ ) ( ^ A m m m I T   u.u.u.",
"  R T I m m   a a % % - 0 0   t.p.y.p.p.p.p.p.p.p.p.p.p.p.p.p.p.p.p.p.p.p.y.y.t.t.9.  0 a s g g s t + l ) ) ( ( / m I U I   u.u.",
"  R T I m b   f s a w X X   p.p.p.p.p.p.a.a.f.g.g.g.g.f.f.f.f.a.a.a.a.a.a.a.a.p.p.a.!   - i f g g s 3   N ) ) ( ) / m I U   u.u.",
"  R R I m b   s f s a 0 %   p.p.      g.k.x.x.b.b.x.x.x.x.x.z.k.g.f.a.      a.a.a.a.y.s     X % % ! ! $ $ ) ' ) ( ) S I U   u.u.",
"u.  R I m m   i 8 o X     p.p.          n.n.n.m.m.n.n.n.n.n.n.b.b.x.          a.a.a.a.r.  q 0 a g g ! W . N +.) ( ) ) I U   u.u.",
"u.  R U I Z + X w - 0 -   p.x.        o m.m.  m.m.  m.m.m.  m.m.n.n.          a.a.a.a.y.!   % a g g ! g X : +.) ) ( ) I U   u.u.",
"u.  &.$.+.) B   0 a 0 0   x.x.n.X o * m.M.M.M.    C.      m.m.m.m.m.m.      x.f.a.a.a.a.t.  X o - q ! g # @ +.' ) ( ) Y U   u.u.",
"u.u.  ,.+.) ) ,   t s   z.x.n.m.m.M.M.M.M.M.M.  C.C.C.C.  m.m.m.m.m.m.m.m.m.x.j.f.a.a.a.t.  a q o % * %   2 +.' ) ( ) I U   u.u.",
"u.u.  1.$.) ) ) 5   s   b.n.m.m.M.M.M.M.M.M.M.        .   M.M.m.m.m.m.m.m.m.n.x.j.f.s.a.p.~   a g g f p   ^ +.' ) ( / I T   u.u.",
"u.u.u.  >.+.) ) ) :   b.n.m.m.M.M.M.M.M.M.M.M.    ; h j   M.M.M.m.m.m.m.m.m.m.n.x.j.f.s.a.t.  o % w g X $ +.+.' ) / Z I   u.u.u.",
"u.u.u.u.  +.) ( _   b.n.n.m.M.M.M.M.M.M.M.M.M.    j j j   M.M.M.M.m.m.m.m.m.m.m.n.z.g.f.f.p.  8 % - X   / +.+.) / m m U   u.u.u.",
"u.u.u.u.u.    / L   n.n.m.m.M.M.M.M.M.M.M.M.M.q.O j j   q.M.M.M.M.M.m.m.m.m.m.m.m.b.j.f.f.s.p.  3     n F I Z m m m I U   u.u.u.",
"u.u.u.u.u.u.u.    b.n.m.m.M.M.M.M.M.M.M.M.M.M.M.  j j   M.M.M.M.M.M.M.m.m.m.m.m.m.n.x.j.f.f.f.      M D m m m m m m I   u.u.u.u.",
"u.u.u.u.u.u.u.u.  n.n.m.m.M.M.M.M.M.M.M.M.M.M.M.l.    i.M.M.M.M.M.M.M.M.m.m.m.m.m.m.n.z.g.f.f.  m m m C S S Z Z Z Y   u.u.u.u.u.",
"u.u.u.u.u.u.u.  x.n.m.m.M.M.M.M.M.M.M.M.M.M.M.M.M.M.M.M.M.M.M.M.M.M.M.M.m.m.m.m.m.m.m.b.j.f.f.f.+ m ) ) ) ) ) ) #.  u.u.u.u.u.u.",
"u.u.u.u.u.u.u.  n.n.m.m.M.M.M.M.M.M.M.M.M.M.M.M.M.M.M.M.M.M.M.M.M.M.M.M.M.m.m.m.m.m.m.n.z.f.f.f.  m ) ) ) ) ' #.  u.u.u.u.u.u.u.",
"u.u.u.u.u.u.  x.n.m.m.M.M.M.M.M.M.M.M.M.M.M.M.M.M.M.M.M.M.M.M.M.M.M.M.M.m.m.m.m.m.m.m.n.x.j.f.f.f.O _ ` )       u.u.u.u.u.u.u.u.",
"u.u.u.u.u.u.  n.m.m.m.M.M.M.M.M.M.M.M.M.M.M.M.M.M.M.M.M.M.M.M.M.M.M.M.M.m.m.m.m.m.m.m.n.x.j.f.f.f.        u.u.u.u.u.u.u.u.u.u.u.",
"u.u.u.u.u.u.  n.m.m.m.M.M.N.B.M.M.M.M.M.M.M.M.M.M.M.M.M.M.M.M.M.M.M.M.M.m.m.m.m.m.m.m.n.b.z.g.f.f.f.  u.u.u.u.u.u.u.u.u.u.u.u.u.",
"u.u.u.u.u.u.  n.m.m.m.M.M.V.B.M.M.M.M.M.M.M.M.M.M.M.M.M.M.M.M.M.M.M.M.m.m.m.m.m.m.m.m.n.b.z.h.f.f.f.  u.u.u.u.u.u.u.u.u.u.u.u.u.",
"u.u.u.u.u.u.  n.m.m.m.M.M.V.V.M.M.M.M.M.M.M.M.M.M.M.M.M.M.M.M.M.M.M.M.m.m.m.m.m.m.m.n.n.b.z.j.f.f.f.  u.u.u.u.u.u.u.u.u.u.u.u.u.",
"u.u.u.u.u.  n.n.m.m.m.M.M.V.V.B.M.M.M.M.M.M.M.M.M.M.M.M.M.M.M.M.M.M.M.m.m.m.m.m.m.m.n.n.x.z.j.f.f.f.f.  u.u.u.u.u.u.u.u.u.u.u.u.",
"u.u.u.u.u.  n.n.m.m.m.M.M.B.V.M.M.M.M.M.M.M.M.M.M.M.M.M.M.M.M.M.M.M.m.m.m.m.m.m.m.n.n.b.x.j.g.f.f.f.f.  u.u.u.u.u.u.u.u.u.u.u.u.",
"u.u.u.u.u.  n.n.m.m.m.M.M.M.V.B.M.M.M.M.M.M.M.M.M.M.M.M.M.M.M.M.M.m.m.m.m.m.m.m.m.n.n.b.x.j.g.f.f.f.g.  u.u.u.u.u.u.u.u.u.u.u.u.",
"u.u.u.u.u.  n.n.n.m.m.m.m.M.M.N.M.M.M.M.M.M.M.M.M.M.M.M.M.M.M.M.m.m.m.m.m.m.m.m.n.n.b.x.z.j.g.f.f.g.g.  u.u.u.u.u.u.u.u.u.u.u.u.",
"u.u.u.u.u.  n.n.n.m.m.m.m.M.M.M.B.M.M.M.M.M.M.M.M.M.M.M.M.M.M.M.M.m.m.m.m.m.m.n.n.b.x.x.j.j.f.f.f.g.g.  u.u.u.u.u.u.u.u.u.u.u.u.",
"u.u.u.u.u.  n.n.n.m.m.m.m.m.M.M.M.M.M.M.M.M.M.M.M.M.M.M.M.M.M.M.m.m.m.m.m.m.n.n.n.x.x.z.j.h.f.f.f.g.h.  u.u.u.u.u.u.u.u.u.u.u.u.",
"u.u.u.u.u.  b.n.n.m.m.m.m.m.M.M.M.M.M.M.M.B.B.M.M.M.M.M.M.M.M.m.m.m.m.m.n.n.n.b.x.x.x.j.j.g.f.f.f.g.h.  u.u.u.u.u.u.u.u.u.u.u.u.",
"u.u.u.u.u.  b.n.n.m.m.m.m.m.m.M.M.M.M.M.M.M.M.M.M.M.M.M.M.M.m.m.m.m.m.m.n.n.n.v.x.x.z.j.h.f.f.f.f.g.j.  u.u.u.u.u.u.u.u.u.u.u.u.",
"u.u.u.u.u.  x.b.n.n.m.m.m.m.m.m.M.M.M.M.M.M.M.M.M.M.M.M.m.m.m.m.m.m.m.n.n.b.x.x.x.z.j.j.f.f.f.f.f.h.j.  u.u.u.u.u.u.u.u.u.u.u.u.",
"u.u.u.u.u.u.  x.b.n.n.m.m.m.m.m.m.m.m.m.m.M.M.m.m.m.m.m.m.m.m.m.m.m.n.n.b.x.x.z.k.j.j.g.f.d.a.f.g.j.  u.u.u.u.u.u.u.u.u.u.u.u.u.",
"u.u.u.u.u.u.  x.v.b.n.m.n.n.m.m.m.m.m.m.m.m.m.m.m.m.m.m.m.m.m.m.n.n.b.x.x.x.z.k.j.j.f.f.a.a.a.f.h.j.  u.u.u.u.u.u.u.u.u.u.u.u.u.",
"u.u.u.u.u.u.  z.x.v.n.n.n.n.n.n.n.n.m.m.m.m.m.m.m.m.m.m.m.n.n.n.b.x.x.x.z.k.k.j.j.g.f.a.p.a.f.g.j.j.  u.u.u.u.u.u.u.u.u.u.u.u.u.",
"u.u.u.u.u.u.u.  z.x.x.b.n.n.n.n.b.n.n.n.n.n.n.n.n.n.n.n.n.n.b.x.x.z.z.k.j.j.j.h.f.f.a.p.p.a.f.j.j.  u.u.u.u.u.u.u.u.u.u.u.u.u.u.",
"u.u.u.u.u.u.u.u.  k.x.x.b.b.b.b.c.x.v.v.v.v.b.b.b.b.b.b.x.x.x.z.z.k.j.j.j.j.g.f.f.a.p.a.a.f.h.j.j.  u.u.u.u.u.u.u.u.u.u.u.u.u.u.",
"u.u.u.u.u.u.u.u.  j.j.z.x.b.v.x.x.x.x.x.x.x.x.x.x.x.x.x.z.z.k.k.j.j.j.j.h.g.f.d.a.p.a.d.f.j.j.j.  u.u.u.u.u.u.u.u.u.u.u.u.u.u.u.",
"u.u.u.u.u.u.u.u.u.  j.j.z.x.x.x.x.z.k.k.k.z.z.z.z.z.k.k.j.j.j.j.j.j.j.g.f.f.a.p.p.a.d.f.h.j.k.  u.u.u.u.u.u.u.u.u.u.u.u.u.u.u.u.",
"u.u.u.u.u.u.u.u.u.u.  j.j.k.z.z.z.z.j.j.j.j.j.j.j.j.j.j.j.j.j.j.h.g.g.f.f.a.a.a.a.d.f.j.j.j.  u.u.u.u.u.u.u.u.u.u.u.u.u.u.u.u.u.",
"u.u.u.u.u.u.u.u.u.u.u.  j.j.j.k.k.k.j.j.j.j.j.j.j.j.j.h.h.g.g.g.f.f.f.f.d.a.a.d.f.h.j.k.j.  u.u.u.u.u.u.u.u.u.u.u.u.u.u.u.u.u.u.",
"u.u.u.u.u.u.u.u.u.u.u.u.  j.j.j.j.j.j.j.j.j.j.h.h.h.g.g.g.g.f.f.f.f.f.f.f.f.f.g.j.j.j.    u.u.u.u.u.u.u.u.u.u.u.u.u.u.u.u.u.u.u.",
"u.u.u.u.u.u.u.u.u.u.u.u.u.    j.j.j.j.j.j.j.h.h.g.g.g.g.f.f.f.f.f.f.f.f.f.g.j.j.k.    u.u.u.u.u.u.u.u.u.u.u.u.u.u.u.u.u.u.u.u.u.",
"u.u.u.u.u.u.u.u.u.u.u.u.u.u.u.      h.j.j.j.h.g.g.g.g.g.g.f.f.f.f.f.g.h.j.j.k.    u.u.u.u.u.u.u.u.u.u.u.u.u.u.u.u.u.u.u.u.u.u.u.",
"u.u.u.u.u.u.u.u.u.u.u.u.u.u.u.u.u.u.        j.j.j.j.j.h.j.j.j.j.j.j.j.k.      u.u.u.u.u.u.u.u.u.u.u.u.u.u.u.u.u.u.u.u.u.u.u.u.u.",
"u.u.u.u.u.u.u.u.u.u.u.u.u.u.u.u.u.u.u.u.u.u.                            u.u.u.u.u.u.u.u.u.u.u.u.u.u.u.u.u.u.u.u.u.u.u.u.u.u.u.u."
};
