/* XPM */
static char *result[] = {
/* columns rows colors chars-per-pixel */
"64 36 161 2 ",
"   c #FFFFFFFF",
".  c black",
"X  c gray40",
"o  c #555555",
"O  c #7E705C",
"+  c #A78E69",
"@  c #857769",
"#  c #444444",
"$  c #816239",
"%  c #4C4844",
"&  c #88776B",
"*  c #B1967A",
"=  c #8C7C6C",
"-  c #9B825C",
";  c #645B4D",
":  c #7D7466",
">  c #B39364",
",  c #8D8271",
"<  c #777777",
"1  c #888888",
"2  c #4A4641",
"3  c #544F48",
"4  c #BB9966",
"5  c #887A66",
"6  c #8D5217",
"7  c #965F29",
"8  c #6D583D",
"9  c #4C4843",
"0  c #696358",
"q  c #827766",
"w  c #665C4E",
"e  c #A37434",
"r  c #A3885F",
"t  c #635E57",
"y  c #8C795E",
"u  c #927E5F",
"i  c #5B554A",
"p  c #706759",
"a  c #4C4946",
"s  c #6C6966",
"d  c #A68B62",
"f  c #6B604F",
"g  c #5C5956",
"h  c #776C5B",
"j  c gray20",
"k  c #746652",
"l  c #A08761",
"z  c #665B4F",
"x  c #CCAA88",
"c  c #BBA084",
"v  c #7B6B53",
"b  c #8D7755",
"n  c #937D5B",
"m  c #CCAA77",
"M  c #847051",
"N  c #BB8855",
"B  c #AA7733",
"V  c #111111",
"C  c #19140D",
"Z  c #32291B",
"A  c #A28458",
"S  c #705C3D",
"D  c #0D0A07",
"F  c #251F14",
"G  c #AA6622",
"H  c #AE8E5F",
"J  c #3E3322",
"K  c #645136",
"L  c #BB8844",
"P  c #AA7744",
"I  c #9E6F2F",
"U  c #2D200D",
"Y  c #705133",
"T  c #19120B",
"R  c #44290D",
"E  c #9E5F1F",
"W  c #8E5F1F",
"Q  c #996622",
"!  c #995511",
"~  c #93672C",
"^  c #442F14",
"/  c #AA6633",
"(  c #472707",
")  c #140602",
"_  c #993311",
"`  c #994411",
"'  c #843A0E",
"]  c #331605",
"[  c #140B02",
"{  c #84490E",
"}  c #8E4F0F",
"|  c #BBEEFF",
" . c #222222",
".. c #7A280D",
"X. c #8E2F0F",
"o. c #222211",
"O. c #222233",
"+. c #0A0501",
"@. c #AADDEE",
"#. c #CCFFFF",
"$. c #BBBBBB",
"%. c #843217",
"&. c #BBDDFF",
"*. c #7A440D",
"=. c #EEFFFF",
"-. c gray60",
";. c #AD6940",
":. c #DDFFFF",
">. c #171006",
",. c #EEEEEE",
"<. c #AAAAAA",
"1. c #BB8866",
"2. c #0B0803",
"3. c #443333",
"4. c #E8DBC8",
"5. c #F9F6F1",
"6. c #22180A",
"7. c #DFCFB7",
"8. c #995522",
"9. c #986C31",
"0. c #665128",
"q. c #003388",
"w. c #5599DD",
"e. c #BB7722",
"r. c #CC9955",
"t. c #DDBB88",
"y. c #114499",
"u. c #003377",
"i. c #77BBEE",
"p. c #005599",
"a. c #BB7733",
"s. c #115599",
"d. c #BB5511",
"f. c #004466",
"g. c #006699",
"h. c #55AADD",
"j. c #2266AA",
"k. c #116699",
"l. c #DDDDDD",
"z. c #99EEFF",
"x. c #002233",
"c. c #2277AA",
"v. c #3377AA",
"b. c #003355",
"n. c #AA5511",
"m. c #CCAA66",
"M. c #66AACC",
"N. c #337799",
"B. c #002244",
"V. c #000022",
"C. c #BB6611",
"Z. c #AA6611",
"A. c #BB8833",
"S. c #CC8844",
"D. c #003366",
"F. c #115577",
"G. c #336688",
"H. c #BB6622",
"J. c #CC9966",
"K. c #001122",
"L. c #002255",
/* pixels */
"                                                                                                                                ",
"                                                                      . . . . . . . . . . .                                     ",
"                                                                . . . X o O + @ o o o X o X . . .                               ",
"                                                            . . # $ % o X o & * = X X X X X X X X . .                           ",
"                                                        . . # # o - ; X o o o : > , < X < X X 1 X X < .                         ",
"                                                      . 2 # o o o 3 > o X o o X : 4 5 < X < o X 1 < < X . .                     ",
"                                                    . 6 7 8 9 o o # 4 0 X o X o X q 4 q X < X X X < X 1 X X .                   ",
"                                                    . # w e r t # o y 4 X o o o # X u 4 t X o X < < X 1 < X X .                 ",
"                                                  . # # # o y > i # p 4 a X X o X # s d 4 o X < < < X X < X X .                 ",
"                                                  . # o # o # f > f g 4 f o # # X o # h 4 f X o X o # X # o o X .               ",
"                                                . j # # o # o o ; > > 4 4 4 4 k X X o o l 4 s o o # X z x c o o .               ",
"                                                . j # # o # o # > 4 4 4 4 4 4 4 4 4 4 v i 4 O b n l m x x x x # .               ",
"                                                . # # # # # # b 4 4 4 4 4 4 4 4 4 4 4 4 4 4 4 4 4 4 4 m x x x X X .             ",
"                                              . # # # # # o j M 4 4 4 4 4 4 4 4 4 4 4 4 4 4 4 4 4 4 4 4 m x x # X .             ",
"                                              . # # # # # # # N 4 4 4 4 4 4 4 4 4 4 4 4 4 4 4 4 4 4 4 4 4 4 x # X .             ",
"                                              . j j j # # o # N 4 4 4 4 4 4 4 4 4 4 4 4 4 4 4 4 4 4 4 4 4 4 4 o o .             ",
"                                              . # # # j j j B N 4 4 4 4 4 4 4 4 4 4 4 4 4 4 4 4 4 4 4 4 4 4 4 4 V .             ",
"                                              . j j # # j B B C . . . . . . Z A 4 4 4 4 4 4 4 4 4 4 4 S D . . F j .             ",
"                                              . # j # j G B B H J . D . . . . . D H 4 4 4 4 4 4 4 K . . . . . L . .             ",
"                                              . # # # j B B 4 4 N P B B B I U . . . Y 4 4 4 4 4 T . . . R E W G B .             ",
"                                            . . . j j j B B P B B B Q ! ! ! Q B ~ . . B L 4 N B . ^ G ! ! ! ! ! / .             ",
"                                          . 4 4 4 . . ! Q B G ! ( . . . . . . ) _ ` Q B B B B G ! ' ] . . . [ { . m .           ",
"                                        . 4 4 ! B B . G ! ! } . . V | . o o o    ...` ! B B ! ` X.. . 1   o.O.+.. m .           ",
"                                      . . 4 G _ . . 4 B G ! +.. @.| #.. o . $.1 . . %.! B B ! ` ) . j . $. .| . . 4 .           ",
"                                    . &.. 4 4 . _ . 4 B B B *.. #.=.  . -.. . X . | ;.G B B B ` | . o . X . =.. / 4 .           ",
"                                    . :.. N 4 G _ . 4 B B B B >.,.    j 1 -.X o.,.=.G B B B B B   V <.<.X .   . 1.4 .           ",
"                                  . &.:.:.. 1.4 4 4 . B / B B B . 2.  ,.. 3.o.,.  4.B N 4 N 4 B 5.  j . 6.  7.. 4 .             ",
"                                . . &.:.&.. ! 8.N 4 4 G ! B . . . . . . . . . . 9.N 4 4 4 4 4 4 L . . . 0.4 . 4 4 .             ",
"                              . q.. &.:.&.w.. _ ` ! ! ! ! . e.r.t.t.t.. B B L 4 4 4 4 4 4 4 4 4 4 4 4 4 4 4 . 4 . . . . . .     ",
"                            . y.u.. i.&.&.w.p.. . _ _ . . e.a.t.t.t.t.t.. 4 4 4 4 4 4 4 4 4 4 4 4 4 4 4 4 4 . . . m t.t.t.t..   ",
"      . . . . . . . . . . . s.s.u.. i.i.&.. p.w.&.. . . d.e.t.t.t.t.t.t.t.. 4 4 4 4 4 4 4 4 4 4 4 4 4 4 4 4 . . t.a.t.t.t.t.t.. ",
"    .   f.g.g.h.h.h.. . . s.j.k.u.. i.i.. i.i.l.  . . d.d.e.t.t.t.t.t.t.t.. N 4 4 4 4 4 4 4 4 4 4 4 N N 4 .   . a.a.t.t.t.t.t.. ",
"  . z.x.f.f.f.f.f.. g.. c.j.v.c.b.. w.. &.  l.w.. o . e.e.r.t.t.t.t.t.t.t.. B B B L N N . . 4 4 N B B B . . . . n.a.m.t.t.t.t.. ",
"  . z.f.f.x.x.x.. f.f.v.s.s.M.N.B.V.. w.  w.. . o o . C.Z.A.S.t.t.t.t.t.t.. ! ! B B B B B B B B B B . . i.V o . n.a.L t.t.t.t.. ",
"  . z.f.f.f.x.x.. f.. f.D.B.F.G.. B.. l.w.j o o j j . ` d.H.H.e.A.L J.t.t.. . ! ! ! ! ! ! ! ! ! . . i.i.i.V j . n.n.a.a.m m t.. ",
"  . z.f.f.f.x.x.. f.. K.K.L.. .   . . . j j j j j . . . . d.d.d.Z.e.S.4 . V l.. . . . . . . . . i.. i.i.V j j j . n.n.e.a.a..   "
};
