/* XPM */
static char *_06ded076a414d6a91ad0e77db9191b0X5sWDAYYB31EiNqh[] = {
/* columns rows colors chars-per-pixel */
"56 64 167 2 ",
"   c #FFFFFFFF",
".  c black",
"X  c gray40",
"o  c #555555",
"O  c #7E705C",
"+  c #A78E69",
"@  c #857769",
"#  c #444444",
"$  c #816239",
"%  c #4C4844",
"&  c #88776B",
"*  c #B1967A",
"=  c #8C7C6C",
"-  c #9B825C",
";  c #645B4D",
":  c #7D7466",
">  c #B39364",
",  c #8D8271",
"<  c #777777",
"1  c #888888",
"2  c #4A4641",
"3  c #544F48",
"4  c #BB9966",
"5  c #887A66",
"6  c #8D5217",
"7  c #965F29",
"8  c #6D583D",
"9  c #4C4843",
"0  c #696358",
"q  c #827766",
"w  c #665C4E",
"e  c #A37434",
"r  c #A3885F",
"t  c #635E57",
"y  c #8C795E",
"u  c #927E5F",
"i  c #5B554A",
"p  c #706759",
"a  c #4C4946",
"s  c #6C6966",
"d  c #A68B62",
"f  c #6B604F",
"g  c #5C5956",
"h  c #776C5B",
"j  c gray20",
"k  c #746652",
"l  c #A08761",
"z  c #665B4F",
"x  c #CCAA88",
"c  c #BBA084",
"v  c #7B6B53",
"b  c #8D7755",
"n  c #937D5B",
"m  c #CCAA77",
"M  c #847051",
"N  c #BB8855",
"B  c #AA7733",
"V  c #111111",
"C  c #19140D",
"Z  c #32291B",
"A  c #A28458",
"S  c #705C3D",
"D  c #0D0A07",
"F  c #251F14",
"G  c #AA6622",
"H  c #AE8E5F",
"J  c #3E3322",
"K  c #645136",
"L  c #BB8844",
"P  c #AA7744",
"I  c #9E6F2F",
"U  c #2D200D",
"Y  c #705133",
"T  c #19120B",
"R  c #44290D",
"E  c #9E5F1F",
"W  c #8E5F1F",
"Q  c #996622",
"!  c #995511",
"~  c #93672C",
"^  c #442F14",
"/  c #AA6633",
"(  c #472707",
")  c #140602",
"_  c #993311",
"`  c #994411",
"'  c #843A0E",
"]  c #331605",
"[  c #140B02",
"{  c #84490E",
"}  c #8E4F0F",
"|  c #BBEEFF",
" . c #222222",
".. c #7A280D",
"X. c #8E2F0F",
"o. c #222211",
"O. c #222233",
"+. c #0A0501",
"@. c #AADDEE",
"#. c #CCFFFF",
"$. c #BBBBBB",
"%. c #843217",
"&. c #7A440D",
"*. c #EEFFFF",
"=. c gray60",
"-. c #AD6940",
";. c #171006",
":. c #EEEEEE",
">. c #AAAAAA",
",. c #BB8866",
"<. c #0B0803",
"1. c #443333",
"2. c #E8DBC8",
"3. c #F9F6F1",
"4. c #22180A",
"5. c #DFCFB7",
"6. c #995522",
"7. c #986C31",
"8. c #665128",
"9. c #DDDDDD",
"0. c #77BBEE",
"q. c #BB7733",
"w. c #DDBB88",
"e. c #5599DD",
"r. c #BBDDFF",
"t. c #BB6622",
"y. c #BB6611",
"u. c #DDAA77",
"i. c #003366",
"p. c #BB7722",
"a. c #BB5511",
"s. c #DDBB77",
"d. c #CC8844",
"f. c #CCAA66",
"g. c #BB8833",
"h. c #CC9955",
"j. c #AA6611",
"k. c #005599",
"l. c #DDFFFF",
"z. c #0077CC",
"x. c #004466",
"c. c #225588",
"v. c #002244",
"b. c #002233",
"n. c #001122",
"m. c #000022",
"M. c #2277AA",
"N. c #5599CC",
"B. c #66AACC",
"V. c #002255",
"C. c #003377",
"Z. c #115577",
"A. c #226688",
"S. c #4488BB",
"D. c #3377AA",
"F. c #115599",
"G. c #004477",
"H. c #226699",
"J. c #2266AA",
"K. c #001133",
"L. c #1166AA",
"P. c #3388AA",
"I. c #115588",
"U. c #006699",
"Y. c #1155AA",
"T. c #55AADD",
"R. c #99EEFF",
/* pixels */
"                                                                                                                ",
"                                                                                                                ",
"                                                                                                                ",
"                                                                                                                ",
"                                                                                                                ",
"                                                                                                                ",
"                                                        . . . . . . . . . . .                                   ",
"                                                  . . . X o O + @ o o o X o X . . .                             ",
"                                              . . # $ % o X o & * = X X X X X X X X . .                         ",
"                                          . . # # o - ; X o o o : > , < X < X X 1 X X < .                       ",
"                                        . 2 # o o o 3 > o X o o X : 4 5 < X < o X 1 < < X . .                   ",
"                                      . 6 7 8 9 o o # 4 0 X o X o X q 4 q X < X X X < X 1 X X .                 ",
"                                      . # w e r t # o y 4 X o o o # X u 4 t X o X < < X 1 < X X .               ",
"                                    . # # # o y > i # p 4 a X X o X # s d 4 o X < < < X X < X X .               ",
"                                    . # o # o # f > f g 4 f o # # X o # h 4 f X o X o # X # o o X .             ",
"                                  . j # # o # o o ; > > 4 4 4 4 k X X o o l 4 s o o # X z x c o o .             ",
"                                  . j # # o # o # > 4 4 4 4 4 4 4 4 4 4 v i 4 O b n l m x x x x # .             ",
"                                  . # # # # # # b 4 4 4 4 4 4 4 4 4 4 4 4 4 4 4 4 4 4 4 m x x x X X .           ",
"                                . # # # # # o j M 4 4 4 4 4 4 4 4 4 4 4 4 4 4 4 4 4 4 4 4 m x x # X .           ",
"                                . # # # # # # # N 4 4 4 4 4 4 4 4 4 4 4 4 4 4 4 4 4 4 4 4 4 4 x # X .           ",
"                                . j j j # # o # N 4 4 4 4 4 4 4 4 4 4 4 4 4 4 4 4 4 4 4 4 4 4 4 o o .           ",
"                                . # # # j j j B N 4 4 4 4 4 4 4 4 4 4 4 4 4 4 4 4 4 4 4 4 4 4 4 4 V .           ",
"                                . j j # # j B B C . . . . . . Z A 4 4 4 4 4 4 4 4 4 4 4 S D . . F j .           ",
"                                . # j # j G B B H J . D . . . . . D H 4 4 4 4 4 4 4 K . . . . . L . .           ",
"                                . # # # j B B 4 4 N P B B B I U . . . Y 4 4 4 4 4 T . . . R E W G B .           ",
"                              . . . j j j B B P B B B Q ! ! ! Q B ~ . . B L 4 N B . ^ G ! ! ! ! ! / .           ",
"                            . 4 4 4 . . ! Q B G ! ( . . . . . . ) _ ` Q B B B B G ! ' ] . . . [ { . m .         ",
"                          . 4 4 ! B B . G ! ! } . . V | . o o o    ...` ! B B ! ` X.. . 1   o.O.+.. m .         ",
"                          . 4 G _ . . 4 B G ! +.. @.| #.. o . $.1 . . %.! B B ! ` ) . j . $. .| . . 4 .         ",
"                          . 4 4 . _ . 4 B B B &.. #.*.  . =.. . X . | -.G B B B ` | . o . X . *.. / 4 .         ",
"                          . N 4 G _ . 4 B B B B ;.:.    j 1 =.X o.:.*.G B B B B B   V >.>.X .   . ,.4 .         ",
"                            . ,.4 4 4 . B / B B B . <.  :.. 1.o.:.  2.B N 4 N 4 B 3.  j . 4.  5.. 4 .           ",
"                            . ! 6.N 4 4 G ! B B B B I . . . . . . 7.N 4 4 4 4 4 4 L . . . 8.4 . 4 4 .           ",
"                              . _ ` ! ! ! ! ! B B B B N B B B L 4 4 4 4 4 4 4 4 4 4 4 4 4 4 4 . 4 .             ",
"                                . . _ _ . ! ! ! B B B B 4 4 4 4 4 4 4 4 4 4 4 4 4 4 4 4 4 4 4 . .               ",
"                                  . . . 9.. . ! ! ! B B B 4 4 4 4 4 4 4 4 4 4 4 4 4 4 4 4 4 4 .                 ",
"                                . 0.9.j j j j . ! ! ! B B B P N 4 4 4 4 4 4 4 4 4 4 4 N N 4 .                   ",
"                              . 0.9.j V V V V V . . ! ! ! ! B B B B L N N . . 4 4 N B B B . . . . . . .         ",
"                              . 0.  V V V j j j j j . . . . . . . . . . B B B B B B B . . . q.w.w.w.w.w..       ",
"                              . 0.e.  9.V V V V V V 9.  r.  9.9.      9.. . . . . . . . . t.y.u.w.w.w.w.q..     ",
"                          . . i.e.e.e.e.9.          r.r.0.0.0.r.r.r.r.0. .# o o o o o . p.a.y.u.s.w.s.u.L .     ",
"                        . 9.e.e.i.e.0.0.0.r.r.r.r.r.r.e.e.e.e.0.0.0.r.V V  . . .# # # . y.y.y.d.u.f.f.f.q..     ",
"                        . e.e.. i.i.e.e.0.0.0.r.r.r.0.i.i.i.0.e.e.0.0.. . . . . . . . . . y.y.g.d.f.h.d.j..     ",
"                        . e.. 0.0.k.i.i.i.i.i.0.0.0.0.r.l.l.. . . . .                     . y.y.y.y.t.y.j..     ",
"                          . 0.0.e.e.e.k.k.k.0.0.0.0.r.r.r.r.k..                             . y.j.j.j.t..       ",
"                        . 0.0.e.e.e.e.e.e.e.k.k.k.k.z.z.z.z..                                 . . . . .         ",
"                        . 0.e.e.e.e.e.e.0.0.0.e.e.e.e.0.0.0..                                                   ",
"                        . 0.e.e.e.e.0.0.0.0.0.0.r.r.r.r.r.r..                                                   ",
"                          . 0.e.e.e.0.0.0.e.0.0.r.l.r.z.r..                                                     ",
"                        . x.. 0.e.e.e.e.e.0.0.0.r.r.z.r.l..                                                     ",
"                        . c.v.. . e.e.e.0.0.0.0.0.k.r.r..                                                       ",
"                        . x.b.n.v.. . . e.e.e.e.e.e.0.. . .                                                     ",
"                        . n.v.v.m.m.. . . . . . . . . M.N.B.. .                                                 ",
"                      . n.V.C.C.. .     . . . . . . x.Z.A.S.D.F..                                               ",
"                . . . G.Z.H.J..                     . . K.b.G.L..                                               ",
"            . . . x.. H.P.B..                         . . . I.J..                                               ",
"      . . . . x.. U.U.. Y..                         . x.x.U.. . .                                               ",
"    . . b.x.x.U.x.. U.. .                         . . . . U.U.. .                                               ",
"  . b.b.x.x.U.U.. . . .                         . . b.b.x.. . .                                                 ",
"  . b.x.x.x.x.. . .                             . b.b.x.U.U.. . . .                                             ",
"  . b.x.U.U.U.T.T.  .                           . b.x.x.U.U.U.T.T.  .                                           ",
"  . R.R.U.U.U.U.U.T..                           . R.R.R.x.U.U.U.U.T..                                           ",
"    . . R.R.        .                             . . . R.R.        .                                           ",
"        . . . . . .                                     . . . . . .                                             "
};
